<?xml version="1.0" encoding="utf-8"?>
<!-- Generator: Adobe Illustrator 17.0.0, SVG Export Plug-In . SVG Version: 6.00 Build 0)  -->
<!DOCTYPE svg PUBLIC "-//W3C//DTD SVG 1.1//EN" "http://www.w3.org/Graphics/SVG/1.1/DTD/svg11.dtd">
<svg version="1.1" id="Layer_1" xmlns="http://www.w3.org/2000/svg" xmlns:xlink="http://www.w3.org/1999/xlink" x="0px" y="0px"
	 width="317px" height="318px" viewBox="0 0 317 318" enable-background="new 0 0 317 318" xml:space="preserve">
<circle display="none" fill="#90C3D1" stroke="#442E22" stroke-width="5" stroke-miterlimit="10" cx="159.042" cy="158.995" r="117.167"/>
<circle display="none" fill="#8E785B" stroke="#442E22" stroke-width="5" stroke-miterlimit="10" cx="159.041" cy="158.994" r="79.963"/>
<g opacity="0.75">
	
		<linearGradient id="SVGID_1_" gradientUnits="userSpaceOnUse" x1="544.1778" y1="-432.9563" x2="775.6402" y2="-432.9563" gradientTransform="matrix(0.4109 -0.9117 0.9117 0.4109 282.6133 936.502)">
		<stop  offset="0" style="stop-color:#0BB524"/>
		<stop  offset="0.4835" style="stop-color:#19B9C0"/>
		<stop  offset="0.5543" style="stop-color:#18B3BF"/>
		<stop  offset="0.6473" style="stop-color:#17A3BB"/>
		<stop  offset="0.7527" style="stop-color:#1487B5"/>
		<stop  offset="0.8674" style="stop-color:#1061AD"/>
		<stop  offset="0.9882" style="stop-color:#0C31A3"/>
		<stop  offset="1" style="stop-color:#0B2CA2"/>
	</linearGradient>
	<path fill="url(#SVGID_1_)" d="M53.534,109.407C27.267,167.679,53.22,236.21,111.482,262.47
		c58.277,26.264,126.801,0.319,153.071-57.952c26.262-58.276,0.317-126.805-57.956-153.069
		C148.319,25.189,79.797,51.137,53.534,109.407z M224.986,186.681c-16.416,36.415-59.242,52.646-95.669,36.224
		c-36.414-16.41-52.637-59.242-36.215-95.665c16.416-36.421,59.242-52.636,95.661-36.221
		C225.18,107.43,241.395,150.27,224.986,186.681z"/>
	<g>
		
			<linearGradient id="SVGID_2_" gradientUnits="userSpaceOnUse" x1="544.1856" y1="-343.1903" x2="775.6288" y2="-343.1903" gradientTransform="matrix(0.4109 -0.9117 0.9117 0.4109 282.6133 936.502)">
			<stop  offset="0" style="stop-color:#16D131"/>
			<stop  offset="0.4835" style="stop-color:#24D5DC"/>
			<stop  offset="0.5502" style="stop-color:#23CFDB"/>
			<stop  offset="0.6379" style="stop-color:#22BFD7"/>
			<stop  offset="0.7373" style="stop-color:#20A3D2"/>
			<stop  offset="0.8454" style="stop-color:#1C7DCA"/>
			<stop  offset="0.9593" style="stop-color:#184DC0"/>
			<stop  offset="1" style="stop-color:#163ABC"/>
		</linearGradient>
		<path fill="url(#SVGID_2_)" d="M208.577,255.378c-4.666,4.439-9.687,8.462-15.002,12.015
			c13.394-4.197,26.007-10.808,37.144-19.578C223.643,251.09,216.228,253.625,208.577,255.378z"/>
		
			<linearGradient id="SVGID_3_" gradientUnits="userSpaceOnUse" x1="544.1784" y1="-335.4157" x2="775.6374" y2="-335.4157" gradientTransform="matrix(0.4109 -0.9117 0.9117 0.4109 282.6133 936.502)">
			<stop  offset="0" style="stop-color:#098E28"/>
			<stop  offset="0.4835" style="stop-color:#0A9394"/>
			<stop  offset="0.5656" style="stop-color:#0A8D93"/>
			<stop  offset="0.6736" style="stop-color:#0A7D8F"/>
			<stop  offset="0.796" style="stop-color:#0A6189"/>
			<stop  offset="0.928" style="stop-color:#093C81"/>
			<stop  offset="1" style="stop-color:#09247C"/>
		</linearGradient>
		<path fill="url(#SVGID_3_)" d="M265.987,112.812c-0.776,4.47-1.792,8.927-3.124,13.381c-4.299,14.221-11.186,26.943-19.97,37.848
			c1.284,13.938-0.002,28.35-4.306,42.575c-5.818,19.283-16.386,35.82-30.009,48.762c7.65-1.754,15.066-4.288,22.142-7.562
			c14.149-11.146,25.915-25.746,33.833-43.298C278.189,174.261,277.721,141.249,265.987,112.812z"/>
		
			<linearGradient id="SVGID_4_" gradientUnits="userSpaceOnUse" x1="544.1628" y1="-403.5176" x2="775.6402" y2="-403.5176" gradientTransform="matrix(0.4109 -0.9117 0.9117 0.4109 282.6133 936.502)">
			<stop  offset="0" style="stop-color:#11BB2D"/>
			<stop  offset="0.4835" style="stop-color:#1ABEC5"/>
			<stop  offset="0.5546" style="stop-color:#1AB8C4"/>
			<stop  offset="0.648" style="stop-color:#19A8C0"/>
			<stop  offset="0.7539" style="stop-color:#178CBA"/>
			<stop  offset="0.8691" style="stop-color:#1466B2"/>
			<stop  offset="0.9904" style="stop-color:#1136A8"/>
			<stop  offset="1" style="stop-color:#1132A7"/>
		</linearGradient>
		<path fill="url(#SVGID_4_)" d="M212.475,97.049c17.264,18.162,28.105,41.795,30.417,66.992
			c8.784-10.905,15.671-23.627,19.97-37.848c1.332-4.454,2.348-8.911,3.124-13.381c-10.856-26.326-31.372-48.734-59.39-61.364
			c-7.53-3.387-15.234-5.894-22.992-7.588C197.902,58.596,207.896,77.042,212.475,97.049z"/>
		
			<linearGradient id="SVGID_5_" gradientUnits="userSpaceOnUse" x1="544.1778" y1="-417.152" x2="775.6395" y2="-417.152" gradientTransform="matrix(0.4109 -0.9117 0.9117 0.4109 282.6133 936.502)">
			<stop  offset="0" style="stop-color:#098E28"/>
			<stop  offset="0.4835" style="stop-color:#0A9394"/>
			<stop  offset="0.5656" style="stop-color:#0A8D93"/>
			<stop  offset="0.6736" style="stop-color:#0A7D8F"/>
			<stop  offset="0.796" style="stop-color:#0A6189"/>
			<stop  offset="0.928" style="stop-color:#093C81"/>
			<stop  offset="1" style="stop-color:#09247C"/>
		</linearGradient>
		<path fill="url(#SVGID_5_)" d="M151.342,253.415c-14.221-4.297-26.946-11.186-37.851-19.966
			c-13.937,1.287-28.341-0.012-42.565-4.307c-1.065-0.318-2.11-0.693-3.163-1.041c11.188,14.393,25.941,26.359,43.72,34.369
			c26.908,12.13,55.987,13.098,82.094,4.924c5.315-3.553,10.336-7.576,15.002-12.015
			C190.249,259.567,170.625,259.225,151.342,253.415z"/>
		
			<linearGradient id="SVGID_6_" gradientUnits="userSpaceOnUse" x1="544.1794" y1="-391.0673" x2="775.6298" y2="-391.0673" gradientTransform="matrix(0.4109 -0.9117 0.9117 0.4109 282.6133 936.502)">
			<stop  offset="0" style="stop-color:#086C37"/>
			<stop  offset="0.4835" style="stop-color:#097756"/>
			<stop  offset="0.5764" style="stop-color:#097156"/>
			<stop  offset="0.6986" style="stop-color:#096155"/>
			<stop  offset="0.8371" style="stop-color:#084554"/>
			<stop  offset="0.9866" style="stop-color:#072053"/>
			<stop  offset="1" style="stop-color:#071C53"/>
		</linearGradient>
		<path fill="url(#SVGID_6_)" d="M224.986,186.681c-14.601,32.387-50.078,48.771-83.354,40.474
			c-9.001,3.289-18.456,5.407-28.141,6.295c10.905,8.78,23.63,15.668,37.851,19.966c19.283,5.81,38.908,6.152,57.236,1.963
			c13.624-12.942,24.192-29.479,30.009-48.762c4.304-14.225,5.59-28.637,4.306-42.575c-4.556,5.655-9.626,10.826-15.119,15.446
			C226.98,181.91,226.053,184.305,224.986,186.681z"/>
		
			<linearGradient id="SVGID_7_" gradientUnits="userSpaceOnUse" x1="544.179" y1="-381.2328" x2="775.631" y2="-381.2328" gradientTransform="matrix(0.4109 -0.9117 0.9117 0.4109 282.6133 936.502)">
			<stop  offset="0" style="stop-color:#0A8F28"/>
			<stop  offset="0.4835" style="stop-color:#0A9497"/>
			<stop  offset="0.5656" style="stop-color:#0A8E96"/>
			<stop  offset="0.6736" style="stop-color:#0A7E92"/>
			<stop  offset="0.796" style="stop-color:#0A628C"/>
			<stop  offset="0.928" style="stop-color:#093D84"/>
			<stop  offset="1" style="stop-color:#09257F"/>
		</linearGradient>
		<path fill="url(#SVGID_7_)" d="M212.475,97.049c1.034,4.513,1.807,9.113,2.269,13.759c15.474,18.716,20.95,44.591,13.029,68.679
			c5.493-4.62,10.563-9.791,15.119-15.446C240.58,138.844,229.739,115.212,212.475,97.049z"/>
		
			<linearGradient id="SVGID_8_" gradientUnits="userSpaceOnUse" x1="544.1885" y1="-519.3872" x2="775.6375" y2="-519.3872" gradientTransform="matrix(0.4109 -0.9117 0.9117 0.4109 282.6133 936.502)">
			<stop  offset="0" style="stop-color:#2AE440"/>
			<stop  offset="0.4835" style="stop-color:#3CD5E7"/>
			<stop  offset="0.5587" style="stop-color:#3BCFE7"/>
			<stop  offset="0.6575" style="stop-color:#39BFE6"/>
			<stop  offset="0.7695" style="stop-color:#35A3E6"/>
			<stop  offset="0.8902" style="stop-color:#307EE5"/>
			<stop  offset="1" style="stop-color:#2B55E4"/>
		</linearGradient>
		<path fill="url(#SVGID_8_)" d="M106.491,65.062c10.045-9.534,21.746-17.128,34.466-22.4c-25.05,3.992-48.464,16.153-66.161,34.948
			C84.625,71.865,95.316,67.625,106.491,65.062z"/>
		
			<linearGradient id="SVGID_9_" gradientUnits="userSpaceOnUse" x1="544.2031" y1="-463.7439" x2="775.6363" y2="-463.7439" gradientTransform="matrix(0.4109 -0.9117 0.9117 0.4109 282.6133 936.502)">
			<stop  offset="0" style="stop-color:#1ADC37"/>
			<stop  offset="0.4835" style="stop-color:#2ADCE4"/>
			<stop  offset="0.5499" style="stop-color:#29D6E3"/>
			<stop  offset="0.6373" style="stop-color:#28C6E0"/>
			<stop  offset="0.7363" style="stop-color:#25AADB"/>
			<stop  offset="0.844" style="stop-color:#2184D4"/>
			<stop  offset="0.9574" style="stop-color:#1C54CC"/>
			<stop  offset="1" style="stop-color:#1A40C8"/>
		</linearGradient>
		<path fill="url(#SVGID_9_)" d="M106.491,65.062c18.323-4.193,37.943-3.849,57.233,1.966c19.275,5.817,35.809,16.387,48.751,30.022
			c-4.579-20.008-14.573-38.453-28.871-53.188c-14.252-3.113-28.7-3.423-42.647-1.198C128.237,47.934,116.536,55.528,106.491,65.062
			z"/>
		
			<linearGradient id="SVGID_10_" gradientUnits="userSpaceOnUse" x1="544.1835" y1="-495.3001" x2="775.6328" y2="-495.3001" gradientTransform="matrix(0.4109 -0.9117 0.9117 0.4109 282.6133 936.502)">
			<stop  offset="0" style="stop-color:#11C52C"/>
			<stop  offset="0.4835" style="stop-color:#1FC9D1"/>
			<stop  offset="0.5519" style="stop-color:#1EC3D0"/>
			<stop  offset="0.6418" style="stop-color:#1DB3CC"/>
			<stop  offset="0.7436" style="stop-color:#1A97C6"/>
			<stop  offset="0.8544" style="stop-color:#1771BE"/>
			<stop  offset="0.9711" style="stop-color:#1241B4"/>
			<stop  offset="1" style="stop-color:#1134B1"/>
		</linearGradient>
		<path fill="url(#SVGID_10_)" d="M74.509,171.045c-12.475-13.133-21.588-29.1-26.562-46.461
			c-10.637,36.333-2.55,74.784,19.815,103.517c1.053,0.348,2.098,0.724,3.163,1.041c14.225,4.296,28.628,5.594,42.565,4.307
			C93.78,217.586,80.092,195.475,74.509,171.045z"/>
		
			<linearGradient id="SVGID_11_" gradientUnits="userSpaceOnUse" x1="544.1765" y1="-526.4613" x2="775.6439" y2="-526.4613" gradientTransform="matrix(0.4109 -0.9117 0.9117 0.4109 282.6133 936.502)">
			<stop  offset="0" style="stop-color:#1ADC37"/>
			<stop  offset="0.4835" style="stop-color:#2ADCE4"/>
			<stop  offset="0.5499" style="stop-color:#29D6E3"/>
			<stop  offset="0.6373" style="stop-color:#28C6E0"/>
			<stop  offset="0.7363" style="stop-color:#25AADB"/>
			<stop  offset="0.844" style="stop-color:#2184D4"/>
			<stop  offset="0.9574" style="stop-color:#1C54CC"/>
			<stop  offset="1" style="stop-color:#1A40C8"/>
		</linearGradient>
		<path fill="url(#SVGID_11_)" d="M74.509,171.045c-4.189-18.324-3.848-37.931,1.964-57.213c5.816-19.284,16.388-35.82,30.018-48.77
			c-11.176,2.563-21.866,6.803-31.695,12.549c-8.581,9.11-15.84,19.752-21.262,31.796c-2.251,4.993-4.089,10.063-5.586,15.177
			C52.921,141.944,62.034,157.911,74.509,171.045z"/>
		
			<linearGradient id="SVGID_12_" gradientUnits="userSpaceOnUse" x1="544.1812" y1="-462.1129" x2="775.6332" y2="-462.1129" gradientTransform="matrix(0.4109 -0.9117 0.9117 0.4109 282.6133 936.502)">
			<stop  offset="0" style="stop-color:#0A8F28"/>
			<stop  offset="0.4835" style="stop-color:#0A9497"/>
			<stop  offset="0.5656" style="stop-color:#0A8E96"/>
			<stop  offset="0.6736" style="stop-color:#0A7E92"/>
			<stop  offset="0.796" style="stop-color:#0A628C"/>
			<stop  offset="0.928" style="stop-color:#093D84"/>
			<stop  offset="1" style="stop-color:#09257F"/>
		</linearGradient>
		<path fill="url(#SVGID_12_)" d="M141.631,227.155c-4.151-1.034-8.271-2.435-12.306-4.246
			c-16.692-7.53-29.123-20.604-36.134-36.062c-6.858-4.61-13.103-9.928-18.681-15.802c5.583,24.43,19.271,46.542,38.982,62.405
			C123.175,232.561,132.631,230.444,141.631,227.155z"/>
		
			<linearGradient id="SVGID_13_" gradientUnits="userSpaceOnUse" x1="544.1752" y1="-464.0266" x2="775.6429" y2="-464.0266" gradientTransform="matrix(0.4109 -0.9117 0.9117 0.4109 282.6133 936.502)">
			<stop  offset="0" style="stop-color:#0BAE25"/>
			<stop  offset="0.4835" style="stop-color:#16B2B9"/>
			<stop  offset="0.5562" style="stop-color:#15ACB8"/>
			<stop  offset="0.6518" style="stop-color:#149CB4"/>
			<stop  offset="0.7601" style="stop-color:#1280AE"/>
			<stop  offset="0.8779" style="stop-color:#0E5AA6"/>
			<stop  offset="1" style="stop-color:#0A2B9C"/>
		</linearGradient>
		<path fill="url(#SVGID_13_)" d="M76.473,113.832c-5.812,19.282-6.153,38.889-1.964,57.213
			c5.579,5.874,11.824,11.192,18.681,15.802c-8.282-18.272-8.983-39.879-0.088-59.607c16.416-36.421,59.242-52.636,95.661-36.221
			c10.41,4.687,19.16,11.54,25.981,19.79c-0.462-4.646-1.236-9.246-2.269-13.759C199.533,83.414,183,72.845,163.725,67.028
			c-19.291-5.815-38.91-6.158-57.233-1.966C92.861,78.012,82.289,94.548,76.473,113.832z"/>
	</g>
	<g>
		
			<linearGradient id="SVGID_14_" gradientUnits="userSpaceOnUse" x1="544.177" y1="-361.0422" x2="775.6401" y2="-361.0422" gradientTransform="matrix(0.4109 -0.9117 0.9117 0.4109 282.6133 936.502)">
			<stop  offset="0" style="stop-color:#0BB524"/>
			<stop  offset="0.4835" style="stop-color:#19B9C0"/>
			<stop  offset="0.5543" style="stop-color:#18B3BF"/>
			<stop  offset="0.6473" style="stop-color:#17A3BB"/>
			<stop  offset="0.7527" style="stop-color:#1487B5"/>
			<stop  offset="0.8674" style="stop-color:#1061AD"/>
			<stop  offset="0.9882" style="stop-color:#0C31A3"/>
			<stop  offset="1" style="stop-color:#0B2CA2"/>
		</linearGradient>
		<path fill="url(#SVGID_14_)" d="M245.765,84.464c25.767,32.807,32.878,78.441,14.55,119.101
			c-18.402,40.832-57.558,65.759-99.393,68.003c-3.127,0.431-6.272,0.717-9.435,0.891c46.783,3.048,92.669-22.685,113.065-67.94
			c22.28-49.432,6.974-106.246-33.757-138.374C236.437,71.737,241.446,77.877,245.765,84.464z"/>
		
			<linearGradient id="SVGID_15_" gradientUnits="userSpaceOnUse" x1="544.1816" y1="-352.8179" x2="775.6355" y2="-352.8179" gradientTransform="matrix(0.4109 -0.9117 0.9117 0.4109 282.6133 936.502)">
			<stop  offset="0" style="stop-color:#0BB524"/>
			<stop  offset="0.4835" style="stop-color:#19B9C0"/>
			<stop  offset="0.5543" style="stop-color:#18B3BF"/>
			<stop  offset="0.6473" style="stop-color:#17A3BB"/>
			<stop  offset="0.7527" style="stop-color:#1487B5"/>
			<stop  offset="0.8674" style="stop-color:#1061AD"/>
			<stop  offset="0.9882" style="stop-color:#0C31A3"/>
			<stop  offset="1" style="stop-color:#0B2CA2"/>
		</linearGradient>
		<path fill="url(#SVGID_15_)" d="M254.112,200.731c-17.927,39.768-54.019,65.386-93.19,70.836
			c41.835-2.244,80.991-27.171,99.393-68.003c18.328-40.66,11.216-86.294-14.55-119.101
			C267.368,117.369,271.955,161.157,254.112,200.731z"/>
		
			<linearGradient id="SVGID_16_" gradientUnits="userSpaceOnUse" x1="49.5001" y1="817.6141" x2="280.9787" y2="817.6141" gradientTransform="matrix(-0.7285 0.685 -0.685 -0.7285 784.7322 580.2296)">
			<stop  offset="0" style="stop-color:#0BB524"/>
			<stop  offset="0.4835" style="stop-color:#19B9C0"/>
			<stop  offset="0.5543" style="stop-color:#18B3BF"/>
			<stop  offset="0.6473" style="stop-color:#17A3BB"/>
			<stop  offset="0.7527" style="stop-color:#1487B5"/>
			<stop  offset="0.8674" style="stop-color:#1061AD"/>
			<stop  offset="0.9882" style="stop-color:#0C31A3"/>
			<stop  offset="1" style="stop-color:#0B2CA2"/>
		</linearGradient>
		<path fill="url(#SVGID_16_)" d="M88.11,79.349c31.781-29.887,74.926-39.75,113.208-29.782
			c-39.515-13.94-85.226-5.892-117.857,24.789c-32.493,30.548-43.383,75.43-32.141,115.61
			C43.961,151.28,56.482,109.083,88.11,79.349z"/>
		
			<linearGradient id="SVGID_17_" gradientUnits="userSpaceOnUse" x1="544.1788" y1="-377.9554" x2="775.6298" y2="-377.9554" gradientTransform="matrix(0.4109 -0.9117 0.9117 0.4109 282.6133 936.502)">
			<stop  offset="0" style="stop-color:#0BB524"/>
			<stop  offset="0.4835" style="stop-color:#19B9C0"/>
			<stop  offset="0.5543" style="stop-color:#18B3BF"/>
			<stop  offset="0.6473" style="stop-color:#17A3BB"/>
			<stop  offset="0.7527" style="stop-color:#1487B5"/>
			<stop  offset="0.8674" style="stop-color:#1061AD"/>
			<stop  offset="0.9882" style="stop-color:#0C31A3"/>
			<stop  offset="1" style="stop-color:#0B2CA2"/>
		</linearGradient>
		<path fill="url(#SVGID_17_)" d="M227.717,189.076c-13.251,29.381-43.109,46.258-74.431,45.259
			c34.022,4.805,67.554-11.349,81.397-42.083c13.772-30.549,3.847-66.16-21.971-88.474
			C233.895,126.568,240.871,159.886,227.717,189.076z"/>
		
			<linearGradient id="SVGID_18_" gradientUnits="userSpaceOnUse" x1="544.1785" y1="-462.8324" x2="775.636" y2="-462.8324" gradientTransform="matrix(0.4109 -0.9117 0.9117 0.4109 282.6133 936.502)">
			<stop  offset="0" style="stop-color:#0BB524"/>
			<stop  offset="0.4835" style="stop-color:#19B9C0"/>
			<stop  offset="0.5543" style="stop-color:#18B3BF"/>
			<stop  offset="0.6473" style="stop-color:#17A3BB"/>
			<stop  offset="0.7527" style="stop-color:#1487B5"/>
			<stop  offset="0.8674" style="stop-color:#1061AD"/>
			<stop  offset="0.9882" style="stop-color:#0C31A3"/>
			<stop  offset="1" style="stop-color:#0B2CA2"/>
		</linearGradient>
		<path fill="url(#SVGID_18_)" d="M129.631,227.457c-40.943-18.452-60.287-64.133-43.214-102.03
			c17.077-37.879,64.128-53.646,105.068-35.191c7.926,3.571,15.025,8.18,21.228,13.54c-7.372-7.937-16.442-14.61-27.012-19.361
			c-40.945-18.462-88.516-1.514-106.256,37.839c-17.732,39.356,1.08,86.214,42.023,104.67c10.377,4.675,21.182,7.068,31.819,7.409
			C145.345,233.216,137.381,230.953,129.631,227.457z"/>
		
			<linearGradient id="SVGID_19_" gradientUnits="userSpaceOnUse" x1="653.053" y1="-323.2238" x2="885.3417" y2="-323.2238" gradientTransform="matrix(0.2192 -0.9757 0.9757 0.2192 303.951 978.3165)">
			<stop  offset="0" style="stop-color:#0BB524"/>
			<stop  offset="0.4835" style="stop-color:#19B9C0"/>
			<stop  offset="0.5543" style="stop-color:#18B3BF"/>
			<stop  offset="0.6473" style="stop-color:#17A3BB"/>
			<stop  offset="0.7527" style="stop-color:#1487B5"/>
			<stop  offset="0.8674" style="stop-color:#1061AD"/>
			<stop  offset="0.9882" style="stop-color:#0C31A3"/>
			<stop  offset="1" style="stop-color:#0B2CA2"/>
		</linearGradient>
		<path fill="url(#SVGID_19_)" d="M86.417,125.427c-17.073,37.897,2.271,83.578,43.214,102.03c7.75,3.496,15.714,5.759,23.656,6.877
			c31.321,0.999,61.179-15.877,74.431-45.259c13.154-29.19,6.177-62.507-15.005-85.299c-6.203-5.36-13.302-9.969-21.228-13.54
			C150.545,71.782,103.494,87.548,86.417,125.427z M224.986,186.681c-16.419,36.422-59.242,52.642-95.669,36.224
			c-36.414-16.41-52.633-59.246-36.215-95.665c16.416-36.421,59.242-52.636,95.661-36.221
			C225.18,107.43,241.395,150.27,224.986,186.681z"/>
	</g>
</g>
<g>
	<path fill="#6AC9D8" d="M132.979,216.61c12.773,5.328,26.591,5.545,40.026,2.615c11.759-2.564,25.144-7.471,33.801-16.141
		c8.028-8.044,12.033-20.395,14.551-31.175c2.624-11.247,3.15-23.028-0.126-34.175c-7.381-25.118-33.279-43.453-58.522-46.975
		c-32.727-4.567-61.547,18.245-69.898,49.09c-4.278,15.802-0.132,36.458,7.263,50.734c6.44,12.43,19.882,21.452,32.896,25.896
		c0.957,0.327,1.131-1.696,0.398-2.061c-12.003-5.952-22.448-13.135-28.487-25.429c-7.439-15.139-8.57-31.478-5.173-47.79
		c6.556-31.466,43.593-46.625,72.688-39.474c13.274,3.263,25.668,10.353,35.273,20.044c10.95,11.044,15.45,25.124,13.48,40.402
		c-1.651,12.801-6.403,26.858-15.305,36.465c-9.414,10.158-26.69,14.542-39.684,16.998c-10.62,2.008-22.463,2.063-32.803-1.348
		C132.444,213.985,132.264,216.312,132.979,216.61z"/>
	<path fill="#6AC9D8" d="M207.868,186.038c5.992-9.189,7.894-19.869,7.157-30.671c-0.648-9.449-3.024-20.475-9.099-28.335
		c-5.631-7.288-15.322-12.033-23.901-15.417c-8.949-3.528-18.603-5.502-28.206-4.444c-21.644,2.38-40.002,20.011-46.056,39.102
		c-7.852,24.754,7.367,50.117,31.77,60.687c12.499,5.415,30.057,4.949,42.756,1.115c11.059-3.337,20.179-12.554,25.469-22.048
		c0.389-0.698-1.26-1.102-1.65-0.582c-6.408,8.51-13.638,15.648-24.534,18.693c-13.419,3.753-27.039,2.458-40.071-2.344
		c-25.137-9.261-37.756-40.432-26.934-61.422c12.363-23.984,47.04-33.444,59.396-29.889c10.355,2.98,21.357,8.532,28.171,16.704
		c7.204,8.643,8.665,22.614,9.069,33.01c0.33,8.496-1.101,17.678-5.207,25.237C205.636,186.104,207.534,186.553,207.868,186.038z"/>
	<path fill="#6AC9D8" d="M146.043,200.632c8.667,3.534,18.044,3.679,27.161,1.735c7.978-1.702,17.062-4.956,22.937-10.711
		c5.448-5.334,8.164-13.529,9.872-20.682c1.783-7.463,2.138-15.277-0.085-22.672c-5.007-16.666-22.583-28.827-39.71-31.163
		c-22.208-3.029-41.764,12.104-47.432,32.566c-2.904,10.484-0.09,24.187,4.93,33.658c4.368,8.247,13.491,14.232,22.32,17.179
		c0.649,0.217,0.768-1.125,0.271-1.368c-8.147-3.947-15.234-8.713-19.332-16.868c-5.047-10.045-5.815-20.883-3.509-31.707
		c4.449-20.875,24.685-33.695,44.426-28.952c9.006,2.164,21.759,7.566,28.278,13.994c7.43,7.327,11.037,18.737,9.701,28.872
		c-1.118,8.494-4.346,17.819-10.384,24.191c-6.388,6.74-18.11,9.65-26.927,11.278c-7.208,1.332-15.243,1.369-22.261-0.895
		C145.68,198.89,145.557,200.435,146.043,200.632z"/>
	<path fill="#6AC9D8" d="M184.167,131.962c-6.387-4.125-13.85-5.681-21.425-5.545c-6.629,0.119-14.377,1.297-19.941,4.942
		c-5.161,3.383-8.578,9.442-11.028,14.831c-2.555,5.626-4.029,11.748-3.379,17.934c1.464,13.943,13.649,26.256,26.968,30.735
		c17.271,5.804,35.185-3.155,42.822-18.457c3.912-7.842,3.751-19.106,1.182-27.363c-2.231-7.19-8.607-13.322-15.208-17.008
		c-0.485-0.272-0.783,0.773-0.424,1.04c5.901,4.37,10.839,9.228,12.87,16.305c2.502,8.713,1.464,17.4-2.021,25.599
		c-6.726,15.817-24.834,22.844-39.875,16.061c-6.86-3.094-16.221-9.322-20.447-15.404c-4.817-6.933-5.964-16.505-3.356-24.313
		c2.183-6.54,6.176-13.416,11.969-17.526c6.121-4.346,15.927-4.845,23.214-4.778c5.955,0.054,12.38,1.259,17.637,4.125
		C184.19,133.394,184.522,132.192,184.167,131.962z"/>
	<path fill="#6AC9D8" d="M189.093,143.773c-3.694-4.805-8.902-7.85-14.654-9.592c-5.033-1.522-11.198-2.484-16.388-0.972
		c-4.812,1.406-9.038,5.346-12.354,8.995c-3.46,3.805-6.237,8.268-7.429,13.302c-2.689,11.337,3.152,24.008,11.983,30.781
		c11.449,8.785,27.403,6.101,37.327-4.092c5.082-5.219,8.026-14.132,8.336-21.263c0.272-6.205-2.87-12.59-6.846-17.105
		c-0.294-0.332-0.804,0.414-0.605,0.716c3.266,4.882,5.668,9.911,5.275,15.978c-0.484,7.475-3.628,14.064-8.488,19.674
		c-9.378,10.817-27.879,11.06-36.835,1.519c-10.229-10.901-8.861-30.171-4.768-35.683c3.427-4.62,8.312-9.063,13.797-10.886
		c5.802-1.932,13.333,0.068,18.813,1.899c4.48,1.494,8.996,4.009,12.184,7.551C188.724,144.907,189.299,144.042,189.093,143.773z"/>
	<path fill="#6AC9D8" d="M157.875,184.407c4.4,1.796,9.16,1.869,13.786,0.882c4.052-0.863,8.664-2.517,11.643-5.436
		c2.767-2.708,4.148-6.87,5.014-10.5c0.904-3.789,1.084-7.755-0.043-11.509c-2.544-8.459-11.465-14.634-20.16-15.818
		c-11.274-1.539-21.2,6.143-24.078,16.531c-1.474,5.322-0.046,12.279,2.503,17.086c2.216,4.187,6.848,7.226,11.331,8.722
		c0.33,0.109,0.39-0.573,0.137-0.696c-4.136-2.004-7.733-4.423-9.812-8.564c-2.563-5.098-2.953-10.601-1.783-16.094
		c2.26-10.597,12.532-17.106,22.553-14.697c4.572,1.098,11.046,3.841,14.355,7.104c3.771,3.719,5.603,9.513,4.925,14.656
		c-0.566,4.311-2.205,9.046-5.271,12.28c-3.242,3.422-9.192,4.9-13.67,5.725c-3.658,0.678-7.736,0.696-11.3-0.454
		C157.691,183.524,157.627,184.308,157.875,184.407z"/>
	<path fill="#6AC9D8" d="M181.868,173.728c1.79-2.784,2.364-6.015,2.15-9.281c-0.183-2.858-0.882-6.192-2.684-8.564
		c-1.671-2.2-4.552-3.628-7.104-4.643c-2.662-1.061-5.534-1.652-8.392-1.324c-6.445,0.738-11.924,6.084-13.743,11.864
		c-2.355,7.493,2.154,15.152,9.41,18.331c3.719,1.627,8.946,1.473,12.73,0.302c3.293-1.018,6.017-3.812,7.6-6.687
		c0.116-0.212-0.374-0.333-0.491-0.177c-1.914,2.58-4.076,4.746-7.319,5.676c-3.997,1.145-8.05,0.764-11.927-0.678
		c-7.477-2.782-11.206-12.201-7.969-18.557c3.7-7.264,14.032-10.154,17.704-9.088c3.081,0.892,6.352,2.565,8.375,5.029
		c2.137,2.609,2.561,6.835,2.674,9.977c0.09,2.57-0.343,5.348-1.57,7.64C181.201,173.75,181.768,173.885,181.868,173.728z"/>
	<path fill="#6AC9D8" d="M164.571,175.805c2.054,0.838,4.273,0.873,6.434,0.412c1.888-0.402,4.042-1.174,5.432-2.536
		c1.291-1.264,1.934-3.205,2.34-4.9c0.425-1.767,0.508-3.618-0.018-5.373c-1.187-3.947-5.351-6.829-9.409-7.382
		c-5.262-0.718-9.894,2.867-11.237,7.715c-0.687,2.484-0.02,5.73,1.168,7.974c1.034,1.954,3.197,3.372,5.286,4.07
		c0.157,0.052,0.182-0.267,0.066-0.324c-1.929-0.935-3.608-2.063-4.579-3.997c-1.195-2.379-1.377-4.947-0.831-7.511
		c1.052-4.945,5.848-7.982,10.523-6.859c2.133,0.513,5.156,1.793,6.698,3.317c1.761,1.736,2.617,4.439,2.3,6.838
		c-0.265,2.013-1.03,4.221-2.459,5.731c-1.514,1.597-4.291,2.286-6.381,2.672c-1.707,0.315-3.612,0.323-5.274-0.212
		C164.484,175.394,164.455,175.759,164.571,175.805z"/>
	<path fill="#6AC9D8" d="M175.029,164.27c-0.677-2.254-3.056-3.899-5.372-4.215c-3.004-0.41-5.649,1.639-6.416,4.405
		c-0.393,1.418-0.013,3.271,0.666,4.552c0.591,1.113,1.821,1.922,3.01,2.321c0.005,0.004,0.006,0.012,0.012,0.015
		c1.171,0.479,2.44,0.497,3.673,0.235c1.08-0.23,2.309-0.67,3.103-1.449c0.736-0.722,1.104-1.829,1.335-2.797
		C175.28,166.329,175.33,165.271,175.029,164.27z M174.452,166.382c-0.017,1.822-1.711,4.942-4.992,4.574
		c-5.212-0.585-5.897-4.91-5.586-6.374c0.601-2.823,3.089-3.849,5.823-3.593C173.213,161.316,174.467,164.999,174.452,166.382z"/>
</g>
</svg>
