<?xml version="1.0" encoding="utf-8"?>
<!-- Generator: Adobe Illustrator 17.0.0, SVG Export Plug-In . SVG Version: 6.00 Build 0)  -->
<!DOCTYPE svg PUBLIC "-//W3C//DTD SVG 1.1//EN" "http://www.w3.org/Graphics/SVG/1.1/DTD/svg11.dtd">
<svg version="1.1" id="Layer_1" xmlns="http://www.w3.org/2000/svg" xmlns:xlink="http://www.w3.org/1999/xlink" x="0px" y="0px"
	 width="189.635px" height="109.65px" viewBox="0 0 189.635 109.65" enable-background="new 0 0 189.635 109.65"
	 xml:space="preserve">
<g id="sunflower_2_" display="none">
	<path display="inline" fill="#87A566" stroke="#567244" stroke-miterlimit="10" d="M125.528,45.262c0,0,16.957-16.985,47.238,4.042
		c0,0,18.438,12.797,13.205,13.144c0,0-17.22-1.33-24.806,6.646c0,0-14.625,13.15-31.261,5.433
		C129.906,74.525,111.545,64.46,125.528,45.262z"/>
	<path display="inline" fill="#87A566" stroke="#567244" stroke-miterlimit="10" d="M2.707,87.848c0,0,23.905-56.73,68.339-37.422
		c0,0,15.105,42.882-18.187,47.056c0,0-9.681,0.188-13.37-2.794C39.489,94.688,21.08,80.2,2.707,87.848z"/>
	<path display="inline" fill="#EDDA7D" stroke="#C89D2C" stroke-miterlimit="10" d="M73.552,44.256c0,0-10.376-4.379-12.816-17.403
		c0,0-0.605-1.227-1.561-2.785c0,0-3.375-5.966-1.614-11.214c0,0,5.395,5.118,9.542,4.466c0,0,15.529,1.302,15.304,15.029
		c0,0-2.575,1.064-4.328,4.414C78.079,36.764,79.617,39.816,73.552,44.256z"/>
	<path display="inline" fill="#EDDA7D" stroke="#C89D2C" stroke-miterlimit="10" d="M94.729,31.25c0,0,6.276-20.278-10.411-26.515
		c0,0-11.768-3.597-12.327-2.904c0,0,10.41,6.692,5.261,13.777c0,0-0.927,15.069,7.098,17.167L94.729,31.25z"/>
	<path display="inline" fill="#F4E04D" stroke="#FED00F" stroke-miterlimit="10" d="M99.276,4.621c0,0,13.375,6.8-2.144,27.427
		l-5.114-0.51c0,0-0.816-13.619,5.77-21.066C97.79,10.472,100.377,7.034,99.276,4.621z"/>
	<path display="inline" fill="#EDDA7D" stroke="#C89D2C" stroke-miterlimit="10" d="M120.72,4.026c0,0-1.098,11.502-10.457,12.709
		c0,0-13.857,2.528-11.768,16.223l13.222,9.347c0,0,15.916-6.963,10.044-18.568c0,0-2.328-2.07-0.025-4.214
		C121.735,19.521,128.058,9.571,120.72,4.026z"/>
	<path display="inline" fill="#F4E04D" stroke="#FED00F" stroke-miterlimit="10" d="M126.429,25.979c0,0-2.589,3.438-5.32,3.519
		c0,0-7.812,1.885-9.656,10.304l2.254,3.346C113.706,43.147,131.901,33.832,126.429,25.979z"/>
	<path display="inline" fill="#EDDA7D" stroke="#C89D2C" stroke-miterlimit="10" d="M138.151,29.161c0,0-5.514-4.265-11.297,4.786
		c0,0-9.77-0.647-15.908,5.065c-6.139,5.714,0.506,0.789,0.506,0.789l9.104,14.212c0,0,15.344,1.53,11.051-11.084
		C131.604,42.929,132.013,34.874,138.151,29.161z"/>
	<path display="inline" fill="#F4E04D" stroke="#FED00F" stroke-miterlimit="10" d="M150,55.309c0,0-3.701-1.081-4.742-0.97
		c0,0-7.891-10.756-23.883-2.521c0,0-0.203,4.027,1.53,4.476c1.732,0.447,13.363-1.211,15.781,1.695
		C138.688,57.99,146.265,61.82,150,55.309z"/>
	<path display="inline" fill="#EDDA7D" stroke="#C89D2C" stroke-miterlimit="10" d="M120.954,57.767c0,0,17.847-8.644,23.977,7.359
		c0,0,1.762,4.661,6.45,7.115c0,0,3.722,1.29,0.19,3.773c0,0-2.174-0.611-2.791-2.442c0,0-7.262-6.817-14.518,0.278
		c0,0-15.66,1.455-13.871-9.488L120.954,57.767z"/>
	<path display="inline" fill="#F4E04D" stroke="#FED00F" stroke-miterlimit="10" d="M117.44,66.363c0,0,15.475-1.224,17.248,5.547
		c0,0,3.619,8.26,5.211,9.354c0,0,5.381,3.013,4.384,3.54c0,0-7.226,5.406-17.033-1.562C127.25,83.242,114.194,77.462,117.44,66.363
		z"/>
	<path display="inline" fill="#EDDA7D" stroke="#C89D2C" stroke-miterlimit="10" d="M47.247,24.916c0,0,12.51,8.58,12.439,13.857
		c0,0,0.537,9.009,12.992,9.159c0,0,0.147-6.551,1.66-8.188C74.338,39.745,68.525,24.761,47.247,24.916z"/>
	<path display="inline" fill="#EDDA7D" stroke="#C89D2C" stroke-miterlimit="10" d="M37.644,33.738c0,0-3.957-5.481-1.721,1.659
		c0,0,6.415,24.618,35.123,15.028c0,0,2.279-2.35,0.555-4.697c0,0-6.411-10.704-22.823-6.427
		C48.778,39.301,41.601,39.22,37.644,33.738z"/>
	<path display="inline" fill="#F4E04D" stroke="#FED00F" stroke-miterlimit="10" d="M39.786,55.86c0,0-3.403-0.271-0.222-2.085
		c0,0,21.771-11.382,31.428-1.866c0,0,4.574,7.314-15.458,13.241c0,0-5.302-0.279-5.425-3.43
		C50.109,61.72,47.797,55.852,39.786,55.86z"/>
	<path display="inline" fill="#EDDA7D" stroke="#C89D2C" stroke-miterlimit="10" d="M73.246,55.251c0,0-5.138-2.958-9.582-0.877
		c0,0-14.448,4.913-11.027,21.204c0,0,0.899,0.537,2.213-2.978c0,0,3.362-6.049,5.319-3.518c0,0,0.962,7.065-1.282,11.731
		c0,0-0.403,2.153,4.356-0.674c0,0,16.972-4.968,12.718-21.172C75.961,58.97,75.352,55.237,73.246,55.251z"/>
	<path display="inline" fill="#473923" d="M71.255,43.973c0,0,1.88-4.628,5.46-7.644c0,0,6.946-12.494,27.468-3.924
		c0,0,24.771,12.861,19.137,29.75c0,0-3.194,14.57-8.816,13.746c0,0-6.438-1.055-9.809,2.941c0,0-4.631-4.885-5.715-3.188
		c0,0,1.101,5.892-4.355-0.804c0,0-2.588-3.52-8.437-0.524c0,0,2.232-5.771-2.116-7.998c0,0-2.099-7.842-7.708-4.082
		c0,0,0.083-6.65-3.926-7.172c0,0-1.923-4.698-3.782-4.343C68.654,50.733,74.06,49.525,71.255,43.973z"/>
	<path display="inline" fill="#EDDA7D" stroke="#C89D2C" stroke-miterlimit="10" d="M114.584,73.204c0,0,15.873,2.528,14.403,14.491
		c0,0-0.409,8.056-1.451,8.166c0,0-5.094-0.303-5.46-5.743c0,0-2.572-4.365-6.513-3.735c0,0-8.485-2.47-5.619-11.209
		C109.944,75.174,112.739,71.714,114.584,73.204z"/>
	<path display="inline" fill="#F4E04D" stroke="#FED00F" stroke-miterlimit="10" d="M83.748,64.782c0,0-0.602-9.635-8.545-2.042
		c0,0-4.166,4.447-2.886,10.531c0,0,0.063,6.53-3.102,7.5c0,0,5.134,3.672,18.135-8.888C87.35,71.885,89.654,66.79,83.748,64.782z"
		/>
	<path display="inline" fill="#F4E04D" stroke="#FED00F" stroke-miterlimit="10" d="M88.943,72.98c0,0-0.977,0.736-1.214-0.503
		c0,0-0.943-3.904-9.012,3.488c0,0-1.605,1.752-0.945,4c0,0-1.347,3.201-2.355,3.625c0,0-2.532,1.957,2.988,2.318
		C78.405,85.909,89.463,85.787,88.943,72.98z"/>
	<path display="inline" fill="#EDDA7D" stroke="#C89D2C" stroke-miterlimit="10" d="M95.27,73.996c0,0-5.943-4.323-7.056,1.066
		c0,0-2.37,1.517-3.338,3.308c0,0-1.137,3.178-0.867,4.729c0,0-5.883,3.154-7.065,5.917c0,0-4.211,4.032-5.022,4.329
		c0,0,4.892,1.379,12.559-1.861c0,0-1.226,7.3-2.541,8.811c0,0,16.411-1.323,15.7-22.86C97.638,77.435,96.704,74.581,95.27,73.996z"
		/>
	<path display="inline" fill="#F4E04D" stroke="#FED00F" stroke-miterlimit="10" d="M98.799,84.376c0,0-6.124,4.867-1.028,17.082
		c0,0,1.609,2.256-0.604,5.229c0,0,13.418-4.694,7.869-29.092C105.036,77.597,102.409,77.667,98.799,84.376z"/>
	<path display="inline" fill="#F4E04D" stroke="#FED00F" stroke-miterlimit="10" d="M110.707,75.413c0,0-5.903-0.005-5.58,5.021
		c0,0,1.495,7.115,6.866,7.07c0,0,3.22,2.504,3.318,3.441c0,0,1.682,1.932,1.813-1.773c0,0,1.797-7.888-4.081-8.633
		C113.044,80.54,109.491,77.86,110.707,75.413z"/>
	<path display="inline" fill="#EDDA7D" stroke="#C89D2C" stroke-miterlimit="10" d="M98.079,77.601c0,0-0.33-4.077,2.377-3.416
		c0,0,8.119,1.98,13.082,14.947c0,0,2.732,9.829-3.061,15.823c0,0-1.065-0.096-1.728-2.346c0,0-1.388-3.12-6.013-4
		c0,0-8.514-3.731-5.209-15.259C97.53,83.352,97.625,78.281,98.079,77.601z"/>
</g>
<g>
	<g>
		
			<linearGradient id="SVGID_1_" gradientUnits="userSpaceOnUse" x1="101.6656" y1="79.7923" x2="96.0476" y2="50.8902" gradientTransform="matrix(0.927 -0.375 0.375 0.927 -20.6839 42.5751)">
			<stop  offset="0" style="stop-color:#932328"/>
			<stop  offset="0.67" style="stop-color:#E50012"/>
			<stop  offset="1" style="stop-color:#E8546B"/>
		</linearGradient>
		<path fill-rule="evenodd" clip-rule="evenodd" fill="url(#SVGID_1_)" d="M32.448,101.01
			c33.408-26.427,73.818-56.278,107.226-82.705c10.768-5.694,27.189,20.107,17.606,30.677
			C118.003,65.183,71.724,84.808,32.448,101.01z"/>
		
			<linearGradient id="SVGID_2_" gradientUnits="userSpaceOnUse" x1="103.4733" y1="90.0922" x2="96.4413" y2="53.9156" gradientTransform="matrix(0.927 -0.375 0.375 0.927 -20.6839 42.5751)">
			<stop  offset="0" style="stop-color:#932328"/>
			<stop  offset="0.67" style="stop-color:#E50012"/>
			<stop  offset="1" style="stop-color:#E8546B"/>
		</linearGradient>
		<polygon fill-rule="evenodd" clip-rule="evenodd" fill="url(#SVGID_2_)" points="45.509,92.161 136.043,25.877 137.15,33.734 
			45.838,93.074 		"/>
		<g>
			
				<linearGradient id="SVGID_3_" gradientUnits="userSpaceOnUse" x1="138.5486" y1="64.5325" x2="134.2594" y2="40.2072" gradientTransform="matrix(0.927 -0.375 0.375 0.927 -20.6839 42.5751)">
				<stop  offset="0" style="stop-color:#FCCF00"/>
				<stop  offset="0.59" style="stop-color:#FFF000"/>
				<stop  offset="1" style="stop-color:#FFFFFF"/>
			</linearGradient>
			<path fill-rule="evenodd" clip-rule="evenodd" fill="url(#SVGID_3_)" d="M117.251,35.79c1.846-1.424,3.682-2.842,5.505-4.254
				c2.486,10.218,9.581,17.716,18.817,23.95c-2.192,0.911-4.398,1.828-6.617,2.752C127.157,52.137,120.802,44.984,117.251,35.79z"/>
			
				<linearGradient id="SVGID_4_" gradientUnits="userSpaceOnUse" x1="122.3456" y1="67.4309" x2="118.0422" y2="43.0251" gradientTransform="matrix(0.927 -0.375 0.375 0.927 -20.6839 42.5751)">
				<stop  offset="0" style="stop-color:#FCCF00"/>
				<stop  offset="0.59" style="stop-color:#FFF000"/>
				<stop  offset="1" style="stop-color:#FFFFFF"/>
			</linearGradient>
			<path fill-rule="evenodd" clip-rule="evenodd" fill="url(#SVGID_4_)" d="M103.965,45.99c1.741-1.332,3.477-2.662,5.206-3.989
				c2.932,8.232,9.023,14.599,16.744,20.004c-2.161,0.902-4.331,1.809-6.508,2.718C112.901,59.47,107.478,53.426,103.965,45.99z"/>
			
				<linearGradient id="SVGID_5_" gradientUnits="userSpaceOnUse" x1="104.1233" y1="70.7566" x2="99.7814" y2="46.1324" gradientTransform="matrix(0.927 -0.375 0.375 0.927 -20.6839 42.5751)">
				<stop  offset="0" style="stop-color:#FCCF00"/>
				<stop  offset="0.59" style="stop-color:#FFF000"/>
				<stop  offset="1" style="stop-color:#FFFFFF"/>
			</linearGradient>
			<path fill-rule="evenodd" clip-rule="evenodd" fill="url(#SVGID_5_)" d="M89.227,57.243c1.664-1.268,3.327-2.536,4.987-3.804
				c3.016,6.301,7.981,11.452,14.08,15.933l-6.383,2.672C96.811,67.746,92.44,62.916,89.227,57.243z"/>
			
				<linearGradient id="SVGID_6_" gradientUnits="userSpaceOnUse" x1="88.3162" y1="73.7069" x2="83.9184" y2="48.7661" gradientTransform="matrix(0.927 -0.375 0.375 0.927 -20.6839 42.5751)">
				<stop  offset="0" style="stop-color:#FCCF00"/>
				<stop  offset="0.59" style="stop-color:#FFF000"/>
				<stop  offset="1" style="stop-color:#FFFFFF"/>
			</linearGradient>
			<path fill-rule="evenodd" clip-rule="evenodd" fill="url(#SVGID_6_)" d="M76.965,66.594c1.658-1.265,3.318-2.532,4.98-3.799
				c2.438,5.04,6.124,9.342,10.639,13.155l-6.107,2.557C82.734,74.953,79.494,71.032,76.965,66.594z"/>
			
				<linearGradient id="SVGID_7_" gradientUnits="userSpaceOnUse" x1="72.6358" y1="76.1522" x2="68.3473" y2="51.8312" gradientTransform="matrix(0.927 -0.375 0.375 0.927 -20.6839 42.5751)">
				<stop  offset="0" style="stop-color:#FCCF00"/>
				<stop  offset="0.59" style="stop-color:#FFF000"/>
				<stop  offset="1" style="stop-color:#FFFFFF"/>
			</linearGradient>
			<path fill-rule="evenodd" clip-rule="evenodd" fill="url(#SVGID_7_)" d="M64.554,76.082c1.625-1.245,3.255-2.493,4.89-3.743
				c2.034,3.688,4.754,6.972,7.98,9.957c-1.996,0.835-3.987,1.667-5.973,2.497C68.84,82.117,66.515,79.233,64.554,76.082z"/>
			
				<linearGradient id="SVGID_8_" gradientUnits="userSpaceOnUse" x1="55.0077" y1="79.3613" x2="50.6849" y2="54.8454" gradientTransform="matrix(0.927 -0.375 0.375 0.927 -20.6839 42.5751)">
				<stop  offset="0" style="stop-color:#FCCF00"/>
				<stop  offset="0.59" style="stop-color:#FFF000"/>
				<stop  offset="1" style="stop-color:#FFFFFF"/>
			</linearGradient>
			<path fill-rule="evenodd" clip-rule="evenodd" fill="url(#SVGID_8_)" d="M50.586,86.834c1.596-1.235,3.201-2.474,4.814-3.718
				c1.392,2.255,3.046,4.355,4.918,6.326c-1.954,0.815-3.9,1.626-5.837,2.432C53.077,90.271,51.774,88.595,50.586,86.834z"/>
		</g>
		
			<linearGradient id="SVGID_9_" gradientUnits="userSpaceOnUse" x1="95.3951" y1="70.0266" x2="91.3966" y2="47.35" gradientTransform="matrix(0.927 -0.375 0.375 0.927 -20.6839 42.5751)">
			<stop  offset="0" style="stop-color:#FCCF00"/>
			<stop  offset="0.59" style="stop-color:#FFF000"/>
			<stop  offset="1" style="stop-color:#FFFFFF"/>
		</linearGradient>
		<path fill-rule="evenodd" clip-rule="evenodd" fill="url(#SVGID_9_)" d="M123.762,34.869c0.736,2.032,1.666,3.951,2.765,5.769
			l-5.096,3.312c-1.082-1.666-2.061-3.408-2.924-5.233L123.762,34.869L123.762,34.869z M56.191,84.34
			c0.314,0.464,0.639,0.921,0.975,1.373l-5.04,3.275c-0.271-0.358-0.538-0.721-0.799-1.086L56.191,84.34L56.191,84.34z
			 M70.388,73.946c0.47,0.751,0.968,1.485,1.494,2.203l-5.042,3.276c-0.464-0.621-0.914-1.252-1.348-1.895L70.388,73.946
			L70.388,73.946z M82.965,64.738c0.581,1.022,1.215,2.013,1.898,2.976l-5.047,3.28c-0.627-0.858-1.225-1.737-1.794-2.637
			L82.965,64.738L82.965,64.738z M95.378,55.65c0.728,1.266,1.537,2.483,2.421,3.657l-5.039,3.274
			c-0.818-1.073-1.592-2.177-2.318-3.318L95.378,55.65L95.378,55.65z M110.29,44.733c0.765,1.648,1.661,3.217,2.677,4.717
			l-5.058,3.287c-0.971-1.377-1.869-2.806-2.689-4.293L110.29,44.733z"/>
		
			<linearGradient id="SVGID_10_" gradientUnits="userSpaceOnUse" x1="151.9848" y1="57.7731" x2="176.7861" y2="49.2333" gradientTransform="matrix(0.927 -0.375 0.375 0.927 -20.6839 42.5751)">
			<stop  offset="0" style="stop-color:#932328"/>
			<stop  offset="0.67" style="stop-color:#E50012"/>
			<stop  offset="1" style="stop-color:#E8546B"/>
		</linearGradient>
		<path fill-rule="evenodd" clip-rule="evenodd" fill="url(#SVGID_10_)" d="M140.619,17.93c5.269-2.131,12.936,3.176,17.12,11.852
			c4.184,8.676,3.305,17.44-1.964,19.571c-5.269,2.131-12.936-3.176-17.12-11.852C134.471,28.825,135.351,20.061,140.619,17.93z"/>
		
			<linearGradient id="SVGID_11_" gradientUnits="userSpaceOnUse" x1="35.1859" y1="75.5863" x2="34.2344" y2="69.5787" gradientTransform="matrix(0.927 -0.375 0.375 0.927 -20.6839 42.5751)">
			<stop  offset="0" style="stop-color:#008BD5"/>
			<stop  offset="1" style="stop-color:#9ED8F5"/>
		</linearGradient>
		<path fill-rule="evenodd" clip-rule="evenodd" fill="url(#SVGID_11_)" d="M45.457,90.812c-4.947,3.216-9.895,6.432-14.843,9.648
			c0.367,0.67,0.734,1.339,1.102,2.009c5.201-2.539,10.403-5.078,15.604-7.617C46.047,93.769,45.24,92.497,45.457,90.812z"/>
		
			<linearGradient id="SVGID_12_" gradientUnits="userSpaceOnUse" x1="172.4856" y1="64.3059" x2="170.739" y2="55.3205" gradientTransform="matrix(0.927 -0.375 0.375 0.927 -20.6839 42.5751)">
			<stop  offset="0" style="stop-color:#003F63"/>
			<stop  offset="0.39" style="stop-color:#008BD5"/>
			<stop  offset="1" style="stop-color:#003F63"/>
		</linearGradient>
		<path fill-rule="evenodd" clip-rule="evenodd" fill="url(#SVGID_12_)" d="M169.619,26.265l0.053,0.131
			c0.217,0.57,0.295,1.211,0.194,1.924c-0.192,1.356-1.082,2.842-2.166,3.681c-1.028,0.796-2.476,0.986-3.834,0.725
			c0.061,0.653,0.049,1.312-0.016,1.946c-0.025,0.243-0.075,0.479-0.152,0.701l-0.71-1.754c0.001-0.384-0.022-0.772-0.076-1.155
			c-0.16-0.058-0.317-0.123-0.47-0.194l-0.587-1.45c0.234,0.202,0.506,0.381,0.803,0.533c-0.157-0.476-0.375-0.927-0.669-1.332
			c-0.207-0.285-0.471-0.569-0.77-0.773l-0.472-1.166c0.169,0.021,0.338,0.07,0.49,0.133c0.532,0.221,1.003,0.642,1.359,1.088
			c0.57,0.714,0.925,1.559,1.119,2.449c1.197,0.309,2.531,0.215,3.422-0.475c0.894-0.693,1.66-1.964,1.819-3.084
			c0.249-1.761-0.92-2.902-2.405-3.616l-0.414-0.199l0.398-0.827l0.414,0.199C168.154,24.327,169.149,25.159,169.619,26.265z
			 M157.303,33.569c0.391,0.357,0.794,0.691,1.206,1.02c0,0,0-0.001,0-0.002c-0.274-1.234-0.96-2.603-2.095-3.217l-0.465-1.15
			c0.31,0.073,0.61,0.187,0.894,0.34c1.399,0.754,2.229,2.326,2.562,3.828c0.068,0.307,0.119,0.633,0.149,0.97
			c0.248,0.142,0.512,0.26,0.773,0.351c1.173,0.405,2.457,0.36,2.61-1.132c0.032-0.313,0.05-0.634,0.051-0.959l0.71,1.754
			c-0.162,0.462-0.447,0.863-0.896,1.132c-0.914,0.548-2.188,0.36-3.227-0.107c-0.032,0.634-0.152,1.267-0.384,1.837l-0.575-1.421
			c0.04-0.311,0.055-0.628,0.047-0.938c-0.042-0.031-0.084-0.062-0.125-0.094c-0.168-0.131-0.334-0.262-0.499-0.393L157.303,33.569
			L157.303,33.569z M160.748,28.081c-0.306-0.038-0.616,0.017-0.849,0.244c-0.366,0.357-0.294,0.89-0.112,1.317
			c0.258,0.607,0.784,1.205,1.245,1.666c0.389,0.388,0.873,0.712,1.41,0.962l-0.587-1.45c-0.061-0.052-0.119-0.106-0.174-0.161
			c-0.351-0.35-0.745-0.787-0.978-1.228c-0.042-0.078-0.155-0.323-0.15-0.443c0.126-0.018,0.386,0.096,0.473,0.142
			c0.066,0.035,0.131,0.075,0.194,0.118L160.748,28.081z M155.517,31.072c0,0,0,0,0,0.001c-0.181,0.531,1.066,1.807,1.404,2.135
			c0.126,0.123,0.254,0.243,0.382,0.36l0.736,1.819c-0.608-0.483-1.195-0.972-1.759-1.521c-0.689-0.671-1.996-2.023-1.633-3.089
			c0.074-0.217,0.209-0.399,0.387-0.544l0.14-0.113l0.179,0.011c0.202,0.013,0.401,0.042,0.596,0.088l0.465,1.15
			C156.141,31.224,155.842,31.12,155.517,31.072L155.517,31.072z M158.615,36.813c-0.11,0.837-0.414,1.631-1.022,2.13
			c-0.835,0.684-1.957,0.517-2.895,0.162c-1.997-0.754-4.057-2.643-5.517-4.149l-0.319-0.33l-0.659,0.639l0.32,0.33
			c1.569,1.619,3.709,3.56,5.852,4.369c1.265,0.478,2.694,0.597,3.802-0.312c0.46-0.378,0.79-0.869,1.015-1.418L158.615,36.813z"/>
		
			<linearGradient id="SVGID_13_" gradientUnits="userSpaceOnUse" x1="162.5181" y1="48.5918" x2="164.47" y2="53.6766" gradientTransform="matrix(0.927 -0.375 0.375 0.927 -20.6839 42.5751)">
			<stop  offset="0" style="stop-color:#EF8200"/>
			<stop  offset="0.39" style="stop-color:#F5AC3C"/>
			<stop  offset="1" style="stop-color:#EF8200"/>
		</linearGradient>
		<path fill-rule="evenodd" clip-rule="evenodd" fill="url(#SVGID_13_)" d="M150.724,27.488l-0.35-0.865
			c0.053,0.047,0.202,0.167,0.286,0.184c0.036-0.088,0.001-0.295-0.016-0.365c-0.076-0.309-0.262-0.612-0.463-0.854
			c-0.117-0.141-0.245-0.27-0.383-0.389l-0.453-1.12c0.566,0.297,1.074,0.692,1.462,1.204c0.255,0.337,0.471,0.752,0.532,1.174
			c0.049,0.34-0.005,0.745-0.324,0.94C150.921,27.454,150.823,27.482,150.724,27.488L150.724,27.488z M149.258,23.862
			c0.034-0.86,0.346-1.716,0.964-2.198c0.66-0.515,1.712-0.833,2.545-0.741c1.309,0.143,1.914,1.191,2.155,2.386l0.067,0.333
			l0.666-0.134l-0.067-0.333c-0.302-1.498-1.129-2.751-2.748-2.927c-1.008-0.11-2.236,0.257-3.037,0.881
			c-0.488,0.381-0.828,0.932-1.025,1.549L149.258,23.862z M148.243,30.039c0,0-0.001,0-0.001,0c-0.109,0.009-0.237-0.063-0.37-0.179
			l0.348,0.86c0.025,0,0.051-0.001,0.076-0.003c0.17-0.013,0.325-0.077,0.461-0.178l0.107-0.079l0.025-0.131
			c0.072-0.383,0.06-0.77-0.035-1.148c-0.285-1.141-1.261-2.024-2.278-2.538l-0.004-0.002l0.431,1.066
			C147.747,28.274,148.342,29.089,148.243,30.039L148.243,30.039z M148.778,22.677l0.479,1.185c-0.002,0.057-0.003,0.113-0.003,0.17
			c0.03,0.015,0.06,0.031,0.09,0.046l0.453,1.12c-0.141-0.122-0.292-0.233-0.45-0.334c0.069,0.303,0.176,0.585,0.319,0.828
			c0.187,0.316,0.428,0.678,0.702,0.926l0.004,0.004l0.35,0.865c-0.239,0.014-0.481-0.103-0.674-0.252
			c-0.388-0.296-0.721-0.782-0.968-1.198c-0.266-0.449-0.429-0.992-0.486-1.559c-0.489-0.2-1.01-0.33-1.512-0.404
			c-0.732-0.108-1.095,0.261-1.234,0.79l-0.343-0.848c0.051-0.07,0.107-0.136,0.169-0.197c0.407-0.404,0.956-0.499,1.507-0.417
			c0.466,0.069,0.941,0.181,1.398,0.344C148.604,23.382,148.669,23.019,148.778,22.677z M147.872,29.86
			c-0.371-0.325-0.777-0.995-0.905-1.218c-0.263-0.456-0.487-0.919-0.7-1.392c0.001,0,0.001,0.001,0.001,0
			c0.249,0.126,0.499,0.28,0.734,0.458l-0.431-1.066c-0.206-0.104-0.43-0.2-0.665-0.282c-0.056-0.204-0.093-0.415-0.11-0.619
			c-0.025-0.306-0.013-0.611,0.056-0.876l-0.343-0.848c-0.41,0.566-0.473,1.398-0.344,2.138c-0.904-0.182-1.868-0.124-2.591,0.409
			c-0.855,0.629-1.03,1.675-0.918,2.67c0.189,1.685,1.191,3.576,2.065,4.997l0.178,0.289l0.579-0.356l-0.178-0.289
			c-0.814-1.323-1.792-3.147-1.969-4.717c-0.083-0.738,0.002-1.574,0.646-2.047c0.644-0.474,1.581-0.435,2.397-0.206
			c0.014,0.036,0.029,0.072,0.044,0.107c0.296,0.675,0.591,1.328,0.96,1.969c0.345,0.598,1.042,1.73,1.842,1.739L147.872,29.86z"/>
		
			<linearGradient id="SVGID_14_" gradientUnits="userSpaceOnUse" x1="174.9316" y1="66.5884" x2="175.799" y2="71.5075" gradientTransform="matrix(0.927 -0.375 0.375 0.927 -20.6839 42.5751)">
			<stop  offset="0" style="stop-color:#55A694"/>
			<stop  offset="0.39" style="stop-color:#5DC1CF"/>
			<stop  offset="1" style="stop-color:#55A694"/>
		</linearGradient>
		<path fill-rule="evenodd" clip-rule="evenodd" fill="url(#SVGID_14_)" d="M169.936,41.086l-0.31-0.766
			c0.013-0.061,0.02-0.12,0.022-0.152c0.022-0.317-0.062-0.662-0.18-0.955c-0.139-0.344-0.336-0.658-0.573-0.943
			c-0.006,0.071-0.011,0.142-0.012,0.213l-0.707-1.749c0.112,0.076,0.223,0.155,0.332,0.238c0.37-0.955,1.058-1.789,1.961-2.121
			c0.952-0.35,2.234-0.325,3.161,0.087c1.488,0.663,1.893,2.107,1.723,3.626l-0.038,0.338l-0.675-0.075l0.038-0.338
			c0.135-1.212-0.121-2.394-1.324-2.93c-0.765-0.341-1.864-0.36-2.65-0.071c-0.783,0.288-1.366,1.087-1.643,1.96
			c0.482,0.471,0.872,1.026,1.096,1.665c0.14,0.398,0.219,0.86,0.149,1.28C170.263,40.653,170.149,40.93,169.936,41.086z
			 M165.251,39.755l-0.018-0.155c0,0,0.001,0.001,0.001,0.001c0.75,0.738,1.401,1.87,1.141,2.932l0.362,0.896l0.052-0.096
			c0.185-0.343,0.291-0.715,0.317-1.104c0.077-1.174-0.583-2.312-1.395-3.112c-0.165-0.163-0.351-0.324-0.55-0.475
			c0.008-0.211,0.038-0.423,0.084-0.623c0.207-0.895,0.74-1.683,1.736-1.193c0.456,0.225,0.912,0.506,1.317,0.847
			c-0.119,0.558-0.129,1.125-0.013,1.633c0.107,0.471,0.276,1.036,0.555,1.436c0.197,0.282,0.503,0.536,0.87,0.447
			c0.086-0.021,0.16-0.057,0.226-0.105l-0.31-0.766c-0.016,0.078-0.04,0.161-0.074,0.201c-0.077-0.044-0.186-0.212-0.219-0.268
			c-0.185-0.32-0.305-0.739-0.386-1.097c-0.048-0.211-0.069-0.438-0.064-0.673l-0.707-1.749c-0.289-0.195-0.591-0.367-0.895-0.517
			c-0.5-0.246-1.051-0.323-1.562-0.062c-0.647,0.33-1.023,1.096-1.169,1.867L165.251,39.755z M166.264,42.86
			C166.263,42.861,166.263,42.86,166.264,42.86c-0.406-0.096-0.716-1.379-0.789-1.72c-0.1-0.463-0.168-0.922-0.224-1.385
			l-0.701-1.733c-0.013,0.067-0.023,0.134-0.032,0.2c-0.806-0.449-1.741-0.688-2.593-0.402c-1.006,0.338-1.492,1.281-1.689,2.263
			c-0.334,1.662,0.043,3.768,0.441,5.389l0.082,0.33l0.66-0.163l-0.081-0.33c-0.371-1.509-0.747-3.543-0.435-5.093
			c0.146-0.728,0.482-1.498,1.239-1.753c0.758-0.255,1.638,0.068,2.345,0.535c0.003,0.039,0.006,0.077,0.01,0.115
			c0.076,0.734,0.157,1.445,0.314,2.169c0.15,0.696,0.485,2.047,1.297,2.239c0.165,0.039,0.332,0.026,0.493-0.029l0.126-0.043
			l0.011-0.021l-0.362-0.896C166.348,42.644,166.311,42.753,166.264,42.86z"/>
		
			<linearGradient id="SVGID_15_" gradientUnits="userSpaceOnUse" x1="186.8265" y1="45.0991" x2="190.0014" y2="49.6333" gradientTransform="matrix(0.927 -0.375 0.375 0.927 -20.6839 42.5751)">
			<stop  offset="0" style="stop-color:#E3007F"/>
			<stop  offset="0.39" style="stop-color:#F3B3CF"/>
			<stop  offset="1" style="stop-color:#E3007F"/>
		</linearGradient>
		<path fill-rule="evenodd" clip-rule="evenodd" fill="url(#SVGID_15_)" d="M177.11,7.274l0.128,0.318
			c0.081,0.226,0.147,0.466,0.197,0.715l0.071,0.353l-0.752,0.3l-0.072-0.353c-0.257-1.266-0.924-2.286-2.396-2.146
			c-0.936,0.089-2.124,0.679-2.874,1.399c-0.668,0.641-1.029,1.597-1.103,2.515l-0.488-1.206c0.234-0.675,0.609-1.308,1.128-1.806
			c0.909-0.872,2.296-1.557,3.43-1.665C175.775,5.564,176.638,6.237,177.11,7.274L177.11,7.274z M171.854,14.192
			c0.128-0.025,0.258-0.081,0.381-0.179c0.362-0.288,0.428-0.749,0.376-1.113c-0.064-0.452-0.302-0.862-0.585-1.176
			c-0.415-0.461-0.958-0.777-1.566-0.978l0.457,1.13c0.144,0.096,0.279,0.205,0.401,0.327c0.224,0.222,0.429,0.514,0.511,0.839
			c0.019,0.074,0.055,0.295,0.013,0.4c-0.098,0-0.271-0.105-0.325-0.142l-0.035-0.025L171.854,14.192z M169.081,17.565
			C169.081,17.565,169.081,17.565,169.081,17.565c-0.145,0.041-0.318-0.036-0.493-0.169l0.379,0.938
			c0.054-0.006,0.109-0.016,0.164-0.032c0.191-0.053,0.367-0.159,0.521-0.301l0.121-0.112l0.029-0.15
			c0.086-0.44,0.077-0.864-0.025-1.26c-0.301-1.177-1.36-1.925-2.478-2.269l0.435,1.074
			C168.557,15.74,169.203,16.502,169.081,17.565L169.081,17.565z M169.822,9.168l0.488,1.206c-0.009,0.108-0.013,0.215-0.014,0.322
			c0.055,0.016,0.11,0.033,0.164,0.051l0.457,1.13c-0.165-0.11-0.341-0.204-0.528-0.283c0.074,0.319,0.191,0.607,0.349,0.842
			c0.199,0.295,0.453,0.626,0.744,0.839l0.371,0.917c-0.252,0.048-0.501-0.025-0.703-0.136c-0.433-0.239-0.802-0.701-1.074-1.104
			c-0.294-0.436-0.47-0.999-0.527-1.613c-0.548-0.11-1.133-0.135-1.697-0.102c-0.752,0.043-1.162,0.456-1.351,0.998l-0.335-0.828
			c0.034-0.044,0.068-0.088,0.105-0.13c0.464-0.539,1.082-0.769,1.702-0.804c0.524-0.03,1.058-0.014,1.57,0.062
			C169.575,10.079,169.667,9.614,169.822,9.168z M168.589,17.396c-0.391-0.298-0.794-0.881-0.927-1.085
			c-0.29-0.444-0.536-0.905-0.771-1.379c0,0,0.001,0,0.001,0c0.286,0.084,0.573,0.201,0.841,0.351l-0.435-1.074l-0.055-0.016
			c-0.232-0.068-0.484-0.124-0.749-0.162c-0.061-0.212-0.099-0.437-0.116-0.659c-0.029-0.389,0-0.789,0.121-1.137l-0.335-0.828
			c-0.546,0.733-0.645,1.732-0.502,2.567c-1.016,0.005-2.101,0.288-2.922,1.042c-0.97,0.89-1.181,2.086-1.067,3.161
			c0.192,1.819,1.295,3.68,2.262,5.052l0.197,0.279l0.656-0.525l-0.197-0.28c-0.9-1.277-1.978-3.069-2.157-4.764
			c-0.084-0.796,0.022-1.74,0.752-2.41c0.731-0.67,1.785-0.841,2.701-0.774c0.015,0.037,0.032,0.073,0.048,0.108
			c0.326,0.678,0.649,1.333,1.057,1.958c0.37,0.566,1.107,1.611,1.973,1.513L168.589,17.396z"/>
	</g>
</g>
<g>
	<path fill-rule="evenodd" clip-rule="evenodd" fill="#240000" d="M58.763,78.509l-2.883,4.362l-0.326-0.468l-0.326-2.96
		l0.054-1.766l0.707-0.052l0.055,3.531l0.924-1.195l-0.435-2.284l0.544-0.104l0.327,1.714L58.22,78.3
		C58.22,78.3,58.818,78.404,58.763,78.509z"/>
	<path fill-rule="evenodd" clip-rule="evenodd" fill="#240000" d="M56.599,83.136l2.883,4.362l0.326-0.467l0.326-2.96l-0.054-1.766
		l-0.707-0.052l-0.055,3.531l-0.924-1.194l0.435-2.285l-0.544-0.104l-0.326,1.714l-0.816-0.986
		C57.143,82.929,56.544,83.032,56.599,83.136z"/>
	<path fill-rule="evenodd" clip-rule="evenodd" fill="#240000" d="M51.632,67.15l0.071,4.475l1.868,1.985l0.881,1.211l0.916,0.437
		l1.128-1.716l1.903-1.346l0.105-0.841c0,0-1.727,1.077-1.903,1.144c-0.176,0.067-0.494-1.447-0.494-1.447L55.05,71.02
		c0,0,0.528,1.009,0.528,1.547c0,0.538-0.564,1.211-0.564,1.211l-1.092-0.976l0.458-2.524L53.5,69.809l-0.106,2.254
		c0,0-0.986-1.346-0.986-1.783c0-0.437,0.141-1.11,0.141-1.279c0-0.168-0.071-1.682-0.071-1.682L51.632,67.15z"/>
	<polygon fill-rule="evenodd" clip-rule="evenodd" fill="#2D0100" points="120.449,91.57 118.887,91.72 119.287,90.777 
		120.397,87.948 120.032,87.303 118.887,89.635 118.731,87.998 118.21,86.807 118.939,85.071 117.065,85.715 115.711,86.956 
		116.596,87.601 117.794,87.353 117.846,88.99 118.106,91.57 117.221,91.521 116.596,90.578 116.908,88.792 115.711,89.188 
		115.815,91.124 116.492,92.215 116.713,93.057 115.926,93.323 116.094,97.943 118.312,97.334 119.419,93.683 119.616,93.704 	"/>
	<path fill-rule="evenodd" clip-rule="evenodd" fill="#2D0100" d="M125.975,57.085l-1.632,2.031c0,0,0.049,1.18,0.247,2.125
		c0.198,0.945-1.483,1.558-1.483,1.558l-1.88,1.842c0,0,1.286,0.378,1.534,0.756c0.247,0.378,0.148,1.747,0.148,1.747l1.088-0.283
		c0,0-0.939-1.228-0.296-2.078c0.643-0.85,1.187-1.795,1.187-1.795s0.841,0.283,1.088,1.842c0.247,1.558,0.94-0.567,0.94-0.567
		s1.286-1.464,1.534-1.936c0.247-0.472,2.225-3.306,2.225-3.825c0-0.52-0.049-2.409-0.049-2.409S125.975,56.99,125.975,57.085
		L125.975,57.085z M126.519,57.793c0,0,1.484,3.92,1.385,4.581c-0.099,0.661-2.078,1.653-2.078,1.653l0.099-2.267l-0.049-2.834
		L126.519,57.793L126.519,57.793z M128.368,56.998l1.417-0.087c0,0,0.183,0.48,0.228,0.698c0.046,0.219-0.092,1.309-0.138,1.571
		c-0.045,0.262-1.188,1.702-1.188,1.702L128.368,56.998z"/>
	<path fill-rule="evenodd" clip-rule="evenodd" fill="#2D0100" d="M123.589,79.864l-2.882,4.362l-0.327-0.468l-0.327-2.96
		l0.055-2.717l0.707-0.052l0.055,4.483l0.925-1.195l-0.435-2.284l0.543-0.104l0.327,1.713l0.816-0.986
		C123.045,79.656,123.644,79.76,123.589,79.864z"/>
	<path fill-rule="evenodd" clip-rule="evenodd" fill="#2D0100" d="M121.996,85.566l-2.882,4.362l-0.327-0.468l-0.326-2.96
		l0.054-1.766l0.707-0.052l0.055,3.531l0.925-1.194l-0.535-4.038l0.543-0.103l0.426,3.467l0.816-0.987
		C121.453,85.358,122.051,85.462,121.996,85.566z"/>
	<path fill-rule="evenodd" clip-rule="evenodd" fill="#2D0100" d="M126.283,67.79l-0.071,4.475l-1.868,1.985l-0.881,1.212
		l-0.917,0.437l-1.128-1.716l-1.903-1.346l-0.105-0.841c0,0,1.727,1.077,1.903,1.144c0.176,0.068,1.055-4.925,1.055-4.925
		l1.057-0.034c0,0-1.09,4.489-1.09,5.027c0,0.538,0.564,1.211,0.564,1.211l1.092-0.976l-0.458-2.524l0.881-0.471l0.106,2.255
		c0,0,0.987-1.346,0.987-1.783c0-0.437-0.141-1.111-0.141-1.279c0-0.168,0.071-1.682,0.071-1.682L126.283,67.79z"/>
	<polygon fill-rule="evenodd" clip-rule="evenodd" fill="#240000" points="59.249,93.199 60.811,93.348 60.811,92.405 
		59.301,89.576 59.666,88.932 60.811,91.263 60.967,89.626 61.488,88.436 60.759,86.699 62.633,87.344 63.987,88.585 63.102,89.229 
		61.904,88.981 61.852,90.619 61.592,93.199 62.477,93.149 63.102,92.206 62.789,90.42 63.987,90.817 63.883,92.753 63.206,93.844 
		62.985,94.686 63.772,94.951 63.604,99.572 61.386,98.962 60.279,95.311 60.082,95.332 	"/>
	<path fill-rule="evenodd" clip-rule="evenodd" fill="#240000" d="M47.208,56.964c0,0,0.071-2.235-0.071-3.047
		c-0.142-0.813-0.071-1.354-0.071-1.354s-0.243,0.063-0.419,0.331c-0.175,0.268-0.737,0.335-0.737,0.335s0.211-0.067,0.316-0.77
		c0.105-0.703-0.561-1.707,0.701-1.808c0,0,0.14-0.335-0.386-0.435c-0.526-0.1-0.666-0.937-0.491-1.473c0,0,0.21,0.201,0.596,0.134
		c0.386-0.067,0.771-0.1,0.842,0.201c0,0-0.105-0.837-0.737-1.004c-0.631-0.168-0.351-1.005-0.351-1.005s0.035,0.435,0.561,0.402
		c0.526-0.033,1.998,0.535,2.069,1.306l0.456-0.368c0,0,0.246,0.101,0.246,0.804c0,0.703-0.21,1.004,0.245,1.44
		c0.456,0.435,2.174,1.774,2.279,2.712c0,0-0.175-1.506,0.351-2.478c0.526-0.971,0.841-1.372,0.841-1.574s-0.403-0.83-0.442-1.66
		c-0.039-0.83-0.197-0.981-0.197-0.981s0.909-0.037,1.107,0.491c0,0-0.276-1.057,0.553-1.585c0.83-0.528,0.949-1.246,0.949-1.246
		s0.988,0.679,0.712,1.434c-0.277,0.754-0.395,0.905-0.395,0.905s0.514-0.151,1.028-0.868c0.514-0.717,1.185-1.245,2.332-1.094
		c1.147,0.151,1.225-0.264,1.225-0.264s-0.395,0.868-1.107,1.207c-0.712,0.34-0.593,1.283-0.593,1.283s0.276-0.566,1.383-0.415
		c1.107,0.151,1.778,0.566,2.174,0.151c0,0-0.238,0.717-0.988,1.132c-0.751,0.415-0.869,0.679-0.869,0.679s1.581,0.038,2.45,0.717
		c0.869,0.679,2.069,0.144,3.518-0.257c1.449-0.401,0.701,2.717,0.701,2.717l-5.374-0.133c0,0-2.57-2.271-3.645-2.183
		c-1.075,0.089-1.814,0.73-1.814,0.73s1.056,0.228,1.487,0.777c0.432,0.549,0.96,0.091,0.96,0.091s-0.144,1.372-1.583,1.463
		c-1.439,0.092-2.542-0.64-2.542-0.64s-0.624,4.207-0.096,5.441c0.528,1.235,2.159,3.749,2.159,3.749l2.255,1.738
		c0,0,1.104-3.475,0.144-4.481c-0.96-1.006-1.487-0.274-2.207-0.96c-0.719-0.686-1.775-0.96-1.775-0.96s0.29-0.786,1.773-0.188
		c1.483,0.598,2.396,0.381,2.396,0.381s1.312,0.815,1.312,2.936c0,2.12-1.996,5.49-1.996,5.49s-2.339-3.588-3.137-4.458
		c-0.798-0.869-3.08-3.751-3.536-4.458c-0.457-0.706-1.027-2.12-1.027-2.12s-0.399,0.87-0.171,1.305
		c0.228,0.435,0.228,2.066,0.228,2.066l-1.597-0.544c0,0,0.399-2.174,0.342-3.099c-0.057-0.924-1.255-0.869-1.255-0.869
		s0,2.12-0.057,3.207C48.174,57.027,47.318,56.973,47.208,56.964z"/>
	<path fill-rule="evenodd" clip-rule="evenodd" fill="#240000" d="M53.02,60.044l1.632,2.031c0,0-0.049,1.18-0.247,2.125
		c-0.198,0.945,1.484,1.559,1.484,1.559l1.88,1.842c0,0-1.286,0.378-1.534,0.756c-0.247,0.378-0.148,1.747-0.148,1.747l-1.088-0.284
		c0,0,0.94-1.227,0.297-2.078c-0.643-0.85-1.187-1.795-1.187-1.795s-0.841,0.284-1.088,1.842c-0.247,1.558-0.94-0.567-0.94-0.567
		s-1.286-1.464-1.533-1.937c-0.247-0.472-2.226-3.306-2.226-3.825c0-0.52,0.049-2.409,0.049-2.409S53.02,59.949,53.02,60.044
		L53.02,60.044z M52.476,60.752c0,0-1.484,3.92-1.385,4.581c0.099,0.661,2.077,1.653,2.077,1.653l-0.099-2.267l0.049-2.834
		L52.476,60.752L52.476,60.752z M50.627,59.956l-1.417-0.087c0,0-0.183,0.48-0.228,0.698c-0.046,0.219,0.092,1.309,0.137,1.571
		c0.046,0.262,1.188,1.702,1.188,1.702L50.627,59.956z"/>
	<path fill-rule="evenodd" clip-rule="evenodd" fill="#2D0100" d="M121.242,52.476c0,0,0.426-1.524,1.386-2.49
		c0.96-0.965,1.492-1.422,1.492-1.422s-0.266-0.102,0.053-1.067c0.32-0.965,0.16-1.473,0.16-1.473s1.44,0.356,1.173,1.168
		c0,0,0-1.067,1.067-1.422c1.066-0.356,1.333-0.965,1.333-0.965s0.426,0.813-0.054,1.677c-0.479,0.864-0.853,1.067-0.853,1.067
		s1.226-1.118,1.972-0.661c0.746,0.457,1.812,0.457,1.812,0.457s-1.066,1.473-2.346,1.168c0,0,1.173,0.305,1.333,1.016
		c0.16,0.711,0.906,1.016,0.906,1.016s-0.853,0.813-1.706,0.203c0,0,0.746,2.946,0.639,4.166c-0.106,1.22-0.992,4.184-1.114,4.651
		c-0.123,0.468-0.123,3.798-0.123,3.798l-0.858-1.928c0,0-1.656,3.973-3.31,4.849l-0.184-3.097l1.165-0.058l1.103-2.454l2.268-3.564
		l0.061-1.286l-0.736-0.876c0,0-0.306,0.643-0.92,0.818c0,0-0.184-0.35,0.123-1.46c0.306-1.11,0.367-2.22-0.307-2.746
		c-0.674-0.526-1.777,0.175-1.9,0.993c-0.122,0.818-0.367,4.207-0.367,4.207s0.122,0,0.613-0.467
		c0.49-0.467,0.429-0.993,0.429-0.993s0.736,1.577,0.061,2.22c-0.674,0.643-1.348,3.096-1.226,3.798
		c0.123,0.701-1.165-2.22-1.165-2.22l-1.348-1.519c0,0,1.9-1.344,1.838-2.279c-0.061-0.935-0.184-2.746-0.184-2.746l-1.716,2.863
		l-1.716,1.694l-1.594-0.234c0,0,1.471-1.753,1.349-2.687c-0.123-0.935-0.736-3.447-0.736-3.447s-1.471,0.818-1.655,1.636
		c-0.184,0.818-0.552,2.045-0.552,2.045s0.123-0.409,0.981-0.526c0.858-0.117,0.858-0.584,0.858-0.584s0.859,0.351-0.306,1.227
		c-1.165,0.876-2.391,1.344-2.575,1.986c-0.184,0.642-0.123,2.279-0.123,2.279s-0.736-0.409-0.736-1.87
		c0-1.46,1.104-2.454,1.226-3.681c0.123-1.227,0.613-3.096,0.307-3.564c-0.307-0.467-1.778-0.409-1.778-0.409
		s-2.145,0.643-3.065,1.928c-0.92,1.286-3.985,2.921-3.985,2.921l-0.184-2.571c0,0,0.981-1.519,2.514-2.22
		c1.533-0.701,2.943-1.636,2.943-1.636s0.245-0.292-0.429-0.467c-0.674-0.175-1.716-1.11-1.716-1.11s0.306,0.351,1.226,0.059
		s2.636-1.052,3.31,0.35c0,0,0.429-0.876,0.061-1.285c-0.367-0.409,0.184-1.286,0.184-1.286s0.367,0.818,1.287,0.993
		c0.92,0.175,0.858,1.285,0.858,1.285s0.184-0.76,0.613-1.227c0.429-0.467,0.613-1.344,0.613-1.344s1.227,0.292,0.981,1.46
		c-0.245,1.169-0.613,2.22-0.613,2.22s0.429-0.993,1.287-0.701c0,0-0.613,0.234-0.245,1.168c0.368,0.935,0.92,2.045,0.797,2.688
		C121.079,51.152,121.263,52.438,121.242,52.476z"/>
	<g>
		<g>
			<linearGradient id="SVGID_16_" gradientUnits="userSpaceOnUse" x1="89.3083" y1="116.2808" x2="89.3083" y2="47.4986">
				<stop  offset="0" style="stop-color:#E50012"/>
				<stop  offset="1" style="stop-color:#FCCF00"/>
			</linearGradient>
			<path fill-rule="evenodd" clip-rule="evenodd" fill="url(#SVGID_16_)" d="M53.949,55.894l7.405,44.294
				c0,0,15.501,7.692,28.575,7.692c13.074,0,26.149-7.365,26.149-7.365l8.588-43.551l-2.765,3.01l-1.155-2.23l-2.963,4.886
				l-2.178-2.23l-1.717,4.116l-2.658-2.124l-2.385,3.951l-2.208-2.756l-2.478,3.974l-2.006-2.911l-2.85,3.775l-2.727-3.244
				l-2.063,3.756l-2.312-3.49l-2.514,3.707l-2.735-4.105l-3.183,3.992l-1.63-4.125l-3.192,3.684l-3.261-5.012l-3.102,3.834
				l-1.929-4.498l-3.309,2.87l-1.394-4.596l-3.391,2.656l-1.312-5.71l-2.953,3.452L53.949,55.894z"/>
			<linearGradient id="SVGID_17_" gradientUnits="userSpaceOnUse" x1="90.0991" y1="114.7686" x2="90.0991" y2="50.8604">
				<stop  offset="0" style="stop-color:#BE0008"/>
				<stop  offset="1" style="stop-color:#E84729"/>
			</linearGradient>
			<path fill-rule="evenodd" clip-rule="evenodd" fill="url(#SVGID_17_)" d="M64.396,101.567c0.841,0.362,1.831,0.772,2.943,1.208
				l-4.777-38.923l-1.312-5.71l-2.953,3.452L64.396,101.567L64.396,101.567z M71.881,104.423c1.201,0.402,2.465,0.796,3.776,1.169
				l-3.073-38.171l-1.929-4.498l-3.309,2.87L71.881,104.423L71.881,104.423z M79.847,106.655c1.573,0.348,3.176,0.637,4.778,0.85
				L83.769,69.04l-1.63-4.125l-3.192,3.684L79.847,106.655L79.847,106.655z M89.051,107.866c0.293,0.007,0.589,0.014,0.88,0.014
				c0.944,0,1.884-0.04,2.824-0.111c0.387-8.483,1.759-38.833,1.759-38.833l-2.312-3.49l-2.514,3.707L89.051,107.866L89.051,107.866
				z M97.141,107.208c1.182-0.209,2.343-0.458,3.471-0.736l3.549-38.911l-2.006-2.911l-2.85,3.775L97.141,107.208L97.141,107.208z
				 M104.098,105.501l4.748-39.158l2.385-3.951l2.658,2.124l-6.415,39.841C106.415,104.745,105.285,105.133,104.098,105.501
				L104.098,105.501z M110.593,103.125c1.339-0.564,2.478-1.09,3.367-1.521l7.942-41.629l-1.155-2.23l-2.963,4.886l-6.807,39.863
				L110.593,103.125z"/>
		</g>
		<g>
			<path fill-rule="evenodd" clip-rule="evenodd" fill="#CF000E" d="M54.884,61.48l1.078,6.452c1.406,0.916,3.297,1.751,5.519,1.751
				c4.944,0,4.944-0.824,4.944-0.824s-0.412,3.296,3.845,4.944c4.257,1.648,11.535,0.412,14.144-2.884c0,0,6.729,2.472,11.535,3.158
				c4.807,0.687,13.458,0.275,14.831-6.866c0,0,5.082,2.746,7.553,1.648c2.041-0.908,3.704-1.629,4.765-3.938l0.761-3.86
				c-0.104-0.895-0.431-1.655-0.856-2.287l-1.101,1.199l-1.155-2.23l-2.963,4.886l-2.177-2.23l-1.718,4.116l-2.657-2.124
				l-2.386,3.951l-2.208-2.756l-2.478,3.973l-2.006-2.911l-2.851,3.775l-2.727-3.244l-2.063,3.755l-2.312-3.49l-2.514,3.707
				l-2.735-4.105l-3.182,3.992l-1.63-4.125l-3.191,3.684l-3.262-5.012l-3.103,3.834l-1.929-4.499l-3.309,2.87l-1.394-4.596
				l-3.391,2.656l-1.312-5.71l-2.953,3.453l-1.333-1.748c-0.627,0.696-1.113,1.047-1.113,1.047L54.884,61.48z"/>
			<path fill-rule="evenodd" clip-rule="evenodd" fill="#B50005" d="M63.273,69.641l-0.711-5.788l-1.312-5.71l-2.953,3.453
				l1.201,7.868c0.626,0.14,1.287,0.22,1.983,0.22C62.169,69.683,62.762,69.668,63.273,69.641L63.273,69.641z M68.143,72.582
				c0.531,0.45,1.225,0.872,2.126,1.221c0.859,0.332,1.838,0.55,2.881,0.654l-0.566-7.036l-1.929-4.499l-3.309,2.87L68.143,72.582
				L68.143,72.582z M79.075,73.963c1.885-0.498,3.591-1.315,4.751-2.407l-0.056-2.516l-1.63-4.125l-3.191,3.684L79.075,73.963
				L79.075,73.963z M89.63,72.619c1.483,0.434,3.117,0.863,4.663,1.173l0.22-4.856l-2.312-3.49l-2.514,3.707L89.63,72.619
				L89.63,72.619z M98.975,74.312c1.483,0.021,3.082-0.098,4.611-0.447l0.575-6.305l-2.006-2.911l-2.851,3.775L98.975,74.312
				L98.975,74.312z M108.195,71.721c1.263-1.066,2.206-2.53,2.586-4.51c0,0,1.085,0.588,2.496,1.111l0.613-3.806l-2.657-2.124
				l-2.386,3.951L108.195,71.721L108.195,71.721z M116.677,69.115c0.612,0.025,1.183-0.046,1.657-0.255
				c0.741-0.33,1.432-0.632,2.064-0.998l1.504-7.887l-1.155-2.23l-2.963,4.886L116.677,69.115z"/>
		</g>
		<g>
			<path fill-rule="evenodd" clip-rule="evenodd" fill="#FFFFFF" d="M84.15,68.794c0,0-2.455,3.04-9.536,3.184
				c-7.08,0.145-6.935-5.211-6.935-5.211s-3.612,1.591-9.969-0.724c-6.357-2.316-4.767-5.79-4.767-5.79s-4.767-3.908-2.745-8.106
				c2.022-4.198,1.445-12.593,9.102-16.79c7.657-4.198,24.561-11.581,22.25-17.66c-2.311-6.079-8.091-6.513-8.091-6.513
				s14.449-2.461,20.227,5.5c5.779,7.961,12.281,7.093,12.281,7.093s5.491,0.289,7.224,4.776c0,0,9.101,2.605,7.801,11.145
				c0,0,5.635,1.593,6.501,9.553c0.867,7.961-2.311,9.554-2.311,9.554s-0.289,6.947-4.623,7.237
				c-4.335,0.29-7.657-0.723-7.657-0.723s-3.18,7.527-11.704,7.237C92.674,72.267,84.15,68.794,84.15,68.794z"/>
			<path fill-rule="evenodd" clip-rule="evenodd" fill="#FBC800" d="M84.15,68.794c0,0-2.455,3.04-9.536,3.184
				c-7.08,0.145-6.935-5.211-6.935-5.211s-3.612,1.591-9.969-0.724c-6.357-2.316-4.767-5.79-4.767-5.79s-4.767-3.908-2.745-8.106
				c2.022-4.198,1.445-12.593,9.102-16.79c7.181-3.937,22.493-10.673,22.466-16.509c3.393,8.016-10.88,14.987-10.182,21.986
				c0.699,7,11.761,8.983,14.905,15.983c3.133,6.975-0.666,12.546-0.693,12.586C84.75,69.038,84.15,68.794,84.15,68.794z"/>
			<path fill-rule="evenodd" clip-rule="evenodd" fill="#F4A000" d="M62.638,67.221c-1.384-0.142-3.036-0.488-4.928-1.178
				c-6.357-2.316-4.767-5.79-4.767-5.79s-4.767-3.908-2.745-8.106c2.022-4.198,1.445-12.593,9.102-16.79
				c6.121-3.355,18.148-8.742,21.55-13.874c-1.011,2.413-3.069,5.754-7.099,7.766c-6.853,3.423-11.239,8.179-8.281,21.691
				C67.36,59.583,65.623,64.639,62.638,67.221z"/>
			<path fill-rule="evenodd" clip-rule="evenodd" fill="#FFFCDC" d="M61.254,67.024c-1.062-0.194-2.247-0.507-3.545-0.98
				c-0.497-0.181-0.942-0.367-1.347-0.56v-0.001c0,0,5.927-0.625,8.111-3.313c2.183-2.689-0.558-6.71-1.427-13.793
				c-0.868-7.083,2.06-10.495,2.06-10.495l-1.346,3.91l0.816,3.084c0.107,1.802-1.049-2.107,0.891,6.065
				c1.94,8.172,0.48,13.136-2.347,15.829L61.254,67.024z"/>
			<path fill-rule="evenodd" clip-rule="evenodd" fill="#FFED8D" d="M67.679,66.767c0,0-3.612,1.591-9.969-0.724
				c-0.497-0.181-0.943-0.367-1.347-0.56v-0.001c0,0,10.874,1.159,9.756-6.892c-1.118-8.051-2.46-7.603-2.683-13.306
				c-0.223-5.702,3.523-10.786,4.609-12.154l-0.002,0.004c-2.216,3.033-3.933,7.057-2.983,11.758
				C67.21,55.544,73.463,61.889,67.679,66.767z"/>
			<path fill-rule="evenodd" clip-rule="evenodd" fill="#FFFACE" d="M81.765,18.848c3.393,8.016-10.88,14.987-10.182,21.986
				c0.431,4.321,4.813,6.733,8.842,9.59c-8.086-3.415-10.294-8.066-10.214-12.08c0.08-4.015,1.204-5.62,6.825-9.474
				C82.657,25.016,81.765,18.848,81.765,18.848z"/>
			<path fill-rule="evenodd" clip-rule="evenodd" fill="#F6AE00" d="M73.469,11.184c0.439-0.073,14.527-2.335,20.216,5.501
				c5.779,7.961,12.281,7.093,12.281,7.093s5.491,0.289,7.224,4.776c0,0,9.101,2.605,7.801,11.145c0,0,5.635,1.593,6.501,9.553
				c0.867,7.961-2.311,9.554-2.311,9.554s-0.289,6.947-4.623,7.237c-4.335,0.29-7.657-0.723-7.657-0.723s2.088-8.18-9.34-9.927
				c-11.429-1.747-17.627-16.108-16.464-24.839c1.163-8.732-0.135-19.53-13.626-19.371H73.469z"/>
			<path fill-rule="evenodd" clip-rule="evenodd" fill="#FFFFFF" d="M88.741,21.969c0,0,1.944,8.138,3.026,13.285
				c1.082,5.146,5.311,12.8,11.803,14.88c6.492,2.08,9.707,2.08,12.796,3.53c3.088,1.45,5.427,2.792,6.149,6.186
				c0.722,3.395,0.848-3.98,0.848-3.98s-18.555-14.16-20.681-15.835C100.556,38.359,88.741,21.969,88.741,21.969z"/>
			<path fill-rule="evenodd" clip-rule="evenodd" fill="#FFF9BB" d="M73.469,11.184c0.439-0.073,14.527-2.335,20.216,5.501
				c5.779,7.961,12.281,7.093,12.281,7.093s5.491,0.289,7.224,4.776c0,0,9.101,2.605,7.801,11.145c0,0,5.635,1.593,6.501,9.553
				c0.867,7.961-2.311,9.554-2.311,9.554s-0.252,6.028-3.792,7.086c1.38-3.281,2.777-9.298-3.66-12.355
				c-9.125-4.335-15.273-0.303-22.79-13.672c-7.485-13.311-3.514-28.853-20.845-28.681h-0.223l-0.4-0.001H73.469z"/>
			<path fill-rule="evenodd" clip-rule="evenodd" fill="#FFE262" d="M73.469,11.184c0.439-0.073,14.527-2.335,20.216,5.501
				c5.779,7.961,12.281,7.093,12.281,7.093s5.491,0.289,7.224,4.776c0,0,9.101,2.605,7.801,11.145c0,0,5.635,1.593,6.501,9.553
				c0.867,7.961-2.311,9.554-2.311,9.554s0.319-7.201-8.873-7.602c-9.191-0.401-17.372-8.075-20.449-14.427
				c-3.077-6.352-4.401-26.805-22.388-25.594H73.469z"/>
			<path fill-rule="evenodd" clip-rule="evenodd" fill="#F7B400" d="M73.499,11.18c0.847-0.137,14.586-2.209,20.186,5.505
				c5.779,7.961,12.281,7.093,12.281,7.093s5.491,0.289,7.224,4.776c0,0,9.101,2.605,7.801,11.145c0,0,5.635,1.593,6.501,9.553
				c0.135,1.235,0.169,2.313,0.136,3.259c0.009-1.107-0.386-6.227-8.442-7.406c-9.045-1.323-17.981-3.971-20.849-9.487
				C95.471,30.107,90.581,8.503,73.499,11.18z"/>
			<path fill-rule="evenodd" clip-rule="evenodd" fill="#FFFFFF" d="M127.504,51.311c-0.396-1.936-2-5.281-8.317-6.205
				c-9.045-1.323-17.981-3.971-20.849-9.487c-1.735-3.337-4.214-12.572-9.69-18.747c0.15-0.034,0.388,0.079,0.729,0.372
				c3.139,2.705,7.637,12.482,7.637,12.482s2.745,6.97,8.675,10.096c5.93,3.126,7.754,2.075,15.174,4.008
				c7.42,1.932,6.643,7.482,6.643,7.482L127.504,51.311z"/>
			<path fill-rule="evenodd" clip-rule="evenodd" fill="#FFF8A6" d="M127.638,51.9c0,0.209-0.003,0.415-0.009,0.613
				c0.009-1.107-0.386-6.227-8.442-7.406c-9.045-1.323-17.981-3.971-20.849-9.487c-1.86-3.577-4.574-13.928-10.917-20.026
				l0.003-0.001c0,0,4.166,2.085,8.831,13.376c4.666,11.292,8.585,11.33,14.86,13.593C117.383,44.821,126.768,43.003,127.638,51.9z"
				/>
			<path fill-rule="evenodd" clip-rule="evenodd" fill="#FFE100" d="M73.471,11.184c0.467-0.077,14.531-2.327,20.214,5.501
				c5.779,7.961,12.281,7.093,12.281,7.093s5.491,0.289,7.224,4.776c0,0,9.101,2.605,7.801,11.145c0,0-12.662-1.018-20.52-7.813
				C92.617,25.092,92.117,9.371,73.471,11.184z"/>
			<path fill-rule="evenodd" clip-rule="evenodd" fill="#FFE846" d="M116.308,30.016c1.919,1.207,4.116,3.253,4.674,6.464
				c-0.904,0.157-1.622,0.266-1.86,0.311c-0.789,0.151-9.465,0.239-9.573,0.239l-0.006-0.002l-9.554-7.094l-6.175-9.179
				c0,0,6.771,6.265,9.818,8.786c3.046,2.521,4.36,2.101,7.879,3.047C115.032,33.534,116.308,30.016,116.308,30.016z"/>
			<path fill-rule="evenodd" clip-rule="evenodd" fill="#FBC800" d="M116.308,30.016c2.497,1.57,5.463,4.558,4.684,9.684
				c0,0-12.662-1.018-20.52-7.813c-2.458-2.126-4.197-5.128-5.996-8.19l-0.988-3.395c0,0,5.026,4.798,7.75,8.06
				c2.724,3.261,8.105,4.859,11.693,4.992C116.518,33.485,116.308,30.016,116.308,30.016z"/>
			<path fill-rule="evenodd" clip-rule="evenodd" fill="#FFE13F" d="M120.076,33.871c0.408,0.751,0.722,1.595,0.894,2.542
				c-1.994,0.457-4.847,0.952-7.855,0.952c-5.579,0-8.063-3.406-12.204-6.637c-4.14-3.231-7.264-10.275-7.264-10.275l0.004,0.004
				l5.387,6.691c2.005,2.489,7.101,6.22,11.725,7.685C115.385,36.298,120.076,33.871,120.076,33.871z"/>
			<path fill-rule="evenodd" clip-rule="evenodd" fill="#FFEA5E" d="M80.575,10.891c4.502,0.275,10.034,1.557,13.11,5.794
				c5.779,7.961,12.281,7.093,12.281,7.093s5.491,0.289,7.224,4.776c0,0-5.713,2.428-10.66-1.26
				C98.442,24.245,91.18,12.72,80.575,10.891z"/>
			<path fill-rule="evenodd" clip-rule="evenodd" fill="#FFFFFF" d="M110.278,25.151c0.826,0.501,1.627,1.185,2.245,2.114
				l-4.934,0.566l-6.439-2.471c0,0-4.26-4.698-2.396-2.994c1.864,1.704,4.954,2.628,6.917,3.498
				C107.634,26.733,110.277,25.151,110.278,25.151L110.278,25.151z"/>
			<path fill-rule="evenodd" clip-rule="evenodd" fill="#F29500" d="M73.471,11.184c0.171-0.028,2.162-0.344,4.898-0.354
				c8.791,0.509,13.617,7.375,15.446,9.927c2.144,2.991,4.67,8.131,12.785,12.886c8.085,4.738,13.437,0.262,13.476,0.229
				c0.83,1.529,1.278,3.45,0.916,5.828c0,0-12.662-1.018-20.52-7.813C92.617,25.092,92.117,9.371,73.471,11.184z"/>
			<path fill-rule="evenodd" clip-rule="evenodd" fill="#FFF9BB" d="M110.278,25.151c1.169,0.71,2.287,1.784,2.912,3.403
				c0,0-5.713,2.428-10.66-1.26c-2.753-2.053-6.948-7.949-12.629-12.14l0.01,0.006c3.947,2.451,9.639,7.963,9.639,7.963
				s2.529,2.278,6.056,3.338c3.526,1.059,4.67-1.31,4.67-1.31H110.278z"/>
			<path fill-rule="evenodd" clip-rule="evenodd" fill="#FBC800" d="M52.942,60.254c0,0-4.767-3.908-2.745-8.106
				c2.022-4.198,1.445-12.593,9.102-16.79c4.456-2.443,12.044-5.963,17.155-9.678c-0.576,0.576-1.427,1.204-2.605,1.896
				C60.98,35.13,57.38,45.304,59.783,52.951C62.186,60.599,52.942,60.254,52.942,60.254z"/>
			<path fill-rule="evenodd" clip-rule="evenodd" fill="#FFE046" d="M52.942,60.254c0,0-4.767-3.908-2.745-8.106
				c2.022-4.198,1.445-12.593,9.102-16.79c2.034-1.116,4.719-2.453,7.527-3.934c-2.33,1.271-9.711,5.609-11.796,10.623
				c-2.487,5.978-1.889,8.868-2.586,10.662C51.748,54.502,52.942,60.254,52.942,60.254z"/>
			<path fill-rule="evenodd" clip-rule="evenodd" fill="#EE7E00" d="M70.511,29.737c-10.147,7.256-12.909,16.275-10.728,23.215
				c2.403,7.648-6.841,7.303-6.841,7.303s6.438-2.358,3.961-9.404C54.426,43.803,61.818,33.527,70.511,29.737L70.511,29.737z"/>
			<path fill-rule="evenodd" clip-rule="evenodd" fill="#FBC800" d="M84.15,68.794c0,0-2.455,3.04-9.536,3.184
				c-7.08,0.145-6.935-5.211-6.935-5.211c5.785-4.878-0.469-11.224-2.621-21.874c-2.084-10.316,8.679-17.388,9.353-17.82
				l0.025-0.016l0.004-0.003l0.001-0.001c-14.606,12.503,0.313,23.321,6.676,27.95C87.482,59.633,84.15,68.794,84.15,68.794z"/>
			<path fill-rule="evenodd" clip-rule="evenodd" fill="#FFE26A" d="M78.323,71.589c-1.062,0.213-2.294,0.36-3.709,0.389
				c-1.317,0.028-2.383-0.137-3.247-0.421c9.723-3.739,6.483-12.991-0.536-21.041C63.283,41.86,68.98,34.15,68.98,34.15
				l-0.015,0.056c-0.287,0.752-0.485,1.494-0.599,2.223l-0.572,2.12c0,0-0.157,0.844,0.789,4.322
				C69.53,46.35,76.15,53.05,80.366,57.282c4.216,4.232,0.298,11.244,0.298,11.244L78.323,71.589z"/>
			<path fill-rule="evenodd" clip-rule="evenodd" fill="#EE7E00" d="M84.15,68.794c0,0-2.455,3.04-9.536,3.184
				c-0.251,0.006-0.491,0.001-0.726-0.006c0.116-0.044,6.844-2.653,6.467-8.596c-0.38-5.994-5.509-8.945-8.454-12.561
				c-2.945-3.615-6.947-9.52-2.922-16.665l0.019-0.032c-3.684,9.409,6.991,17.156,12.119,20.886
				C87.482,59.633,84.15,68.794,84.15,68.794z"/>
			<path fill-rule="evenodd" clip-rule="evenodd" fill="#FFFFFF" d="M73.906,71.965c0.374-0.146,6.82-2.768,6.45-8.589
				c-0.38-5.994-5.509-8.945-8.454-12.561c-2.365-2.904-5.41-7.283-4.432-12.597c-0.074,0.554-0.823,7.348,5.891,13.082
				c7.005,5.982,9.45,10.873,7.328,14.942C78.64,70.173,74.205,71.855,73.906,71.965z"/>
			<path fill-rule="evenodd" clip-rule="evenodd" fill="#FBC800" d="M81.765,18.849c-0.002-0.388-0.072-0.772-0.216-1.151
				c-2.311-6.079-8.091-6.513-8.091-6.513l0.011-0.001h0.002c13.491-0.159,14.789,10.639,13.626,19.371
				c-1.163,8.732,5.036,23.092,16.464,24.839c11.428,1.747,9.34,9.927,9.34,9.927s-3.18,7.527-11.704,7.237
				c-6.257-0.212-12.517-2.143-15.403-3.154c0.027-0.039,3.826-5.611,0.693-12.586c-3.144-7-14.207-8.983-14.905-15.983
				C70.885,33.836,85.158,26.865,81.765,18.849L81.765,18.849z"/>
			<path fill-rule="evenodd" clip-rule="evenodd" fill="#FFF8B0" d="M84.822,51.013c0.154,0.136,11.163,8.066,13.588,14.302
				c2.424,6.235-3.152,6.588-3.152,6.588s-5.254-5.131-5.254-5.779c0-0.648-2.263-9.715-2.424-10.121
				C87.418,55.598,84.668,50.876,84.822,51.013z"/>
			<path fill-rule="evenodd" clip-rule="evenodd" fill="#FFFFFF" d="M81.769,26.516c0,0-5.329,12.776-3.665,16.458
				c1.665,3.682,6.872,8.174,6.872,8.174s-6.872-3.132-8.493-7.093c-1.621-3.962-0.237-9.418-0.237-9.418L81.769,26.516z"/>
			<path fill-rule="evenodd" clip-rule="evenodd" fill="#F29600" d="M81.765,18.849c-0.001-0.196-0.018-0.39-0.055-0.584
				c0.044,0.025,3.439,1.936-2.142,13.618c-5.618,11.759,0.2,14.774,0.2,14.774s12.384,10.311,15.683,14.984
				c2.872,4.066,3.157,7.786-0.193,10.262c-4.004-0.709-7.508-1.814-9.463-2.499c0.027-0.039,3.826-5.611,0.693-12.586
				c-3.144-7-14.207-8.983-14.905-15.983C70.885,33.836,85.158,26.865,81.765,18.849L81.765,18.849z"/>
			<path fill-rule="evenodd" clip-rule="evenodd" fill="#FFF580" d="M73.871,11.184c13.116,0.058,14.377,10.725,13.226,19.37
				c-1.163,8.732,5.036,23.092,16.464,24.839c11.428,1.747,9.34,9.927,9.34,9.927s-2.729,6.45-9.899,7.176
				c8.135-8.992-8.845-13.853-16.646-21.541c-8.24-8.12-5.404-16.107-2.432-27.341C86.835,12.613,74.386,11.237,73.871,11.184z"/>
			<path fill-rule="evenodd" clip-rule="evenodd" fill="#FFF9BF" d="M73.471,11.184c13.491-0.159,14.789,10.639,13.626,19.371
				c-1.163,8.732,5.036,23.092,16.464,24.839c11.428,1.747,9.34,9.927,9.34,9.927c0.055-3.802-2.739-7.398-8.049-8.095
				c-5.309-0.697-16.628-5.122-19.929-15.734c-3.301-10.612,1.788-15.297,0.137-22.601C83.411,11.587,73.471,11.184,73.471,11.184z"
				/>
		</g>
		<g>
			<path fill-rule="evenodd" clip-rule="evenodd" fill="#F3AB8A" d="M66.885,32.557c0,0-2.856,2.861-1.099,5.392
				c1.758,2.531,10.436,1.762,12.194,0.881c0,0-0.111,2.421,5.382,3.631c5.493,1.211,10.984,0.22,13.402-1.32
				c2.417-1.541,3.735-1.871-3.075-4.402C86.878,34.208,66.885,32.557,66.885,32.557z"/>
			<path fill-rule="evenodd" clip-rule="evenodd" fill="#F08A00" d="M75.018,33.375c-1.73,2.12-3.156,4.207-3.415,6.293
				c-2.513-0.044-4.97-0.499-5.817-1.719c-1.757-2.531,1.099-5.392,1.099-5.392S70.419,32.85,75.018,33.375z"/>
			<path fill-rule="evenodd" clip-rule="evenodd" fill="#EC6F00" d="M68.568,32.709c-1.334,1.273-2.397,2.787-3.096,4.686
				c-1.044-2.376,1.413-4.838,1.413-4.838S67.507,32.61,68.568,32.709z"/>
			<path fill-rule="evenodd" clip-rule="evenodd" fill="#F3A24D" d="M65.416,37.25c1.003-1.986,2.114-3.471,2.628-4.119
				l-0.002,0.004c-0.969,1.326-1.84,2.842-2.437,4.52C65.53,37.521,65.468,37.386,65.416,37.25z"/>
			<path fill-rule="evenodd" clip-rule="evenodd" fill="#F4AA70" d="M75.017,33.373c-1.73,2.118-3.155,4.207-3.413,6.292
				c-0.451-0.008-0.898-0.028-1.337-0.065c-0.044-0.424-0.063-0.842-0.055-1.255c0.045-2.253,0.42-3.748,1.732-5.307
				C72.886,33.136,73.919,33.247,75.017,33.373z"/>
			<path fill-rule="evenodd" clip-rule="evenodd" fill="#EE7A00" d="M89.281,42.983c-1.157-2.603-1.897-5.329-2.185-7.881
				c2.64,0.489,4.985,1.04,6.593,1.637c6.81,2.531,5.492,2.862,3.075,4.402C95.237,42.114,92.485,42.865,89.281,42.983z"/>
			<path fill-rule="evenodd" clip-rule="evenodd" fill="#F3AB8A" d="M91.993,36.196c0.495,1.849,1.353,3.934,2.535,5.935
				c0.893-0.285,1.654-0.621,2.236-0.991c2.417-1.541,3.735-1.871-3.075-4.402C93.19,36.554,92.619,36.372,91.993,36.196z"/>
			<path fill-rule="evenodd" clip-rule="evenodd" fill="#F4A964" d="M95.955,41.579c-0.337-0.538-0.674-1.106-1.016-1.714
				c-0.603-1.072-1.133-2.16-1.603-3.253l0.353,0.127c6.81,2.531,5.492,2.862,3.075,4.402
				C96.524,41.294,96.252,41.439,95.955,41.579z"/>
			<path fill-rule="evenodd" clip-rule="evenodd" fill="#F39C35" d="M98.026,40.33c-0.616-0.841-1.16-1.685-1.625-2.516
				C99.164,39.024,99.104,39.571,98.026,40.33z"/>
			<path fill-rule="evenodd" clip-rule="evenodd" fill="#F08A00" d="M67.009,32.569c-0.219,0.201-0.434,0.403-0.643,0.606
				c0.288-0.386,0.519-0.618,0.519-0.618L67.009,32.569z"/>
			<path fill-rule="evenodd" clip-rule="evenodd" fill="#EA5902" d="M67.012,32.567c-0.221,0.203-0.438,0.407-0.649,0.613
				c0.291-0.392,0.522-0.623,0.522-0.623L67.012,32.567z"/>
			<path fill-rule="evenodd" clip-rule="evenodd" fill="#F08A00" d="M65.605,37.658c0.665-1.871,1.673-3.538,2.773-4.966
				l1.221,0.114c-1.196,2.267-1.534,4.446-1.279,6.506c-1.15-0.268-2.077-0.704-2.534-1.362
				C65.719,37.852,65.66,37.756,65.605,37.658z"/>
			<path fill-rule="evenodd" clip-rule="evenodd" fill="#F39C3A" d="M67.104,38.924c0.505-2.915,1.876-4.774,1.876-4.774
				l-0.015,0.056c-0.287,0.752-0.485,1.494-0.599,2.223l-0.572,2.12c0,0-0.028,0.162,0.016,0.627
				C67.56,39.103,67.323,39.019,67.104,38.924z"/>
			<path fill-rule="evenodd" clip-rule="evenodd" fill="#EA5902" d="M67.35,39.022c0.171-1.544,0.673-3.173,1.63-4.872l0.019-0.032
				c-0.703,1.797-0.88,3.535-0.675,5.195C67.976,39.233,67.65,39.136,67.35,39.022z"/>
			<path fill-rule="evenodd" clip-rule="evenodd" fill="#F3AB8A" d="M67.353,39.024c0.03-0.266,0.067-0.535,0.116-0.806
				c-0.013,0.097-0.044,0.388-0.055,0.829L67.353,39.024z"/>
			<path fill-rule="evenodd" clip-rule="evenodd" fill="#F08A00" d="M87.096,35.102c0.289,2.551,1.029,5.278,2.185,7.881
				c-1.871,0.07-3.894-0.075-5.919-0.522c-5.493-1.21-5.382-3.631-5.382-3.631c-0.911,0.457-3.676,0.88-6.377,0.834
				c0.258-2.085,1.684-4.173,3.413-6.292C78.778,33.802,83.252,34.39,87.096,35.102z"/>
			<path fill-rule="evenodd" clip-rule="evenodd" fill="#F3AB8A" d="M79.157,33.879c-0.498,1.667-0.938,3.402-1.18,4.953
				c-0.424,0.212-1.248,0.416-2.28,0.57c0-2.596,0.549-4.765,0.549-4.765l0.705-1.036C77.672,33.689,78.41,33.782,79.157,33.879z"/>
			<path fill-rule="evenodd" clip-rule="evenodd" fill="#EC6A00" d="M78.713,33.821c-0.829,2.047-1.283,3.793-1.474,5.271
				c-1.259,0.343-3.468,0.609-5.635,0.572c0.258-2.085,1.684-4.173,3.413-6.292C76.192,33.507,77.439,33.657,78.713,33.821z"/>
			<path fill-rule="evenodd" clip-rule="evenodd" fill="#F4A842" d="M87.096,35.102c0.289,2.551,1.029,5.278,2.185,7.881
				c-1.871,0.07-3.894-0.075-5.919-0.522c-0.844-0.186-1.557-0.403-2.157-0.632c-0.443-2.432-0.308-4.957,0.147-7.651
				C83.313,34.455,85.276,34.765,87.096,35.102z"/>
			<path fill-rule="evenodd" clip-rule="evenodd" fill="#F4A966" d="M87.096,35.102c0.289,2.551,1.029,5.278,2.185,7.881
				c-1.245,0.047-2.559-0.004-3.894-0.172c-0.168-0.429-0.322-0.868-0.463-1.319c-0.821-2.64-1.123-4.914-1.139-6.951
				C84.918,34.717,86.031,34.905,87.096,35.102z"/>
		</g>
		<g>
			<radialGradient id="SVGID_18_" cx="117.7892" cy="9.3773" r="26.4605" gradientUnits="userSpaceOnUse">
				<stop  offset="0" style="stop-color:#AD7D74"/>
				<stop  offset="0.39" style="stop-color:#550605"/>
				<stop  offset="1" style="stop-color:#550605"/>
			</radialGradient>
			<polygon fill-rule="evenodd" clip-rule="evenodd" fill="url(#SVGID_18_)" points="105.374,38.923 133.044,10.607 132.521,9.106 
				121.474,3.798 120.008,3.911 119.671,3.234 118.43,2.669 115.837,2.33 112.455,1.991 102.535,33.615 			"/>
			<polygon fill-rule="evenodd" clip-rule="evenodd" fill="#2C0000" points="105.029,39.29 132.699,10.974 132.177,9.473 
				104.301,37.928 104.303,37.932 			"/>
			<path fill-rule="evenodd" clip-rule="evenodd" fill="#F7B400" d="M107.22,37.838l-0.53-0.714c0,0-0.279-0.092-0.696-0.111
				c-0.418-0.019-1.051,0.336-1.275-0.04c-0.226-0.377-0.407-1.203-0.721-1.478c-0.314-0.276-1.255-1.007-1.691-1.082
				c-0.437-0.075-0.666-0.759-1.084-0.588c-0.418,0.171-0.416,0.362-0.321,0.742c0.096,0.38,0.906,1.853,1.4,2.194
				c0.261,0.181,0.949,1.211,1.829,1.984c0.776,0.682,1.769,1.132,1.86,1.091c0.197-0.087,1.65-0.458,1.669-0.686
				C107.677,38.921,107.22,37.838,107.22,37.838z"/>
			<path fill-rule="evenodd" clip-rule="evenodd" fill="#2C0000" d="M120.656,11.047l0.093,2.222
				c-1.294,1.573-2.126,1.944-2.126,1.944l1.064-2.083L120.656,11.047z"/>
			<path fill-rule="evenodd" clip-rule="evenodd" fill="#2C0000" d="M109.924,14.63l1.244,1.843c-0.276,2.018-0.79,2.77-0.79,2.77
				l-0.188-2.331L109.924,14.63z"/>
			<path fill-rule="evenodd" clip-rule="evenodd" fill="#2C0000" d="M112.98,13.613c0,0-0.092,1.42-0.046,1.832
				c0.046,0.412,0.365,1.42,0.365,1.42l0.32-1.878L112.98,13.613z"/>
			<path fill-rule="evenodd" clip-rule="evenodd" fill="#2C0000" d="M113.524,20.903c0,0-1.159,0.827-1.449,1.123
				c-0.291,0.295-0.87,1.18-0.87,1.18l1.658-0.939L113.524,20.903z"/>
			<path fill-rule="evenodd" clip-rule="evenodd" fill="#2C0000" d="M118.141,18.283c0,0-1.278,0.626-1.614,0.87
				c-0.335,0.244-1.051,1.022-1.051,1.022l1.79-0.654L118.141,18.283z"/>
			<path fill-rule="evenodd" clip-rule="evenodd" fill="#2C0000" d="M122.391,15.197c0,0-0.918,0.45-1.159,0.625
				c-0.24,0.175-0.754,0.734-0.754,0.734l1.285-0.47L122.391,15.197z"/>
			<path fill-rule="evenodd" clip-rule="evenodd" fill="#2C0000" d="M115.065,16.744c0,0-0.404,0.939-0.473,1.229
				c-0.069,0.289-0.095,1.048-0.095,1.048l0.669-1.194L115.065,16.744z"/>
			<path fill-rule="evenodd" clip-rule="evenodd" fill="#2C0000" d="M114.922,8.608c0,0-0.404,0.939-0.472,1.229
				c-0.069,0.29-0.096,1.049-0.096,1.049l0.67-1.193L114.922,8.608z"/>
			<path fill-rule="evenodd" clip-rule="evenodd" fill="#2C0000" d="M112.576,18.51c0,0-0.404,0.505-0.474,0.661
				c-0.068,0.156-0.095,0.565-0.095,0.565l0.67-0.642L112.576,18.51z"/>
			<path fill-rule="evenodd" clip-rule="evenodd" fill="#2C0000" d="M111.667,13.952c0,0-0.076,0.643-0.052,0.812
				c0.024,0.169,0.217,0.53,0.217,0.53l0.23-0.899L111.667,13.952z"/>
			<path fill-rule="evenodd" clip-rule="evenodd" fill="#2C0000" d="M113.643,16.921c0,0-0.076,0.643-0.052,0.812
				c0.024,0.169,0.218,0.53,0.218,0.53l0.229-0.899L113.643,16.921z"/>
			<path fill-rule="evenodd" clip-rule="evenodd" fill="#2C0000" d="M117.14,15.992c0,0-0.077,0.643-0.053,0.812
				c0.025,0.168,0.218,0.53,0.218,0.53l0.229-0.899L117.14,15.992z"/>
			<path fill-rule="evenodd" clip-rule="evenodd" fill="#2C0000" d="M124.063,11.129c0,0-0.076,0.643-0.052,0.812
				c0.024,0.169,0.217,0.53,0.217,0.53l0.23-0.899L124.063,11.129z"/>
			<path fill-rule="evenodd" clip-rule="evenodd" fill="#2C0000" d="M114.964,21.712c0,0-0.076,0.643-0.052,0.811
				c0.024,0.169,0.217,0.53,0.217,0.53l0.229-0.899L114.964,21.712z"/>
			<path fill-rule="evenodd" clip-rule="evenodd" fill="#2C0000" d="M108.79,24.215c0,0-0.076,0.643-0.052,0.812
				c0.024,0.168,0.217,0.53,0.217,0.53l0.23-0.899L108.79,24.215z"/>
		</g>
		<g>
			<g>
				<radialGradient id="SVGID_19_" cx="76.4915" cy="26.2937" r="12.6087" gradientUnits="userSpaceOnUse">
					<stop  offset="0" style="stop-color:#FFFFFF"/>
					<stop  offset="0.37" style="stop-color:#E50012"/>
					<stop  offset="1" style="stop-color:#B50005"/>
				</radialGradient>
				<path fill-rule="evenodd" clip-rule="evenodd" fill="url(#SVGID_19_)" d="M71.932,24.223c0,0-6.684,0.881-6.571,5.796
					c0.112,4.915,4.128,8.536,10.237,6.523c6.108-2.013,8.452-5.395,7.519-8.651c-0.932-3.256-5.119-6.15-8.152-4.909l-1.698,0.577
					L71.932,24.223z"/>
				<path fill-rule="evenodd" clip-rule="evenodd" fill="#231815" d="M73.214,25.592c0,0-0.852,0.956-2.104,0.641l0.522-0.303
					c0,0-1.165-2.951-1.124-4.814c0.041-1.863-2.239-4.056-2.239-4.056s-0.764,0.236-1.318-0.409
					c-0.554-0.645-0.103-0.93,0.645-1.266c0.747-0.336,1.776,0.921,2.862,2.781c1.085,1.859,0.485,3.54,0.843,4.854
					c0.358,1.314,0.963,2.633,0.963,2.633L73.214,25.592z"/>
			</g>
			<path fill-rule="evenodd" clip-rule="evenodd" fill="#E50012" d="M66.35,28.263c0,0-0.73,2.376,0.399,4.419
				c1.129,2.043,2.397,2.542,2.397,2.542s-2.217-2.238-2.355-3.757c-0.137-1.519-0.396-3.32,0.08-4.197l-0.279,0.456
				C66.594,27.726,66.217,28.177,66.35,28.263z"/>
			<path fill-rule="evenodd" clip-rule="evenodd" fill="#E50012" d="M82.858,28.883c0,0,0.042,2.777-2.122,4.21
				c-2.163,1.434-3.321,1.976-3.321,1.976s3.247-2.321,4.104-3.639C82.377,30.113,82.858,28.883,82.858,28.883z"/>
		</g>
		<g>
			<g>
				<radialGradient id="SVGID_20_" cx="92.7291" cy="31.2656" r="9.6037" gradientUnits="userSpaceOnUse">
					<stop  offset="0" style="stop-color:#FFFFFF"/>
					<stop  offset="0.37" style="stop-color:#E50012"/>
					<stop  offset="1" style="stop-color:#B50005"/>
				</radialGradient>
				<path fill-rule="evenodd" clip-rule="evenodd" fill="url(#SVGID_20_)" d="M89.604,26.581c0,0-6.8-3.145-9.616,1.539
					c-2.814,4.683-1.195,10.47,5.738,12.209c6.934,1.739,11.144-0.045,12.202-3.657c1.059-3.612-1.153-8.818-4.739-9.455
					l-1.937-0.467L89.604,26.581z"/>
				<path fill-rule="evenodd" clip-rule="evenodd" fill="#231815" d="M87.814,28.726c0,0,0.982,1.593,2.865,1.459l-0.674-0.57
					c0,0,2.428-3.95,2.843-6.643c0.415-2.693,4.255-5.268,4.255-5.268s1.039,0.534,2.001-0.254c0.962-0.787,0.384-1.312-0.605-1.986
					c-0.989-0.674-2.791,0.874-4.827,3.274c-2.036,2.4-1.599,4.973-2.449,6.772c-0.85,1.799-2.057,3.544-2.057,3.544L87.814,28.726z
					"/>
			</g>
			<path fill-rule="evenodd" clip-rule="evenodd" fill="#E50012" d="M81.961,27.058c0,0-2.098,1.798-2.251,4.387
				c-0.153,2.589,0.741,3.812,0.741,3.812s-0.752-3.42,0.021-4.928c0.774-1.508,1.6-3.354,2.569-3.894l-0.533,0.263
				C82.509,26.699,81.887,26.899,81.961,27.058z"/>
			<path fill-rule="evenodd" clip-rule="evenodd" fill="#E50012" d="M97.097,37.451c0,0-1.61,2.632-4.495,2.693
				c-2.884,0.061-4.294-0.117-4.294-0.117s4.429-0.251,6.017-0.98C95.914,38.319,97.097,37.451,97.097,37.451z"/>
		</g>
		<g>
			<ellipse fill-rule="evenodd" clip-rule="evenodd" fill="#EE7E00" cx="54.424" cy="50.941" rx="1.212" ry="0.547"/>
			<radialGradient id="SVGID_21_" cx="55.0334" cy="49.3848" r="1.7965" gradientUnits="userSpaceOnUse">
				<stop  offset="0" style="stop-color:#FFFFFF"/>
				<stop  offset="0.35" style="stop-color:#D9B766"/>
				<stop  offset="1" style="stop-color:#9B8346"/>
			</radialGradient>
			<circle fill-rule="evenodd" clip-rule="evenodd" fill="url(#SVGID_21_)" cx="54.892" cy="49.95" r="1.177"/>
		</g>
		<g>
			<ellipse fill-rule="evenodd" clip-rule="evenodd" fill="#EE7E00" cx="63.257" cy="45.185" rx="1.212" ry="0.547"/>
			<radialGradient id="SVGID_22_" cx="63.865" cy="43.6281" r="1.7965" gradientUnits="userSpaceOnUse">
				<stop  offset="0" style="stop-color:#FFFFFF"/>
				<stop  offset="0.35" style="stop-color:#D9B766"/>
				<stop  offset="1" style="stop-color:#9B8346"/>
			</radialGradient>
			<circle fill-rule="evenodd" clip-rule="evenodd" fill="url(#SVGID_22_)" cx="63.724" cy="44.193" r="1.177"/>
		</g>
		<g>
			<ellipse fill-rule="evenodd" clip-rule="evenodd" fill="#EE7E00" cx="66.726" cy="49.463" rx="1.536" ry="0.693"/>
			<radialGradient id="SVGID_23_" cx="67.4973" cy="47.4898" r="2.2766" gradientUnits="userSpaceOnUse">
				<stop  offset="0" style="stop-color:#FFFFFF"/>
				<stop  offset="0.35" style="stop-color:#D9B766"/>
				<stop  offset="1" style="stop-color:#9B8346"/>
			</radialGradient>
			<circle fill-rule="evenodd" clip-rule="evenodd" fill="url(#SVGID_23_)" cx="67.318" cy="48.206" r="1.491"/>
		</g>
		<g>
			<ellipse fill-rule="evenodd" clip-rule="evenodd" fill="#EE7E00" cx="81.243" cy="53.584" rx="1.536" ry="0.693"/>
			<radialGradient id="SVGID_24_" cx="82.0147" cy="51.611" r="2.2768" gradientUnits="userSpaceOnUse">
				<stop  offset="0" style="stop-color:#FFFFFF"/>
				<stop  offset="0.35" style="stop-color:#D9B766"/>
				<stop  offset="1" style="stop-color:#9B8346"/>
			</radialGradient>
			<circle fill-rule="evenodd" clip-rule="evenodd" fill="url(#SVGID_24_)" cx="81.836" cy="52.327" r="1.491"/>
		</g>
		<g>
			<ellipse fill-rule="evenodd" clip-rule="evenodd" fill="#EE7E00" cx="102.882" cy="54.323" rx="1.536" ry="0.693"/>
			<radialGradient id="SVGID_25_" cx="103.6531" cy="52.3504" r="2.2767" gradientUnits="userSpaceOnUse">
				<stop  offset="0" style="stop-color:#FFFFFF"/>
				<stop  offset="0.35" style="stop-color:#D9B766"/>
				<stop  offset="1" style="stop-color:#9B8346"/>
			</radialGradient>
			<circle fill-rule="evenodd" clip-rule="evenodd" fill="url(#SVGID_25_)" cx="103.474" cy="53.066" r="1.491"/>
		</g>
		<g>
			<ellipse fill-rule="evenodd" clip-rule="evenodd" fill="#EE7E00" cx="105.34" cy="47.015" rx="1.536" ry="0.693"/>
			<radialGradient id="SVGID_26_" cx="106.1114" cy="45.0421" r="2.2767" gradientUnits="userSpaceOnUse">
				<stop  offset="0" style="stop-color:#FFFFFF"/>
				<stop  offset="0.35" style="stop-color:#D9B766"/>
				<stop  offset="1" style="stop-color:#9B8346"/>
			</radialGradient>
			<circle fill-rule="evenodd" clip-rule="evenodd" fill="url(#SVGID_26_)" cx="105.932" cy="45.758" r="1.491"/>
		</g>
		<g>
			<ellipse fill-rule="evenodd" clip-rule="evenodd" fill="#EE7E00" cx="113.291" cy="47.097" rx="1.536" ry="0.693"/>
			<radialGradient id="SVGID_27_" cx="114.0622" cy="45.1239" r="2.2766" gradientUnits="userSpaceOnUse">
				<stop  offset="0" style="stop-color:#FFFFFF"/>
				<stop  offset="0.35" style="stop-color:#D9B766"/>
				<stop  offset="1" style="stop-color:#9B8346"/>
			</radialGradient>
			<circle fill-rule="evenodd" clip-rule="evenodd" fill="url(#SVGID_27_)" cx="113.883" cy="45.839" r="1.491"/>
		</g>
		<g>
			<ellipse fill-rule="evenodd" clip-rule="evenodd" fill="#EE7E00" cx="108.77" cy="50.235" rx="0.95" ry="0.429"/>
			<radialGradient id="SVGID_28_" cx="109.2474" cy="49.015" r="1.4078" gradientUnits="userSpaceOnUse">
				<stop  offset="0" style="stop-color:#FFFFFF"/>
				<stop  offset="0.35" style="stop-color:#D9B766"/>
				<stop  offset="1" style="stop-color:#9B8346"/>
			</radialGradient>
			<circle fill-rule="evenodd" clip-rule="evenodd" fill="url(#SVGID_28_)" cx="109.137" cy="49.458" r="0.922"/>
		</g>
		<g>
			<ellipse fill-rule="evenodd" clip-rule="evenodd" fill="#EE7E00" cx="113.278" cy="40.299" rx="0.95" ry="0.429"/>
			<radialGradient id="SVGID_29_" cx="113.7552" cy="39.0789" r="1.4078" gradientUnits="userSpaceOnUse">
				<stop  offset="0" style="stop-color:#FFFFFF"/>
				<stop  offset="0.35" style="stop-color:#D9B766"/>
				<stop  offset="1" style="stop-color:#9B8346"/>
			</radialGradient>
			<circle fill-rule="evenodd" clip-rule="evenodd" fill="url(#SVGID_29_)" cx="113.645" cy="39.522" r="0.922"/>
		</g>
		<g>
			<ellipse fill-rule="evenodd" clip-rule="evenodd" fill="#EE7E00" cx="110.409" cy="35.289" rx="0.949" ry="0.429"/>
			<radialGradient id="SVGID_30_" cx="110.8862" cy="34.0691" r="1.4077" gradientUnits="userSpaceOnUse">
				<stop  offset="0" style="stop-color:#FFFFFF"/>
				<stop  offset="0.35" style="stop-color:#D9B766"/>
				<stop  offset="1" style="stop-color:#9B8346"/>
			</radialGradient>
			<circle fill-rule="evenodd" clip-rule="evenodd" fill="url(#SVGID_30_)" cx="110.776" cy="34.512" r="0.922"/>
		</g>
		<g>
			<ellipse fill-rule="evenodd" clip-rule="evenodd" fill="#EE7E00" cx="108.606" cy="39.806" rx="0.95" ry="0.429"/>
			<radialGradient id="SVGID_31_" cx="109.0827" cy="38.5859" r="1.4077" gradientUnits="userSpaceOnUse">
				<stop  offset="0" style="stop-color:#FFFFFF"/>
				<stop  offset="0.35" style="stop-color:#D9B766"/>
				<stop  offset="1" style="stop-color:#9B8346"/>
			</radialGradient>
			<circle fill-rule="evenodd" clip-rule="evenodd" fill="url(#SVGID_31_)" cx="108.972" cy="39.028" r="0.922"/>
		</g>
		<g>
			<ellipse fill-rule="evenodd" clip-rule="evenodd" fill="#EE7E00" cx="88.688" cy="46.622" rx="0.949" ry="0.429"/>
			<radialGradient id="SVGID_32_" cx="89.1656" cy="45.4018" r="1.4078" gradientUnits="userSpaceOnUse">
				<stop  offset="0" style="stop-color:#FFFFFF"/>
				<stop  offset="0.35" style="stop-color:#D9B766"/>
				<stop  offset="1" style="stop-color:#9B8346"/>
			</radialGradient>
			<circle fill-rule="evenodd" clip-rule="evenodd" fill="url(#SVGID_32_)" cx="89.054" cy="45.844" r="0.922"/>
		</g>
		<g>
			<ellipse fill-rule="evenodd" clip-rule="evenodd" fill="#EE7E00" cx="92.472" cy="49.807" rx="1.535" ry="0.693"/>
			<radialGradient id="SVGID_33_" cx="93.2423" cy="47.8343" r="2.2766" gradientUnits="userSpaceOnUse">
				<stop  offset="0" style="stop-color:#FFFFFF"/>
				<stop  offset="0.35" style="stop-color:#D9B766"/>
				<stop  offset="1" style="stop-color:#9B8346"/>
			</radialGradient>
			<circle fill-rule="evenodd" clip-rule="evenodd" fill="url(#SVGID_33_)" cx="93.064" cy="48.55" r="1.491"/>
		</g>
		<g>
			<ellipse fill-rule="evenodd" clip-rule="evenodd" fill="#EE7E00" cx="75.258" cy="47.59" rx="1.536" ry="0.693"/>
			<radialGradient id="SVGID_34_" cx="76.0294" cy="45.6168" r="2.2768" gradientUnits="userSpaceOnUse">
				<stop  offset="0" style="stop-color:#FFFFFF"/>
				<stop  offset="0.35" style="stop-color:#D9B766"/>
				<stop  offset="1" style="stop-color:#9B8346"/>
			</radialGradient>
			<circle fill-rule="evenodd" clip-rule="evenodd" fill="url(#SVGID_34_)" cx="75.85" cy="46.333" r="1.491"/>
		</g>
		<g>
			<ellipse fill-rule="evenodd" clip-rule="evenodd" fill="#EE7E00" cx="76.803" cy="50.07" rx="0.95" ry="0.429"/>
			<radialGradient id="SVGID_35_" cx="77.2803" cy="48.8501" r="1.4077" gradientUnits="userSpaceOnUse">
				<stop  offset="0" style="stop-color:#FFFFFF"/>
				<stop  offset="0.35" style="stop-color:#D9B766"/>
				<stop  offset="1" style="stop-color:#9B8346"/>
			</radialGradient>
			<circle fill-rule="evenodd" clip-rule="evenodd" fill="url(#SVGID_35_)" cx="77.17" cy="49.293" r="0.922"/>
		</g>
		<g>
			<ellipse fill-rule="evenodd" clip-rule="evenodd" fill="#EE7E00" cx="68.77" cy="54.422" rx="0.95" ry="0.429"/>
			<radialGradient id="SVGID_36_" cx="69.2471" cy="53.2026" r="1.4079" gradientUnits="userSpaceOnUse">
				<stop  offset="0" style="stop-color:#FFFFFF"/>
				<stop  offset="0.35" style="stop-color:#D9B766"/>
				<stop  offset="1" style="stop-color:#9B8346"/>
			</radialGradient>
			<circle fill-rule="evenodd" clip-rule="evenodd" fill="url(#SVGID_36_)" cx="69.137" cy="53.645" r="0.922"/>
		</g>
		<g>
			<ellipse fill-rule="evenodd" clip-rule="evenodd" fill="#EE7E00" cx="63.686" cy="38.394" rx="0.619" ry="0.28"/>
			<radialGradient id="SVGID_37_" cx="63.9973" cy="37.5982" r="0.9182" gradientUnits="userSpaceOnUse">
				<stop  offset="0" style="stop-color:#FFFFFF"/>
				<stop  offset="0.35" style="stop-color:#D9B766"/>
				<stop  offset="1" style="stop-color:#9B8346"/>
			</radialGradient>
			<circle fill-rule="evenodd" clip-rule="evenodd" fill="url(#SVGID_37_)" cx="63.925" cy="37.887" r="0.601"/>
		</g>
		<g>
			<ellipse fill-rule="evenodd" clip-rule="evenodd" fill="#EE7E00" cx="58.44" cy="39.051" rx="0.619" ry="0.28"/>
			<radialGradient id="SVGID_38_" cx="58.7512" cy="38.2556" r="0.9182" gradientUnits="userSpaceOnUse">
				<stop  offset="0" style="stop-color:#FFFFFF"/>
				<stop  offset="0.35" style="stop-color:#D9B766"/>
				<stop  offset="1" style="stop-color:#9B8346"/>
			</radialGradient>
			<circle fill-rule="evenodd" clip-rule="evenodd" fill="url(#SVGID_38_)" cx="58.679" cy="38.544" r="0.601"/>
		</g>
		<g>
			<ellipse fill-rule="evenodd" clip-rule="evenodd" fill="#EE7E00" cx="57.784" cy="41.186" rx="0.619" ry="0.28"/>
			<radialGradient id="SVGID_39_" cx="58.0952" cy="40.3904" r="0.9183" gradientUnits="userSpaceOnUse">
				<stop  offset="0" style="stop-color:#FFFFFF"/>
				<stop  offset="0.35" style="stop-color:#D9B766"/>
				<stop  offset="1" style="stop-color:#9B8346"/>
			</radialGradient>
			<circle fill-rule="evenodd" clip-rule="evenodd" fill="url(#SVGID_39_)" cx="58.023" cy="40.679" r="0.601"/>
		</g>
		<g>
			<ellipse fill-rule="evenodd" clip-rule="evenodd" fill="#EE7E00" cx="65.243" cy="42.008" rx="0.619" ry="0.28"/>
			<radialGradient id="SVGID_40_" cx="65.5544" cy="41.2122" r="0.9184" gradientUnits="userSpaceOnUse">
				<stop  offset="0" style="stop-color:#FFFFFF"/>
				<stop  offset="0.35" style="stop-color:#D9B766"/>
				<stop  offset="1" style="stop-color:#9B8346"/>
			</radialGradient>
			<circle fill-rule="evenodd" clip-rule="evenodd" fill="url(#SVGID_40_)" cx="65.482" cy="41.501" r="0.601"/>
		</g>
		<g>
			<ellipse fill-rule="evenodd" clip-rule="evenodd" fill="#EE7E00" cx="95.558" cy="56.425" rx="1.536" ry="0.693"/>
			<radialGradient id="SVGID_41_" cx="96.3299" cy="54.4522" r="2.2767" gradientUnits="userSpaceOnUse">
				<stop  offset="0" style="stop-color:#FFFFFF"/>
				<stop  offset="0.35" style="stop-color:#D9B766"/>
				<stop  offset="1" style="stop-color:#9B8346"/>
			</radialGradient>
			<circle fill-rule="evenodd" clip-rule="evenodd" fill="url(#SVGID_41_)" cx="96.151" cy="55.168" r="1.491"/>
		</g>
		<g>
			<ellipse fill-rule="evenodd" clip-rule="evenodd" fill="#EE7E00" cx="117.066" cy="48.254" rx="0.95" ry="0.429"/>
			<radialGradient id="SVGID_42_" cx="117.5434" cy="47.0339" r="1.4078" gradientUnits="userSpaceOnUse">
				<stop  offset="0" style="stop-color:#FFFFFF"/>
				<stop  offset="0.35" style="stop-color:#D9B766"/>
				<stop  offset="1" style="stop-color:#9B8346"/>
			</radialGradient>
			<circle fill-rule="evenodd" clip-rule="evenodd" fill="url(#SVGID_42_)" cx="117.433" cy="47.477" r="0.922"/>
		</g>
		<g>
			<ellipse fill-rule="evenodd" clip-rule="evenodd" fill="#EE7E00" cx="110.876" cy="42.806" rx="0.949" ry="0.429"/>
			<radialGradient id="SVGID_43_" cx="111.3526" cy="41.5859" r="1.4079" gradientUnits="userSpaceOnUse">
				<stop  offset="0" style="stop-color:#FFFFFF"/>
				<stop  offset="0.35" style="stop-color:#D9B766"/>
				<stop  offset="1" style="stop-color:#9B8346"/>
			</radialGradient>
			<circle fill-rule="evenodd" clip-rule="evenodd" fill="url(#SVGID_43_)" cx="111.242" cy="42.029" r="0.922"/>
		</g>
		<g>
			<ellipse fill-rule="evenodd" clip-rule="evenodd" fill="#EE7E00" cx="100.103" cy="42.93" rx="0.949" ry="0.429"/>
			<radialGradient id="SVGID_44_" cx="100.5802" cy="41.7099" r="1.4077" gradientUnits="userSpaceOnUse">
				<stop  offset="0" style="stop-color:#FFFFFF"/>
				<stop  offset="0.35" style="stop-color:#D9B766"/>
				<stop  offset="1" style="stop-color:#9B8346"/>
			</radialGradient>
			<circle fill-rule="evenodd" clip-rule="evenodd" fill="url(#SVGID_44_)" cx="100.469" cy="42.152" r="0.922"/>
		</g>
	</g>
	<linearGradient id="SVGID_45_" gradientUnits="userSpaceOnUse" x1="78.3308" y1="80.4332" x2="99.6916" y2="57.5265">
		<stop  offset="0" style="stop-color:#3E0E00"/>
		<stop  offset="0.4" style="stop-color:#4A1A05"/>
		<stop  offset="1" style="stop-color:#773B24"/>
	</linearGradient>
	<path fill-rule="evenodd" clip-rule="evenodd" fill="url(#SVGID_45_)" d="M117.558,101.641c0,0-10.876,6.625-28.254,6.091
		c-17.379-0.534-27.133-5.236-27.133-5.236L50.202,69.324L45.485,55.37c0,0-0.835-2.687-0.368-2.508
		c0.467,0.178,1.869,3.652,1.869,3.652s0.182-1.418,1.161-1.745c0.979-0.327,0.636-1.215,0.636-1.215s1.614,1.402,0.294,2.71
		c0,0,1.028-0.561,1.81,0.047c0.782,0.607,1.468-0.374,1.468-0.374s0.734,1.448-0.734,1.728c0,0,1.321,0,1.712,1.028
		c0.392,1.028,1.339,0.487,1.339,0.487l-1.107,0.815c0,0,1.659,1.965,2.313,2.827c0.654,0.863,1.509,1.965,1.509,1.965
		s0-1.294,0.905-2.396c0.905-1.102,1.037-1.068,1.037-1.299c0,0-0.758,0.066-1.035-0.428c-0.276-0.494-0.896-0.659-0.896-0.659
		s0.758-1.514,2-1.053c1.241,0.461,2.138,0.329,2.138,0.329s-0.103-0.428-0.897-0.494c-0.793-0.066-0.862-1.383-0.862-1.383
		s0.483,0.362,1.311,0.132c0.828-0.231,2.414,0.494,2.448,1.317c0,0,0.31-0.231,0.276-0.593c-0.035-0.362-0.449-0.856-0.035-1.284
		c0,0,0.103,0.428,0.621,0.494c0.518,0.066,2,0.922,2.035,2.535c0,0,0-0.955,0.379-1.284c0.379-0.329,0.069-0.56,0.069-0.56
		s1,0.099,1.069,1.251c0.069,1.152,0.483,2.766,0.483,2.766s2.29,1.199,3.308,3.002c1.019,1.803,1.746,3.421,1.746,3.421
		s-0.194-4.161,2.717-5.871c0,0-0.526-0.915-0.071-1.567c0.455-0.652,0.41-1.131,0.41-1.131s1.412-0.043,1.366,0.913
		c0,0-0.41-2,1.503-2.479c1.913-0.479,2.004-1.348,2.004-1.348s0.547,0.957,0,2.001c-0.547,1.044,0,1.261,0,1.261
		s0.046-1.131,1.503-1.305c1.458-0.174,2.687,0.174,3.325-0.478c0,0,0.137,0.74-0.365,1.348c-0.501,0.609-1.002,1.044-1.002,1.044
		s1.685-0.696,3.006-0.087c1.321,0.609,2.687,0.304,2.687,0.304s-0.62,1.438-1.107,1.567c-0.487,0.129-1.216,0.173-1.216,0.173
		s1.366,0.739,1.958,1.304c0.593,0.566,2.324,1.74,2.779,3.001c0,0,1.913-2.479,3.097-3.305c1.184-0.826,2.095-1.392,2.095-1.392
		s0.076-0.705-0.816-0.671c-0.893,0.034-1.143-0.034-1.5-0.545c0,0,0.893-0.034,1.465-0.613c0.571-0.579,2.965-0.885,3.714-0.034
		c0,0,0-0.749-0.749-0.919c-0.75-0.17-0.858-1.43-0.858-1.43s0.929,0.17,1.5-0.068c0.572-0.238,3.179,0.443,3.429,1.566
		c0,0,0.5-0.851,0.215-1.225c-0.286-0.374-0.108-1.6-0.108-1.6s0.429,0.443,1.214,0.545c0.786,0.102,1.393,0.45,1.667,1.456
		c0.273,1.006,0.273,1.304,0.273,1.304s0.273-0.857,0.702-1.043c0.429-0.186,0.391-0.82,0.391-0.82s0.858,0.596,0.663,1.639
		s-0.468,1.527-0.468,1.527s1.404,0.596,1.95,1.788c0.546,1.192,0.468,3.017,0.468,3.017s0.897-2.197,1.716-3.427
		c0.819-1.229,2.442-2.462,2.442-2.462s0.095-0.769,0.332-1.583c0.237-0.814,0.19-1.854,0.19-1.854s1.613,0.136,1.613,1.402
		c0,0,0.142-1.809,1.518-2.306c1.376-0.497,1.187-1.221,1.187-1.221s0.664,1.085,0.284,1.854c0,0,0.806-1.04,1.756-0.859
		c0.949,0.18,1.328-0.271,1.328-0.271s-0.095,1.582-1.044,2.08c0,0,0.664,0.136,1.518,0.633c0.853,0.497,1.233-0.181,1.233-0.181
		s-0.047,1.266-1.043,1.402c0,0,0.663,1.176,0.616,1.809c-0.047,0.633-0.142,0.949-0.142,0.949s0.047-1.04,0.949-1.989
		c0.901-0.95,2.135-3.21,2.135-3.21l-0.806,0.226c0,0,0.712-0.046,0.949-0.95c0.237-0.904,1.328-1.538,1.328-1.538l-0.712-0.18
		c0,0,0.284-0.136,0.759-1.085c0.474-0.949,1.708-1.085,1.803-0.271c0,0-0.047-0.633,0.427-1.085
		c0.474-0.452,0.996-0.995,0.996-0.995s-0.426,0.678-0.047,1.266c0.38,0.588,0.143,1.04-0.189,2.125
		c-0.332,1.085-4.081,11.937-4.081,11.937l-7.264,23.3L117.558,101.641L117.558,101.641z M91.017,69.11
		c0.203-2.645-2.505-4.129-2.505-4.129s1.354,1.936,0.136,3.162c-1.219,1.226-1.489,1.355-1.354,2c0,0-1.422-0.904-1.286-2.516
		c0.135-1.613-0.61-3.355-2.302-3.807c-1.692-0.452-2.099,0.064-2.099,0.064s-1.354,3.871-0.609,5.678
		c0.745,1.806,2.166,1.548,2.166,1.548s-0.812-0.452-0.203-1.548c0.609-1.097-0.068-1.549-0.068-1.549s1.76,0.903,1.76,2.71
		s2.167,3.226,3.588,2.839C89.663,73.175,91.085,73.11,91.017,69.11L91.017,69.11z M89.393,74.788c0,0-1.422,1.097-3.182,1.032
		c-1.76-0.064-2.844,0.645-2.844,0.645s0-0.968,0.745-1.161c0,0-0.609-0.774-1.692-0.774c-1.083,0-2.166,0.193-3.249-0.968
		l1.693-0.581c0,0-0.406,0.517-1.693-0.968c-1.287-1.484-1.219-2.129-2.302-2.065c0,0,0.474-0.71,1.219-0.774
		c0.745-0.065,1.219,0.064,1.219,0.064s-0.677-2-0.88-2.838c-0.203-0.839-0.948-1.549-0.948-1.549s-3.249,3.355-1.354,7.162
		c1.896,3.806,8.056,8.388,8.056,8.388S87.091,78.53,89.393,74.788L89.393,74.788z M97.28,64.921c0,0-1.388,0.854-1.836,1.921
		c-0.448,1.067-0.359,2.432-0.269,4.054c0.09,1.622,3,2.219,4.03,1.963c1.029-0.255,2.418-2.944,2.91-4.14
		c0.493-1.195,1.702-1.664,1.702-1.664s-0.493,0.597-0.224,1.237c0.269,0.64-0.314,1.195-0.314,1.195s0.896-0.597,1.388-1.28
		c0.493-0.683,0.583-4.311-0.314-5.164c-0.895-0.854-2.686-0.043-3.492,0.896c-0.806,0.939-0.761,2.475-0.403,3.627
		c0.358,1.152-0.761,1.366-0.761,1.366s-0.045-1.152-1.567-1.494C96.608,67.097,97.28,64.921,97.28,64.921L97.28,64.921z
		 M106.414,67.439c0,0,0.089-0.555,0.85-0.555c0.761,0,0.985,0.256,1.299,0c0,0,0.358,0.384-0.538,1.195
		c-0.896,0.811-2.193,2.219-2.193,2.219s0.223,0.171,1.075,0c0.85-0.171,0.85-0.384,0.85-0.384s0.806,0.896-1.433,1.878
		c-2.239,0.981-3.985,1.366-3.985,1.366s0.806-0.213,1.299,0.384c0,0-0.582-0.128-0.985,0.384c-0.403,0.512-1.567,0.853-3.269,0.725
		c-1.702-0.128-2.821-0.426-2.821-0.426s1.747,3.969,4.746,5.163c0,0,4.702-4.438,6.045-6.572c1.343-2.134,2.463-5.164,2.149-6.572
		c-0.313-1.408-1.388-2.56-1.388-2.56s-1.119,1.536-1.522,2.262C106.19,66.67,106.414,67.439,106.414,67.439L106.414,67.439z
		 M118.845,60.644c0,0-1.003,1.559-1.531,3.369c-0.527,1.811,0.37,3.42,0.37,3.42s0.527-0.704,0.95-1.157
		c0.422-0.452,0.581-0.503,0.581-0.503c0.316,0.704-0.475,1.559-0.264,2.867c0.211,1.307,0.949,1.157,0.949,1.157
		s2.006-1.257,2.692-2.817c0.686-1.559,0.633-4.225,0.633-4.225c0,0.855-1.003,1.257-2.005,1.509
		c-1.003,0.251-0.897,1.056-0.897,1.056c-0.528-0.805,0.844-2.867,0.633-3.923C120.744,60.342,118.845,60.644,118.845,60.644
		L118.845,60.644z M115.837,62.052c-1.161,1.157-2.902,3.068-3.061,6.589c-0.159,3.52,3.112,8.699,3.112,8.699
		c1.991-1.898,2.962-3.702,4.171-6.185c-0.897,0.754-1.794,1.208-2.533,1.208c-0.738,0-1.003,0.653-1.003,0.653l0.264-0.855
		c0.58-0.352,0.422-1.157,0.422-1.157c-1.108,0.402-1.583,0.1-1.953-0.554c-0.37-0.653-1.213-0.301-1.213-0.301
		s0.422-0.855,0.792-0.754c0.369,0.1,0.897-0.654,0.897-0.654s-0.211-1.509-1.109-1.861c-0.897-0.353-0.58-0.855-0.58-0.855
		s0.158,0.302,1.055,0.1c0.898-0.201,0.845-0.201,0.845-0.201L115.837,62.052L115.837,62.052z M127.362,64.894
		c0,0,0.423-0.75,0-1.212c-0.423-0.462-0.363-1.183-0.363-1.183s0.484,0.49,0.756,0.202c0.271-0.288,1.827-1.26,1.966-2.521
		c0.139-1.261,0.487-3.651-0.209-2.921c-0.695,0.73-1.87,1.826-1.459,2.788c0.411,0.961,0.411,0.961,0.411,0.961l-1.315-0.231
		c0,0-0.486,1.46-1.32,2.456c-0.834,0.996-1.299,1.654-0.946,2.809c0.354,1.154,0.656,1.875,0.757,1.587
		c0.101-0.288,0.757-1.01,1.06-1.683C127.001,65.273,127.362,64.894,127.362,64.894L127.362,64.894z M68.08,64.504
		c0.716,2.887,0.22,4.567,0.22,4.567s0.606-0.473,1.597-0.525c0.991-0.052,1.322,0.735,1.322,0.735s-0.495-0.052-1.157,0.84
		c-0.661,0.893-1.597,1.312-1.597,1.312s0.22,0.525,1.101,0.63c0.881,0.105,0.881,0.787,0.881,0.787s-0.331-0.105-1.707,0.525
		c-1.377,0.629-2.424,0.105-2.424,0.105c1.487,0.735,0.937,1.627,0.937,1.627c-0.22-0.473-1.432-0.63-2.589-0.525
		c-1.157,0.105-1.542-0.472-1.542-0.472c1.322,1.995,4.682,4.829,4.682,4.829s4.241-5.249,4.461-8.504
		C72.487,67.182,68.08,64.504,68.08,64.504L68.08,64.504z M64.775,63.087c-1.707-0.105-2.534,1.312-2.093,2.835
		c0.441,1.522-0.661,2.415-0.661,2.415s-0.11-1.312-1.377-2.415c-1.267-1.102-0.661-2.047-0.661-2.047
		c-0.771,1.05-0.606,3.57,0.11,5.25c0.716,1.68,3.36,3.412,4.241,2.834c0.881-0.577,0.826-1.837,0.386-2.782
		c-0.441-0.945,0.386-1.785,0.386-1.785s-0.055,0.525,0.551,1.26c0.606,0.736,0.551,1.103,0.551,1.103s0.771-1.365,0.826-2.94
		C67.088,65.239,64.775,63.087,64.775,63.087L64.775,63.087z M56.914,67.368c0-1.875-1.48-3.957-3.215-5.138
		c0,0,0.55,0.991-0.061,1.165c-0.611,0.175-1.039,0.99-1.039,0.99c-0.328-1.104,0-1.573-0.122-2.505
		c-0.123-0.932-1.712-1.69-2.751-1.456c-1.039,0.233-0.306,1.806,0.55,2.796c0.856,0.991,1.711,2.738,1.711,2.738
		s0.795-0.641,1.65-0.524c0.856,0.116,1.039,0.582,1.039,0.582c-1.284,0.175-0.734,0.583-0.978,1.34
		c-0.244,0.757,0.917,1.398,2.261,1.864C57.305,69.687,56.914,69.243,56.914,67.368L56.914,67.368z M57.622,70.96
		c0,0-0.457,0.742-1.463,0.523c-1.006-0.218-1.463,0.567-1.463,0.567s-0.457-0.348-0.046-0.742l0.457-0.436
		c0,0-0.686,0.48-1.463-0.218c-0.777-0.698-1.006-1.789-1.371-1.091c0,0-0.686-0.437-0.32-0.786c0.366-0.349,0.594-0.48,0.594-0.48
		s-0.823-1.135-1.28-0.655l-0.228-0.698l-0.731,1.222c0,0,2.012,3.71,3.2,5.151c1.188,1.44,2.651,2.052,2.651,2.052
		S57.53,73.797,57.622,70.96L57.622,70.96z M73.916,72.081c-0.608,3.533-4.983,8.282-4.983,8.282l4.132,3.359
		c0,0,0.182-0.231,0.243-1.1c0.061-0.869-0.486-1.506-0.486-1.506c0.608,0.057,0.729,0.347,0.729,0.347
		c0-0.637-0.729-0.753-0.912-2.027c-0.182-1.274,0.85-2.027,0.85-2.027s-0.243,0.984,0.73,1.506
		c0.972,0.521,1.215,1.622,1.215,1.622s0.122-1.39,1.094-1.795c0.972-0.405,0.547-1.332,0.547-1.332s2.066,1.39,0.912,2.896
		s-0.122,2.028-0.122,2.028s-0.061-0.522,0.79-1.043c0,0-0.425,1.91,0.486,2.896c0,0,3.298-2.094,4.072-3.012
		c0,0-4.618-3.59-6.138-5.27C75.557,74.224,73.916,72.081,73.916,72.081L73.916,72.081z M76.36,85.69
		c0.072-0.172,1.726-1.236,1.726-1.236s-2.121-1.717-2.445-2.54c0,0-0.504,1.579-1.187,2.265l1.223,1.03L76.36,85.69L76.36,85.69z
		 M92.99,73.439c-3.146,4.1-7.74,7.724-7.74,7.724l4.294,2.955c0,0,0.849-1.382,0.849-1.907c0-0.525-0.399-1.048-0.399-1.048
		c0.599,0.095,0.899,0.381,0.899,0.381c0.05-0.429-0.749-0.906-0.949-1.716c-0.2-0.81,0.649-1.86,0.649-1.86s0,0.763,1.149,1.288
		c1.149,0.524,1.248,1.668,1.248,1.668s0.299-1.478,1.498-1.811c1.197-0.334,0.848-1.287,0.848-1.287s1.198,1.621,0.3,2.717
		c-0.899,1.096-0.349,1.859-0.349,1.859s0-0.62,0.449-0.906c0,0-0.25,1.43,0.1,1.907c0.349,0.477,0.549,0.525,0.549,0.525
		l4.194-3.67C100.578,80.257,94.787,76.872,92.99,73.439L92.99,73.439z M92.889,82.355c-1.048,1.24-2.496,2.097-2.496,2.097
		l2.496,1.287l2.297-1.334C93.888,83.689,92.889,82.355,92.889,82.355L92.889,82.355z M110.761,69.853
		c0-0.079-1.987,2.643-2.733,3.709c-0.745,1.065-5.755,6.668-5.755,6.668l3.56,2.169c0,0,0.911-1.104,0.994-1.854
		c0.083-0.749-0.497-1.301-0.497-1.301c0.621,0.118,0.704,0.473,0.704,0.473s0.082-0.907-0.373-1.775
		c-0.455-0.868,0.414-1.618,0.414-1.618s0.29,0.671,1.077,0.947c0.786,0.276,1.035,1.42,1.035,1.42s0.497-1.499,1.408-1.657
		c0.91-0.158,1.117-1.105,1.117-1.105s0.621,1.578-0.331,2.802c0,0,0.455-0.197,0.869,0.079c0,0-0.911,0.394-1.283,1.144
		c-0.372,0.749,0.041,1.775,0.041,1.775l4.015-3.669c0,0-2.359-2.605-3.229-5.051C110.927,70.563,110.761,69.853,110.761,69.853
		L110.761,69.853z M108.939,79.954c-0.538,1.618-2.319,2.841-2.319,2.841l1.905,1.381l1.615-1.697
		C109.063,81.414,108.939,79.954,108.939,79.954L108.939,79.954z M122.989,69.145c0,0-1.278,1.716-2.648,3.522
		c-1.371,1.806-3.973,5.373-3.973,5.373l1.797,1.761c0,0,1.324-1.219,1.324-1.806c0-0.587-0.519-1.038-0.519-1.038l0.756,0.044
		c0,0-0.047-0.406-0.378-1.083c-0.331-0.677,0.52-1.58,0.52-1.58s0,0.541,0.568,0.858c0.568,0.316,0.568,0.768,0.568,0.768
		s0.094-0.949,0.756-1.355c0.662-0.406,0.757-0.949,0.757-0.949s0.615,0.723,0.095,1.851c-0.521,1.129-0.379,1.49-0.379,1.49
		l0.52-0.677c0,0-0.331,0.994-0.284,1.355l0.143,0.677l1.181-1.987L122.989,69.145L122.989,69.145z M120.341,78.175
		c0.141,0.09-1.561,2.032-1.561,2.032l0.898,1.219l1.608-2.167L120.341,78.175L120.341,78.175z M59.38,71.158
		c-0.624,3.646-2.495,6.102-2.495,6.102l3.492,4.041c0,0,0.167-0.356-0.083-0.792c-0.249-0.436-0.873-0.753-0.873-0.753l0.623-0.159
		c0,0-1.123-0.792-1.164-1.704c-0.042-0.912,1.081-1.545,1.081-1.545s-0.665,0.872,0.166,1.268c0.832,0.396,1.223,0.933,1.223,0.933
		s0.228-0.926,0.798-1.253c0.57-0.326,0.171-1.144,0.171-1.144s1.198,0.926,1.084,1.798c-0.115,0.872-0.171,1.906-0.171,1.906
		s0.114-0.872,0.856-0.926c0,0-0.427,0.666-0.178,1.776c0.25,1.109,0.832,1.545,0.832,1.545s1.954-1.505,2.37-2.338
		c0,0-3.035-3.131-4.116-4.359C61.916,74.327,59.38,71.158,59.38,71.158L59.38,71.158z M61.666,80.073l-0.457,1.783l1.829,1.505
		l1.081-0.911C64.119,82.451,62.664,81.619,61.666,80.073L61.666,80.073z M55.912,76.353c-2.02-1.094-2.784-1.98-2.784-1.98
		l0.601,1.876l0.764-0.417c0,0,0.219,0.573-0.327,1.094c-0.546,0.522,0.273,1.616,0.273,1.616L55.912,76.353L55.912,76.353z
		 M80.538,84.533c0,0,1.834,0.649,3.669,0.949c1.834,0.3,4.088-0.699,4.088-0.699l-4.298-2.548L80.538,84.533L80.538,84.533z
		 M89.397,85.332c-0.105,0-2.831,0.85-4.98,0.85c-2.149,0-4.822-0.75-4.822-0.75l-1.73,0.85l1.468,1.199
		c0,0,2.935-0.899,5.137-0.849c2.202,0.049,4.98,0.999,4.98,0.999l2.463-1.299L89.397,85.332L89.397,85.332z M80.958,88.23
		l3.826,2.698l3.879-2.598c0,0-2.673-0.799-4.403-0.949C82.53,87.231,80.958,88.23,80.958,88.23L80.958,88.23z M92.795,97.65
		c2.484-3.064,6.988-6.673,6.988-6.673l-3.779-2.323c0,0-0.621,1.384-0.414,2.175c0.207,0.791,0.776,1.137,0.776,1.137l-1.19-0.544
		c0,0-0.156,0.396,0.362,0.989c0.517,0.594,0.052,1.433,0.052,1.433s0.259-0.494-0.673-0.642c-0.932-0.148-1.916-1.186-1.916-1.186
		s-0.414,1.037-1.346,1.285c-0.932,0.247-0.932,1.038-0.932,1.038s-0.725-0.89-0.311-1.532c0.415-0.643,0.207-1.187,0.207-1.187
		s-0.932,0.642-0.88,0.346c0.052-0.297,0.518-0.939,0.311-1.681c-0.207-0.741-0.673-1.384-0.673-1.384l-3.002,3.064
		C86.376,91.965,91.708,96.315,92.795,97.65L92.795,97.65z M92.899,90.334c0,0,0.466-1.582,1.967-2.224l-2.123-1.038l-2.019,1.384
		C90.724,88.456,91.449,88.901,92.899,90.334L92.899,90.334z M95.308,97.26c0,0,1.765-1.192,3.31-1.086
		c1.544,0.105,2.317-1.087,2.317-1.087s0.478,0.981-0.221,1.367c0,0,1.067-0.28,1.692,0.386c0.626,0.666,0.457,1.662,1.881,0.96
		c0,0-0.442,1.125-2.012,1.171c-1.571,0.047-1.914-0.797-2.749-1.219c0,0,0.147,0.563-0.147,1.126c0,0-1.031-1.313-1.914-1.266
		c-0.884,0.047-2.797,0.75-2.994,2.063c-0.196,1.312,0.245,2.39,2.012,2.53c0,0-0.491,0-0.246-0.75
		c0.246-0.75,1.031-0.984,0.491-1.64c0,0,1.275,0.328,1.325,1.171c0.049,0.843,0.638,2.015,1.571,1.359
		c0.933-0.656,0.935-2.198,1.968-2.362c0,0-0.632,0.437-0.115,0.765c0.516,0.328-0.172,1.204-0.172,1.204s3.099-0.93,3.845-2.954
		c0.746-2.024,0.058-3.118-0.803-4.157c-0.861-1.04-3.96-3.173-3.96-3.173S97.403,94.185,95.308,97.26L95.308,97.26z
		 M96.416,104.112c0,0-2.794-1.023-3.446-2.535c0,0-1.211,2.268-2.702,2.98c0,0,1.957,0.133,3.261,0.089
		C94.832,104.601,96.37,104.156,96.416,104.112L96.416,104.112z M90.205,97.507c-2.086-2.877-5.326-4.814-5.326-4.814
		s-3.02,3.14-4.283,5.128c-1.263,1.988,0.165,3.453,0.878,4.291c0.714,0.837,2.251,1.413,2.251,1.413
		c-0.824-0.314-0.384-0.89-0.275-1.465c0.11-0.576-0.22-0.523-0.22-0.523c0.769,0.314,1.098,0.628,1.428,1.36
		c0.329,0.733,0.878,0.628,1.812,0.418c0.933-0.209,0.769-0.785,1.043-2.041c0.274-1.256,2.8-1.151,2.8-1.151
		c-0.879,0.157-1.099,0.89-0.879,1.57c0.22,0.68,0,1.099,0,1.099s-0.824,0,0.275,0.052c1.098,0.052,2.196-1.831,1.811-2.983
		c-0.384-1.151-2.141-1.831-3.569-1.622c-1.427,0.21-1.537,1.727-1.537,1.727c-0.33-0.576-0.275-1.099-0.275-1.099
		c-0.933,0-0.549,0.785-1.922,1.256c-1.372,0.471-2.47-0.471-2.47-0.471c1.263,0.156,0.988-0.942,1.647-1.675
		s2.196-0.471,2.196-0.471c-0.988-0.209-0.769-1.256-0.769-1.256c0,0.681,0.933,0.471,2.361,0.471
		C88.612,96.723,90.205,97.507,90.205,97.507L90.205,97.507z M105.225,87.036l-1.144,1.091l-2.587,2.75
		c2.587,1.66,5.075,4.837,5.075,4.837s0.845-1.707,1.99-2.94c1.144-1.233,3.881-3.983,3.881-3.983
		c-0.796-1.28-2.388-2.513-2.388-2.513s-0.946,1.422-0.846,2.324c0.1,0.901,0.746,1.138,0.746,1.138
		c-1.194,0.047-1.443-0.332-1.443-0.332s0.398,0.711,0.498,1.327c0.099,0.617-0.348,1.043-0.348,1.043s0.348-0.569-0.547-0.711
		c-0.896-0.143-0.995-0.806-0.995-0.806c0.149,0.901-0.249,1.28-1.144,1.422c-0.896,0.142-0.348,0.806-0.348,0.806
		c-0.447-0.474-0.248-0.996,0.05-1.802c0.298-0.806,0.049-1.043,0.049-1.043l-1.094,0.189c0,0,0.398-0.095,0.746-0.806
		C105.723,88.316,105.225,87.036,105.225,87.036L105.225,87.036z M105.971,86.324c0,0,1.493,0.569,1.493,1.612
		c0,0,0.696-1.659,1.841-2.276l-0.995-0.853C108.31,84.807,106.071,86.277,105.971,86.324L105.971,86.324z M107.165,84.428
		l-1.691-0.853c0,0-1.642,1.422-4.129,1.755c-2.487,0.332-5.025-0.19-5.025-0.19l-2.338,1.232l2.438,0.949
		c1.741-0.901,3.532-1.422,4.876-1.612c1.343-0.19,4.129,0.047,4.129,0.047L107.165,84.428L107.165,84.428z M104.727,83.1
		l-3.184-1.849l-4.229,3.13C102.041,85.329,104.727,83.1,104.727,83.1L104.727,83.1z M104.429,86.561c0,0-4.229-0.759-7.015,1.328
		l3.432,2.276L104.429,86.561L104.429,86.561z M116.087,86.105l-0.764,0.653l-1.889,2.034c1.246,1.42,2.854,4.607,2.854,4.607
		s1.126-2.111,1.769-2.764c0.643-0.653,3.216-4.837,3.216-4.837l-1.005-1.727c0,0-1.005,1.689-1.045,2.15
		c-0.04,0.461,0.282,0.959,0.282,0.959l-0.925-0.191c0,0-0.161,0.653,0.242,1.382c0.402,0.73-0.563,1.075-0.563,1.075
		s0.362-0.461-0.04-0.614c-0.402-0.153-0.845-0.806-0.845-0.806c0.041,0.96-0.884,1.344-1.286,1.689
		c-0.402,0.346-0.282,0.806-0.282,0.806s-0.241-1.075-0.12-1.804c0.121-0.729,0.522-0.691,0.522-0.691l-1.045,0.192
		c0,0,0.081-0.268,0.603-0.691C116.288,87.103,116.087,86.105,116.087,86.105L116.087,86.105z M117.454,84.378
		c0,0,0.844,0.46,0.482,1.382c0,0,0.442-1.497,1.929-1.881l-0.763-0.845L117.454,84.378L117.454,84.378z M116.528,84.521
		c0,0-0.535-0.422-2.397-0.267c-1.862,0.156-3.283,1.354-3.283,1.354l2.305,2.396C113.502,87.472,116.528,84.521,116.528,84.521
		L116.528,84.521z M110.372,85.033c0,0,1.77-0.906,3.281-1.235c1.512-0.33,3.368,0,3.368,0l1.727-1.769l-0.777-0.906
		c0,0-1.987,2.057-4.016,2.181c-2.029,0.124-3.282-0.206-3.282-0.206l-1.252,1.152L110.372,85.033L110.372,85.033z M111.84,82.152
		c0,0,1.641,0.288,2.936,0.206c1.295-0.082,2.85-1.605,2.85-1.605l-2.159-1.893L111.84,82.152L111.84,82.152z M120.146,82.215
		l1.788,2.893l0.813-2.479V81.44l-0.922,0.568c0,0,0.217-0.568,0.488-1.033c0.271-0.465-0.434-0.878-0.434-0.878L120.146,82.215
		L120.146,82.215z M79.828,88.598c0,0-0.914,1.081-0.305,1.579c0.61,0.499,1.175,0.582,1.175,0.582l-0.977,0.343
		c0,0-0.243,0.594,0.352,1.008c0.596,0.413,0.84,0.698,0.514,1.293c0,0-0.135-0.44-0.866-0.543
		c-0.731-0.103-1.949-0.517-2.058-1.215c0,0-0.243,0.776-1.002,1.112c-0.758,0.336-1.191,0.957-1.191,0.957
		s-0.542-0.439-0.352-1.008c0.189-0.568,0.108-1.603,0.108-1.603s-0.515,0.414-1.056,0.362c0,0,0.758-0.776,0.84-1.241
		c0.082-0.466-0.514-2.12-0.514-2.12l-3.141,2.533c0,0,3.737,3.646,4.711,4.679c0.975,1.034,2.328,2.869,2.328,2.869
		s3.33-4.808,5.821-6.385l-3.98-2.946L79.828,88.598L79.828,88.598z M78.611,87.82l-1.976-1.318l-1.272,1.137
		c1.002,0.517,2.004,2.275,2.004,2.275C77.366,88.855,78.611,87.82,78.611,87.82L78.611,87.82z M72.383,84.229l-4.174-3.1
		l-2.504,2.037c0,0,0.789,0.842,3.108,1.063C71.131,84.451,72.383,84.229,72.383,84.229L72.383,84.229z M73.775,84.938
		c0,0-2.737,0.222-4.731,0.177c-1.994-0.044-3.757-1.55-3.757-1.55l-1.206,0.842l2.226,1.816c0,0,0.325-0.709,2.922-0.621
		c2.598,0.089,4.731,1.152,4.731,1.152L75.213,86L73.775,84.938L73.775,84.938z M73.265,87.33c0.047,0.044-2.319-0.753-3.479-0.974
		c-1.159-0.222-2.597,0.531-2.597,0.531l3.2,2.879L73.265,87.33L73.265,87.33z M66.589,87.61c0,0-0.58,0.829-0.048,1.336
		c0.531,0.507,0.773,0.507,0.773,0.507l-0.58,0.276c0,0,0.145,0.645,0.629,0.829c0.483,0.185,0.87,1.06,0.242,1.705
		c0,0,0.145-0.507-0.87-0.829s-1.836-1.289-1.836-1.289s-0.193,0.599-0.532,0.875c-0.338,0.276-0.145,0.691-0.145,0.691
		s-0.725-0.368-0.822-0.967c-0.097-0.599,0.096-0.922,0.096-0.922l-0.773,0.185c0,0,0.435-0.784,0.096-1.244
		c-0.338-0.461-0.967-1.336-0.967-1.796c0-0.46-0.096-0.829-0.096-0.829L60.5,88.393l5.461,6.54c0,0,1.982-3.086,3.722-4.237
		l-2.175-2.212L66.589,87.61L66.589,87.61z M65.236,86.597c0.048,0.138-1.982-1.843-1.982-1.843l-0.773,0.737
		c0,0,0.097,0.322,0.29,0.829c0.193,0.506,1.643,1.842,1.643,1.842C64.318,87.287,65.236,86.597,65.236,86.597L65.236,86.597z
		 M62.276,83.9l-1.025-0.906c0,0-2.391-0.218-3.681-0.834c-1.29-0.616-2.315-1.993-2.315-1.993l-0.114,0.87l0.873,1.558
		c0,0,0.379-0.072,1.366,0.145c0.986,0.218,3.187,0.761,3.908,1.848l0.455-0.29L62.276,83.9L62.276,83.9z M60.796,85.132
		c0,0-1.556-1.051-2.239-1.414c-0.683-0.362-2.315-0.325-2.315-0.325l2.239,4.71L60.796,85.132L60.796,85.132z M55.559,79.588
		c0,0,1.936,1.703,2.77,2.065c0.834,0.362,1.594,0.108,1.594,0.108l-3.415-3.659L55.559,79.588L55.559,79.588z M66.974,95.937
		c0,0,1.386-0.993,2.945-0.276c1.559,0.717,1.906-0.166,1.906-0.166l-0.52,0.938c0,0,2.079,0.111,2.31,1.489
		c0.231,1.378,2.137,1.378,2.137,1.378s-0.347,1.048-2.252,0.773c-1.906-0.276-2.426-1.82-2.426-1.82l-0.058,1.213
		c0,0-0.693-1.985-1.617-2.482c-0.924-0.496-1.964,0.22-1.213,1.765c0.751,1.544,1.79,2.26,1.79,2.26s-0.289-0.441-0.231-0.992
		c0.058-0.551-0.173-0.882-0.173-0.882s0.982-0.331,1.213,0.827c0.231,1.158,2.021,2.316,2.021,2.316s0.462-0.442,1.213-0.717
		c0.751-0.276,0.924-0.827,0.924-0.827s0.866,0.607,0.347,1.323l-0.52,0.552c0,0,2.368-0.11,2.83-1.268
		c0.462-1.158,0.288-2.371,0.288-2.371s-5.891-6.673-7.046-7.5c0,0-1.964,1.654-2.715,2.592
		C67.378,94.999,66.974,95.937,66.974,95.937L66.974,95.937z M69.689,102.444c0,0-1.848-1.654-2.31-2.426l-1.213,1.434
		C66.166,101.452,66.743,101.948,69.689,102.444L69.689,102.444z M64.433,94.614c-1.271-1.765-4.389-5.184-4.389-5.184l-0.347,2.757
		c0,0,0.347,1.654,0.578,2.427c0.231,0.772,1.79,3.86,1.79,3.86l0.578-0.717l0.578,0.993c0,0,0.115-0.331,0.75-0.442
		c0.635-0.11,0.866,0.111,0.866,0.111l-0.462,0.827c1.213,0.331,1.444-1.213,0.982-2.206c-0.462-0.993-1.386-0.993-2.021-1.324
		c-0.635-0.33-0.578,0.828-1.617,0.386c-1.04-0.441-0.809-1.213-0.809-1.213s0.404,0.33,0.809,0.22
		c0.404-0.111,0.693-0.276,0.693-0.276l-0.462-0.551l0.924,0.11C63.451,93.566,64.433,94.614,64.433,94.614L64.433,94.614z
		 M77.09,103.507c0,0,0.282,0.313,1.079,0.357c0.797,0.045,3.846,0.314,3.846,0.314c-1.829-0.671-3.002-2.594-3.002-2.594
		C78.966,102.97,77.09,103.507,77.09,103.507L77.09,103.507z M114.579,93.818c-0.161-3.16-1.658-4.078-1.658-4.078
		s-1.872,1.529-4.011,4.282c-2.139,2.752-2.246,5.556-2.246,5.556c0.428,2.395,3.958,1.172,3.958,1.172s-0.375-0.357-0.161-0.866
		c0.214-0.51-0.481-0.51-0.481-0.51s0.749-0.204,0.963,0.255c0.214,0.459,0.481,0.459,0.856-0.204
		c0.375-0.663,0.161-0.968,0.321-1.529c0.16-0.56,1.23-0.714,1.23-0.714s-0.321,0.663-0.268,0.918c0.054,0.255,0,0.713,0,0.713
		s0.321-0.356,0.802-1.172c0.482-0.816,0.482-2.804,0.482-2.804c-0.749-0.56-1.551,1.122-1.551,1.122l0.107-1.02
		c-0.696,0.51-0.428,1.734-1.819,2.09c-1.39,0.357-1.711-0.765-1.711-0.765c1.444,0.357,0.642-1.326,1.497-1.937
		c0.856-0.612,1.016-0.765,1.016-0.765l-0.268-0.714c0,0,0.428,0.866,1.23,0.407C113.669,92.799,114.579,93.818,114.579,93.818
		L114.579,93.818z M117.413,92.646c0,0,0.696-0.816,1.337-1.173c0.642-0.356,0.909-0.765,0.909-0.765l-0.268,1.173l0.589-0.204
		l1.069-3.771c0,0-1.337,1.988-2.193,2.905C118.002,91.729,117.413,92.646,117.413,92.646L117.413,92.646z M116.558,94.328
		c0-0.153-0.535,0.968-0.642,1.937c-0.107,0.968,0.374,1.478,0.374,1.478s0.375-0.204,0.749-0.561
		c0.375-0.356,0.856-0.611,0.856-0.611l0.053,0.866c0.428-0.306,0.856-2.651,0.856-2.651l-0.642,0.204l0.107-0.867
		c0,0,0-0.56-0.481-0.662C117.306,93.36,116.558,94.328,116.558,94.328L116.558,94.328z M114.846,97.998
		c0,0-0.428,1.581-1.283,2.141l2.247-0.968C115.809,99.171,114.9,98.457,114.846,97.998L114.846,97.998z M103.144,102.858
		c-0.081-0.077,1.091,0.039,1.981-0.077c0.889-0.116,2.303-0.618,2.303-0.618c-1.213-0.232-1.778-1.659-1.778-1.659
		C105.084,101.622,103.144,102.858,103.144,102.858z"/>
</g>
</svg>
