<?xml version="1.0" encoding="utf-8"?>
<!-- Generator: Adobe Illustrator 17.0.0, SVG Export Plug-In . SVG Version: 6.00 Build 0)  -->
<!DOCTYPE svg PUBLIC "-//W3C//DTD SVG 1.1//EN" "http://www.w3.org/Graphics/SVG/1.1/DTD/svg11.dtd">
<svg version="1.1" id="Layer_1" xmlns="http://www.w3.org/2000/svg" xmlns:xlink="http://www.w3.org/1999/xlink" x="0px" y="0px"
	 width="215.43px" height="214.016px" viewBox="0 0 215.43 214.016" enable-background="new 0 0 215.43 214.016"
	 xml:space="preserve">
<g display="none">
	<path display="inline" fill="#EDDA7D" stroke="#442E22" stroke-width="1.5" stroke-miterlimit="10" d="M15.595,147.821
		c0.298-0.703,0.655-1.166,1.072-1.389c0.418-0.221,1.157-0.162,2.219,0.176c0.609,0.201,1.036,0.529,1.279,0.988
		c0.244,0.458,0.174,1.314-0.21,2.566c-0.156,0.377-0.248,0.846-0.275,1.406c-0.029,0.561,0.053,1.021,0.245,1.381
		c0.809,1.522,1.835,1.953,3.078,1.293c0.377-0.201,0.582-0.576,0.613-1.129s-0.06-1.17-0.275-1.853s-0.389-1.452-0.518-2.307
		s-0.188-1.685-0.173-2.489c0.012-0.805,0.281-1.613,0.804-2.426c0.523-0.812,1.308-1.498,2.355-2.055
		c1.44-0.766,2.981-0.896,4.622-0.395c1.643,0.504,2.954,1.68,3.937,3.528c0.522,0.982,0.871,1.945,1.049,2.89
		c0.177,0.946,0.216,1.645,0.12,2.094l-0.141,0.861c-0.205,0.76-0.472,1.227-0.799,1.4c-0.328,0.174-0.882,0.217-1.663,0.127
		c-1.115-0.121-1.828-0.477-2.141-1.064c-0.183-0.344-0.246-0.857-0.188-1.539c0.007-0.066,0.038-0.203,0.096-0.412
		c0.057-0.209,0.096-0.393,0.116-0.55c0.03-0.457-0.095-0.951-0.378-1.483c-0.283-0.531-0.645-0.906-1.084-1.123
		c-0.442-0.218-0.886-0.207-1.337,0.033c-0.449,0.238-0.704,0.641-0.759,1.206c-0.058,0.565,0.03,1.185,0.263,1.858
		s0.44,1.434,0.628,2.279c0.187,0.846,0.298,1.656,0.334,2.436s-0.199,1.57-0.706,2.374c-0.507,0.805-1.292,1.489-2.355,2.055
		c-1.064,0.565-2.113,0.851-3.15,0.854c-1.036,0.005-1.958-0.219-2.766-0.672c-1.571-0.863-2.757-2.049-3.557-3.555
		c-0.41-0.77-0.702-1.549-0.879-2.336c-0.178-0.787-0.24-1.468-0.188-2.041c0.062-1.146,0.249-2.021,0.557-2.625L15.595,147.821z"/>
	<path display="inline" fill="#EDDA7D" stroke="#442E22" stroke-width="1.5" stroke-miterlimit="10" d="M25.972,170.084
		c-1.158-1.471-1.562-3.128-1.211-4.974c0.351-1.847,1.327-3.399,2.929-4.661l3.821-3.01c0.351-0.275,0.613-0.466,0.791-0.57
		c0.177-0.104,0.414-0.191,0.714-0.262c0.554-0.105,1.197,0.307,1.932,1.238c0.802,1.02,0.996,1.836,0.58,2.445
		c-0.164,0.271-0.501,0.607-1.01,1.008l-3.822,3.012c-0.597,0.471-0.928,1.008-0.993,1.613c-0.065,0.606,0.128,1.197,0.582,1.771
		c0.453,0.576,0.994,0.904,1.625,0.985c0.63,0.081,1.229-0.103,1.797-0.549l3.865-3.046c0.335-0.263,0.595-0.449,0.779-0.561
		c0.185-0.109,0.432-0.192,0.742-0.248c0.526-0.109,1.158,0.303,1.893,1.234c0.724,0.918,0.968,1.633,0.734,2.146
		c-0.138,0.273-0.281,0.487-0.433,0.641c-0.15,0.154-0.392,0.363-0.727,0.627l-7.73,6.09c-0.32,0.252-0.574,0.434-0.758,0.543
		c-0.185,0.11-0.425,0.188-0.72,0.232c-0.552,0.079-1.183-0.332-1.894-1.234c-0.699-0.889-0.954-1.572-0.766-2.051
		c0.133-0.341,0.374-0.648,0.724-0.924c-0.148,0.021-0.397,0.006-0.747-0.049c-0.35-0.056-0.665-0.126-0.944-0.212
		C27.015,171.078,26.431,170.666,25.972,170.084z"/>
	<path display="inline" fill="#EDDA7D" stroke="#442E22" stroke-width="1.5" stroke-miterlimit="10" d="M49.82,174.125
		c1.39,1.225,2.079,2.775,2.067,4.654c-0.013,1.879-0.692,3.584-2.04,5.113l-3.234,3.671c-0.282,0.319-0.504,0.552-0.665,0.692
		c-0.161,0.143-0.377,0.267-0.646,0.376c-0.526,0.204-1.233-0.087-2.123-0.87c-0.987-0.869-1.332-1.629-1.032-2.279
		c0.125-0.31,0.396-0.701,0.812-1.174l3.234-3.672c0.502-0.569,0.73-1.158,0.686-1.766c-0.045-0.608-0.343-1.154-0.892-1.639
		c-0.549-0.483-1.142-0.709-1.776-0.676c-0.634,0.035-1.189,0.322-1.669,0.865l-3.253,3.691c-0.281,0.32-0.502,0.551-0.665,0.692
		c-0.161,0.142-0.383,0.261-0.666,0.357c-0.511,0.216-1.212-0.067-2.103-0.852c-0.875-0.771-1.245-1.431-1.109-1.978
		c0.086-0.295,0.188-0.531,0.309-0.709c0.12-0.179,0.321-0.428,0.604-0.748l6.504-7.385c0.27-0.305,0.485-0.529,0.647-0.671
		c0.161-0.142,0.384-0.261,0.667-0.357c0.501-0.177,1.189,0.122,2.066,0.894c0.847,0.746,1.227,1.365,1.142,1.857
		c-0.07,0.359-0.252,0.705-0.546,1.039c0.142-0.047,0.39-0.076,0.743-0.086c0.354-0.009,0.671,0.01,0.95,0.059
		C48.587,173.323,49.249,173.622,49.82,174.125z"/>
	<path display="inline" fill="#EDDA7D" stroke="#442E22" stroke-width="1.5" stroke-miterlimit="10" d="M62.951,183.633
		c1.105,0.641,1.58,1.322,1.419,2.043c-0.08,0.359-0.265,0.789-0.553,1.285c-0.288,0.498-0.57,0.865-0.846,1.102
		c-0.277,0.236-0.563,0.354-0.862,0.352c-0.448-0.004-0.993-0.189-1.635-0.562l-1.483-0.988l-3.734,6.446
		c-0.353,0.611-0.692,1.02-1.016,1.229c-0.324,0.207-0.671,0.27-1.039,0.186c-0.369-0.086-0.802-0.271-1.299-0.561
		c-0.497-0.287-0.864-0.569-1.101-0.846c-0.236-0.275-0.351-0.567-0.345-0.875c0.007-0.307,0.054-0.562,0.142-0.77
		c0.087-0.206,0.237-0.494,0.451-0.863l3.692-6.374l-0.865-0.502c-0.399-0.273-0.641-0.542-0.725-0.804
		c-0.127-0.481,0.059-1.156,0.562-2.021c0.761-1.314,1.615-1.698,2.562-1.15l0.794,0.46l0.737-1.274
		c0.716-1.235,1.805-2.1,3.268-2.59c1.462-0.491,3.027-0.255,4.696,0.712c0.368,0.214,0.638,0.386,0.809,0.517
		c0.17,0.131,0.339,0.33,0.505,0.598c0.312,0.459,0.171,1.203-0.423,2.229c-0.445,0.77-0.903,1.244-1.371,1.424
		c-0.373,0.126-0.809,0.066-1.31-0.182c-0.144-0.082-0.368-0.213-0.672-0.389c-0.595-0.344-1.007-0.315-1.239,0.085l-0.767,1.323
		L62.951,183.633z M68.538,181.697c0.214-0.368,0.387-0.638,0.517-0.81c0.132-0.17,0.33-0.338,0.598-0.504
		c0.459-0.312,1.202-0.172,2.229,0.423c0.978,0.566,1.462,1.136,1.452,1.708c-0.012,0.314-0.062,0.576-0.148,0.782
		c-0.088,0.206-0.238,0.493-0.452,0.862l-6.45,11.139c-0.335,0.577-0.499,0.97-0.489,1.178c0.007,0.209,0.176,0.408,0.504,0.598
		c0.329,0.191,0.543,0.33,0.642,0.42c0.099,0.089,0.202,0.24,0.313,0.455c0.185,0.385,0.008,1.043-0.531,1.973
		c-0.586,1.01-1.096,1.539-1.531,1.588c-0.6,0.037-1.63-0.495-3.09-1.598c-1.142-0.875-1.715-1.754-1.719-2.635
		c0.022-1.035,0.53-2.412,1.524-4.129L68.538,181.697z"/>
	<path display="inline" fill="#EDDA7D" stroke="#442E22" stroke-width="1.5" stroke-miterlimit="10" d="M75.212,191.836
		c1.932-0.885,3.848-1.012,5.749-0.383c1.899,0.628,3.354,1.865,4.363,3.711c1.01,1.848,1.166,3.827,0.468,5.938
		c-0.483,1.46-1.291,2.634-2.423,3.518c-1.132,0.885-2.328,1.417-3.587,1.595c-1.26,0.18-2.472,0.076-3.632-0.308
		c-1.161-0.384-2.193-1.042-3.096-1.976c-0.901-0.932-1.541-2.08-1.919-3.445c-0.38-1.365-0.336-2.75,0.13-4.159
		C71.964,194.216,73.28,192.719,75.212,191.836z M76.159,200.039c0.42,0.617,0.92,1.022,1.501,1.215
		c0.58,0.191,1.233,0.164,1.96-0.084s1.231-0.803,1.518-1.666c0.285-0.861,0.225-1.594-0.182-2.197
		c-0.405-0.603-0.925-1.008-1.559-1.219c-0.634-0.209-1.296-0.184-1.987,0.076c-0.69,0.26-1.177,0.815-1.459,1.67
		C75.669,198.688,75.737,199.422,76.159,200.039z"/>
	<path display="inline" fill="#EDDA7D" stroke="#442E22" stroke-width="1.5" stroke-miterlimit="10" d="M107.469,196.848
		c1.118,0.652,1.634,1.355,1.546,2.109c-0.037,0.314-0.242,0.799-0.617,1.455c-0.375,0.655-0.694,1.229-0.956,1.721l-3.9,7.047
		c-0.37,0.778-0.897,1.295-1.58,1.551c-0.292,0.097-0.648,0.121-1.071,0.072c-0.424-0.051-0.815-0.26-1.173-0.627
		c-0.358-0.369-0.583-0.727-0.674-1.072l-0.165-0.496c-0.104-0.385-0.48-1.883-1.128-4.496c-0.235,0.42-0.591,1.111-1.065,2.072
		c-0.477,0.962-0.781,1.561-0.91,1.797c-0.13,0.236-0.214,0.395-0.251,0.475s-0.135,0.223-0.288,0.429
		c-0.155,0.206-0.324,0.382-0.51,0.528c-0.493,0.391-1.025,0.552-1.596,0.486c-0.57-0.067-1.031-0.283-1.38-0.651
		c-0.349-0.366-0.569-0.724-0.659-1.07l-2.985-10.647c-0.119-0.573-0.17-0.943-0.15-1.109c0.086-0.736,0.679-1.254,1.776-1.557
		c0.617-0.17,1.109-0.234,1.478-0.191c0.369,0.043,0.658,0.156,0.87,0.34s0.354,0.359,0.43,0.525
		c0.073,0.168,0.128,0.337,0.164,0.51c0.228,0.772,0.679,2.579,1.355,5.419l2.15-4.284c0.153-0.354,0.393-0.652,0.72-0.895
		c0.597-0.473,1.17-0.676,1.723-0.611s1.009,0.268,1.371,0.607c0.36,0.341,0.599,0.667,0.712,0.979l0.166,0.496
		c0.619,2.684,0.991,4.221,1.114,4.607l2.218-4.388c0.58-1.126,1.311-1.639,2.195-1.536
		C106.746,196.483,107.104,196.618,107.469,196.848z"/>
	<path display="inline" fill="#EDDA7D" stroke="#442E22" stroke-width="1.5" stroke-miterlimit="10" d="M124.326,200.99
		c0.094,1.137-0.12,2-0.64,2.59c-0.52,0.592-1.12,0.914-1.805,0.97l-6.566,0.534c0.043,0.518,0.383,0.927,1.021,1.229
		c0.638,0.301,1.263,0.427,1.871,0.377c1.071-0.087,1.903-0.267,2.495-0.537l0.296-0.136c0.428-0.239,0.788-0.371,1.083-0.396
		c0.592-0.048,1.132,0.326,1.626,1.123c0.28,0.48,0.435,0.895,0.464,1.245c0.134,1.646-1.768,2.626-5.701,2.946
		c-1.367,0.111-2.601-0.025-3.701-0.41s-1.978-0.94-2.633-1.668c-1.285-1.402-2.003-3.026-2.153-4.873
		c-0.189-2.328,0.412-4.25,1.805-5.768c1.391-1.518,3.214-2.367,5.468-2.551c2.567-0.209,4.525,0.543,5.874,2.256
		C123.835,198.832,124.234,199.854,124.326,200.99z M118.547,202.283c0.701-0.057,1.028-0.381,0.979-0.973
		c-0.033-0.424-0.224-0.754-0.566-0.986c-0.346-0.231-0.817-0.323-1.418-0.274s-1.176,0.343-1.728,0.88
		c-0.551,0.538-0.804,1.083-0.759,1.637L118.547,202.283z"/>
	<path display="inline" fill="#EDDA7D" stroke="#442E22" stroke-width="1.5" stroke-miterlimit="10" d="M135.006,192.912
		c0.368,0.027,0.696,0.145,0.984,0.352c0.288,0.209,0.5,0.602,0.637,1.178c0.138,0.576,0.116,1.248-0.063,2.016
		c-0.179,0.767-0.593,1.227-1.242,1.381c-0.324,0.078-0.652,0.079-0.985,0.006c-0.331-0.074-0.741-0.053-1.228,0.063
		s-0.901,0.396-1.243,0.839c-0.343,0.443-0.455,0.908-0.34,1.396l1.352,5.679c0.099,0.416,0.159,0.73,0.182,0.943
		c0.021,0.213-0.007,0.473-0.087,0.777c-0.158,0.533-0.806,0.936-1.942,1.205c-0.865,0.207-1.522,0.201-1.976-0.016
		c-0.349-0.184-0.603-0.532-0.763-1.047c-0.043-0.18-0.104-0.441-0.188-0.784l-2.258-9.493c-0.099-0.414-0.159-0.729-0.183-0.942
		c-0.021-0.214,0-0.462,0.067-0.744c0.136-0.548,0.781-0.958,1.935-1.231c1.082-0.258,1.809-0.211,2.176,0.139
		c0.268,0.241,0.438,0.516,0.512,0.822c0.059-0.148,0.153-0.332,0.282-0.555c0.128-0.22,0.436-0.551,0.921-0.99
		c0.486-0.439,0.941-0.709,1.365-0.811c0.424-0.1,0.785-0.162,1.084-0.186C134.303,192.884,134.637,192.885,135.006,192.912z"/>
</g>
<g>
	<g>
		<path fill="#FFE415" stroke="#8A5E00" stroke-width="1.5" stroke-miterlimit="10" d="M20.46,129.835
			c-0.819,0.422-1.609,0.73-2.37,0.92c-1.36,0.339-2.574,0.305-3.617-0.141c-1.183-0.506-1.925-1.465-2.183-2.849
			c-0.048-0.261-0.073-0.518-0.075-0.772c-0.009-1.151,0.443-2.146,1.294-2.956c0.745-0.709,1.642-1.162,2.682-1.338
			c0.673-0.114,1.285-0.084,1.833,0.077c2.422,0.714,4.467,0.847,6.079,0.542c1.919-0.363,5.591-2.711,5.591-2.711
			c0.024,0.02-1.272,2.235-2.098,3.277C25.636,126.36,23.293,128.376,20.46,129.835z M22.194,135.161
			c-0.637,0.289-1.191,0.289-1.645-0.007c-0.454-0.296-0.724-0.798-0.8-1.503c-0.113-1.041,0.197-1.914,0.887-2.594
			c0.614-0.605,2.447-1.182,2.447-1.182c0.017,0.028-0.403,0.891-0.345,1.533c0.02,0.224,0.127,0.525,0.322,0.898
			c0.195,0.372,0.309,0.668,0.334,0.889c0.046,0.398-0.043,0.778-0.267,1.142C22.902,134.703,22.59,134.981,22.194,135.161z
			 M20.516,140.689c-0.74,0.389-1.557,0.743-2.45,1.06c-2.737,0.97-4.36,0.457-4.734-1.575c-0.175-0.953-0.045-1.834,0.371-2.613
			c0.418-0.779,1.061-1.29,1.919-1.541c0.684-0.2,1.466-0.206,2.349-0.037c2.493,0.478,5.072,0.231,7.712-0.605
			c1.349-0.427,4.046-1.732,4.046-1.732C29.768,133.693,24.533,138.579,20.516,140.689z"/>
		<path fill="#FFE415" stroke="#8A5E00" stroke-width="1.5" stroke-miterlimit="10" d="M27.875,158.714
			c-0.621,0.352-1.439,0.674-2.439,0.958c-2.013,0.571-6.041,0.264-6.041,0.264c-0.001-0.039,2.577-0.888,3.834-1.567
			c1.64-0.886,2.986-1.833,4.05-2.823c2.499-2.326,3.329-4.425,2.561-6.47c-0.165-0.44-0.406-0.853-0.721-1.24
			c-0.801-0.986-2.117-1.091-3.982-0.271c-1.172,0.515-2.373,1.297-3.589,2.361c-0.689,0.604-1.349,1.052-1.982,1.338
			c-1.52,0.687-2.796,0.307-3.761-1.189c-0.147-0.228-0.262-0.479-0.341-0.753c-0.339-1.173-0.045-2.394,0.857-3.612
			c0.777-1.048,1.759-1.841,2.929-2.372c0.211-0.096,0.54-0.226,0.985-0.392c2.684-1.003,5.147-1.319,7.397-1.063
			c2.962,0.337,4.859,1.724,5.909,4.195c1.158,2.725,1.061,5.215-0.455,7.727C31.916,155.744,30.195,157.399,27.875,158.714z
			 M25.642,155.183c-0.771,0.401-1.479,0.432-2.114,0.074c-0.573-0.322-1.07-0.93-1.296-1.722c-0.168-0.585-0.14-1.236,0.013-1.814
			c0.356-1.349,3.071-3.103,3.071-3.103c0.024,0.025-0.225,1.061,0.017,1.728c0.138,0.381,0.362,0.694,0.666,0.926
			c0.434,0.331,0.74,0.698,0.907,1.109c0.214,0.531,0.199,1.053-0.048,1.575C26.609,154.479,26.205,154.889,25.642,155.183z"/>
		<path fill="#FFE415" stroke="#8A5E00" stroke-width="1.5" stroke-miterlimit="10" d="M40.882,171.912
			c-1.104,0.908-2.345,1.27-3.709,1.056c-1.258-0.197-2.342-0.832-3.191-1.909c-1.175-1.489-1.354-5.883-1.354-5.883
			c0.02-0.002,0.553,1.317,0.909,1.819c0.645,0.91,1.431,1.454,2.325,1.632c0.893,0.178,1.906-0.042,2.832-0.682
			c1.032-0.713,1.705-1.69,2.008-2.698c0.302-1.008,0.131-1.942-0.505-2.838c-0.483-0.68-1.073-1.077-1.784-1.194
			c-1.533-0.253-3,0.037-4.398,0.944c-1.646,1.068-2.887,2.891-3.513,5.507c-0.166,0.695-0.579,1.285-1.257,1.756
			c-0.948,0.657-1.947,0.865-2.994,0.594c-1.048-0.271-1.859-0.926-2.402-1.953c-0.746-1.411-0.601-2.92,0.407-4.435
			c0.803-1.206,1.995-2.254,3.537-3.16c2.32-1.365,4.737-1.992,7.235-2.015c2.963-0.026,5.063,0.938,6.494,2.957
			c1.303,1.838,2.007,3.526,2.075,5.152C43.678,168.516,42.827,170.312,40.882,171.912z"/>
		<path fill="#FFE415" stroke="#8A5E00" stroke-width="1.5" stroke-miterlimit="10" d="M54.704,183.542
			c-0.918,1.065-2.107,1.646-3.562,1.711c-1.341,0.06-2.608-0.323-3.737-1.165c-1.562-1.165-2.784-5.238-2.784-5.238
			c0.021-0.008,0.877,1.123,1.361,1.523c0.877,0.725,1.813,1.08,2.774,1.073c0.96-0.007,1.945-0.408,2.746-1.19
			c0.885-0.864,1.348-1.914,1.419-2.917c0.071-1.002-0.328-1.843-1.192-2.556c-0.656-0.542-1.355-0.798-2.112-0.768
			c-1.632,0.064-3.066,0.622-4.285,1.744c-1.436,1.321-2.28,3.269-2.304,5.836c-0.006,0.682-0.29,1.315-0.874,1.888
			c-0.817,0.8-1.793,1.189-2.93,1.141c-1.138-0.049-2.125-0.502-2.922-1.355c-1.095-1.172-1.3-2.61-0.621-4.222
			c0.54-1.283,1.517-2.496,2.883-3.645c2.056-1.73,4.384-2.792,6.937-3.303c3.028-0.607,5.405-0.117,7.351,1.491
			c1.771,1.464,2.898,2.908,3.358,4.417C56.762,179.817,56.32,181.665,54.704,183.542z"/>
		<path fill="#FFE415" stroke="#8A5E00" stroke-width="1.5" stroke-miterlimit="10" d="M72.995,189.965
			c-1.002,1.808-2.495,2.933-4.512,3.29c-2.018,0.357-4.521-0.055-7.306-1.369c-2.416-1.14-3.997-2.49-4.772-3.913
			c-0.985-1.81-0.618-3.67,0.941-5.528c0.972-1.157,2.063-1.819,3.25-2.025c1.133-0.197,2.289,0.033,3.508,0.683
			c0.793,0.422,1.294,0.967,1.496,1.647c0.217,0.733,0.059,1.49-0.494,2.262c-0.228,0.319-0.472,0.573-0.73,0.761
			c-0.895,0.654-1.522,1.217-1.868,1.694c-0.647,0.891-0.594,1.704,0.195,2.409c0.495,0.443,1.06,0.801,1.684,1.071
			c0.907,0.393,1.872,0.561,2.866,0.493c1.075-0.074,2.005-0.423,2.772-1.012c0.63-0.485,1.19-1.136,1.685-1.951
			c0.681-1.12,0.984-3.493,0.984-3.493C72.795,184.95,74.031,188.094,72.995,189.965z M63.187,196.685
			c-0.093,0.258-0.242,0.511-0.379,0.724c-0.786,1.218-2.082,1.48-3.828,0.712c-0.643-0.283-1.086-0.64-1.326-1.062
			c-0.276-0.485-0.233-0.977,0.117-1.467c0.385-0.54,1.111-0.956,2.157-1.272c0.637-0.193,1.092-0.494,1.365-0.889
			c0.145-0.21,0.363-0.78,0.37-0.782C61.944,192.581,63.629,195.451,63.187,196.685z"/>
	</g>
</g>
</svg>
