<?xml version="1.0" encoding="utf-8"?>
<!-- Generator: Adobe Illustrator 17.0.0, SVG Export Plug-In . SVG Version: 6.00 Build 0)  -->
<!DOCTYPE svg PUBLIC "-//W3C//DTD SVG 1.1//EN" "http://www.w3.org/Graphics/SVG/1.1/DTD/svg11.dtd">
<svg version="1.1" id="Layer_1" xmlns="http://www.w3.org/2000/svg" xmlns:xlink="http://www.w3.org/1999/xlink" x="0px" y="0px"
	 width="215.825px" height="215.207px" viewBox="0 0 215.825 215.207" enable-background="new 0 0 215.825 215.207"
	 xml:space="preserve">
<g display="none">
	<path display="inline" fill="#EDDA7D" stroke="#442E22" stroke-width="1.5" stroke-miterlimit="10" d="M148.096,200.072
		c-0.697-0.311-1.154-0.677-1.369-1.098c-0.213-0.422-0.143-1.16,0.217-2.215c0.209-0.605,0.547-1.027,1.01-1.262
		s1.316-0.15,2.562,0.255c0.375,0.165,0.842,0.264,1.4,0.302c0.561,0.037,1.021-0.035,1.385-0.221
		c1.537-0.781,1.986-1.799,1.348-3.055c-0.193-0.381-0.566-0.592-1.117-0.634c-0.553-0.041-1.17,0.04-1.857,0.243
		c-0.688,0.204-1.459,0.362-2.314,0.476c-0.857,0.114-1.689,0.156-2.492,0.13c-0.805-0.028-1.609-0.311-2.412-0.848
		c-0.803-0.538-1.475-1.336-2.012-2.393c-0.74-1.454-0.844-2.996-0.311-4.629c0.531-1.633,1.73-2.923,3.598-3.872
		c0.99-0.505,1.959-0.836,2.908-0.997c0.947-0.159,1.646-0.187,2.094-0.083l0.859,0.157c0.756,0.219,1.217,0.492,1.385,0.822
		c0.17,0.33,0.201,0.887,0.1,1.666c-0.143,1.111-0.51,1.818-1.105,2.121c-0.346,0.176-0.859,0.23-1.541,0.16
		c-0.064-0.009-0.203-0.043-0.41-0.104s-0.391-0.103-0.547-0.127c-0.457-0.037-0.953,0.079-1.49,0.353
		c-0.537,0.272-0.918,0.628-1.143,1.064c-0.227,0.438-0.223,0.882,0.01,1.336c0.23,0.454,0.627,0.716,1.191,0.782
		s1.186-0.011,1.863-0.23c0.678-0.221,1.441-0.416,2.291-0.587c0.848-0.172,1.662-0.27,2.439-0.291
		c0.779-0.022,1.566,0.228,2.361,0.748c0.797,0.521,1.467,1.318,2.014,2.392c0.545,1.074,0.811,2.129,0.797,3.166
		c-0.014,1.036-0.254,1.953-0.721,2.753c-0.893,1.556-2.1,2.72-3.619,3.493c-0.777,0.395-1.561,0.673-2.35,0.836
		c-0.791,0.163-1.473,0.214-2.045,0.15c-1.143-0.083-2.016-0.285-2.615-0.604L148.096,200.072z"/>
	<path display="inline" fill="#EDDA7D" stroke="#442E22" stroke-width="1.5" stroke-miterlimit="10" d="M171.155,178.346
		c0.684,0.911,0.965,1.756,0.842,2.532c-0.125,0.777-0.461,1.371-1.008,1.782l-5.268,3.958c0.311,0.415,0.818,0.58,1.518,0.493
		c0.701-0.085,1.295-0.312,1.785-0.681c0.859-0.645,1.467-1.24,1.822-1.785l0.178-0.273c0.232-0.43,0.467-0.734,0.705-0.912
		c0.473-0.355,1.131-0.328,1.973,0.082c0.494,0.256,0.846,0.523,1.059,0.805c0.99,1.32-0.092,3.164-3.248,5.535
		c-1.098,0.825-2.213,1.367-3.35,1.631c-1.135,0.262-2.174,0.26-3.115-0.007c-1.836-0.498-3.311-1.488-4.424-2.972
		c-1.402-1.866-1.92-3.812-1.553-5.838c0.367-2.027,1.453-3.719,3.262-5.077c2.061-1.547,4.117-1.956,6.17-1.228
		C169.586,176.783,170.469,177.435,171.155,178.346z M166.958,182.526c0.562-0.423,0.666-0.872,0.311-1.346
		c-0.256-0.342-0.592-0.518-1.008-0.53c-0.414-0.013-0.863,0.162-1.346,0.523c-0.48,0.362-0.811,0.918-0.99,1.666
		c-0.18,0.749-0.102,1.346,0.232,1.79L166.958,182.526z"/>
	<path display="inline" fill="#EDDA7D" stroke="#442E22" stroke-width="1.5" stroke-miterlimit="10" d="M182.569,166.451
		c0.83,0.781,1.252,1.564,1.262,2.351c0.012,0.788-0.219,1.431-0.688,1.93l-4.514,4.798c0.377,0.357,0.904,0.433,1.58,0.228
		c0.676-0.204,1.223-0.529,1.641-0.975c0.736-0.782,1.234-1.474,1.49-2.071l0.129-0.299c0.156-0.464,0.336-0.803,0.539-1.02
		c0.406-0.432,1.059-0.517,1.959-0.257c0.529,0.167,0.924,0.372,1.18,0.612c1.201,1.131,0.449,3.135-2.256,6.01
		c-0.939,0.999-1.945,1.725-3.02,2.176c-1.074,0.454-2.098,0.629-3.072,0.527c-1.893-0.178-3.516-0.901-4.865-2.171
		c-1.701-1.6-2.543-3.429-2.527-5.488s0.797-3.911,2.346-5.56c1.766-1.876,3.723-2.631,5.871-2.265
		C180.756,165.179,181.739,165.67,182.569,166.451z M179.147,171.286c0.482-0.513,0.508-0.972,0.076-1.379
		c-0.311-0.292-0.672-0.409-1.082-0.351c-0.412,0.059-0.824,0.307-1.236,0.746c-0.412,0.438-0.643,1.043-0.691,1.811
		c-0.049,0.77,0.129,1.344,0.535,1.724L179.147,171.286z"/>
	<path display="inline" fill="#EDDA7D" stroke="#442E22" stroke-width="1.5" stroke-miterlimit="10" d="M179.7,149.935
		c-0.148-0.264-0.172-0.572-0.072-0.929c0.102-0.354,0.312-0.776,0.633-1.264c0.322-0.487,0.625-0.847,0.912-1.081
		c0.287-0.232,0.584-0.331,0.893-0.294s0.561,0.103,0.754,0.196s0.467,0.258,0.822,0.492l13.861,9.128
		c0.357,0.234,0.617,0.423,0.779,0.562c0.162,0.141,0.311,0.344,0.445,0.61c0.266,0.508,0.045,1.3-0.664,2.375
		c-0.709,1.076-1.482,1.426-2.322,1.051c0.314,1.139,0.09,2.289-0.674,3.449c-0.918,1.394-2.361,2.264-4.33,2.607
		c-1.971,0.346-3.764-0.015-5.381-1.08c-1.617-1.064-2.658-2.576-3.121-4.534c-0.465-1.958-0.242-3.626,0.664-5.005
		c0.754-1.145,1.729-1.779,2.92-1.904l-4.875-3.212c-0.357-0.233-0.615-0.421-0.779-0.562
		C180.002,150.402,179.846,150.199,179.7,149.935z M189.833,162.019c0.684-0.128,1.213-0.478,1.592-1.051
		c0.377-0.572,0.48-1.186,0.312-1.84c-0.168-0.655-0.504-1.148-1.006-1.479c-0.504-0.332-1.092-0.459-1.766-0.38
		c-0.672,0.079-1.213,0.427-1.621,1.046c-0.406,0.619-0.52,1.255-0.34,1.906c0.182,0.652,0.527,1.146,1.039,1.482
		C188.553,162.042,189.151,162.146,189.833,162.019z"/>
	<path display="inline" fill="#EDDA7D" stroke="#442E22" stroke-width="1.5" stroke-miterlimit="10" d="M200.323,153.138
		c-0.346,0.231-0.74,0.248-1.18,0.052c-0.439-0.197-0.963-0.817-1.572-1.862c-0.205-0.313-0.215-0.678-0.029-1.093
		c0.186-0.414,0.645-0.884,1.377-1.409s1.227-1.076,1.484-1.65c0.461-1.033,0.488-1.64,0.082-1.821
		c-0.32-0.144-0.811,0.317-1.471,1.383c-0.629,0.998-1.498,1.877-2.611,2.639c-0.523,0.354-1.184,0.547-1.979,0.577
		c-0.795,0.029-1.641-0.155-2.537-0.557c-2.674-1.196-3.189-3.629-1.547-7.301c0.537-1.201,1.377-2.307,2.52-3.318
		c0.535-0.471,1.006-0.616,1.414-0.436c0.404,0.184,0.82,0.592,1.246,1.229s0.551,1.15,0.377,1.54
		c-0.09,0.202-0.385,0.522-0.885,0.958c-0.5,0.438-0.895,0.977-1.182,1.619c-0.447,0.999-0.482,1.58-0.111,1.746
		c0.508,0.229,1.096-0.2,1.762-1.281c0.617-1.064,1.424-2.004,2.418-2.817c0.455-0.384,1.051-0.612,1.781-0.681
		s1.537,0.094,2.416,0.488c0.881,0.393,1.555,0.893,2.025,1.498c0.469,0.605,0.723,1.273,0.764,2.002
		c0.041,1.317-0.305,2.792-1.035,4.425C203.12,150.701,201.944,152.057,200.323,153.138z"/>
</g>
<g>
	<g>
		<path fill="#FFE415" stroke="#8A5E00" stroke-width="1.5" stroke-miterlimit="10" d="M117.8,203
			c0.673,1.905,0.02,3.625-2.051,5.089c-1.533,1.083-3.649,1.916-6.335,2.411c-0.884,0.163-1.737,0.273-2.557,0.333
			c-2.913,0.21-5.431-0.914-7.413-3.282c-1.525-1.822-2.521-4.064-3.05-6.691c-0.35-1.737-0.304-3.172,0.106-4.307
			c0.538-1.49,1.667-2.281,3.42-2.413c1.094-0.082,2.026,0.179,2.814,0.796c0.788,0.617,1.323,1.425,1.593,2.437
			c0.173,0.651,0.215,1.371,0.112,2.156c-0.147,1.126-0.044,2.415,0.33,3.861c0.385,1.491,0.979,2.702,1.801,3.616
			c1.095,1.217,2.461,1.684,4.042,1.371c0.156-0.031,0.319-0.071,0.488-0.121c1.47-0.433,2.391-1.263,2.732-2.442
			c0.165-0.569,0.164-1.103,0.007-1.589c-0.179-0.556-0.558-1.065-1.127-1.512c-1.284-1.009-5.928-1.5-5.928-1.5
			c-0.008-0.037,2.586-1.092,3.724-1.339c2.197-0.476,3.996-0.212,5.471,0.829C116.864,201.33,117.478,202.091,117.8,203z
			 M113.241,196.195c0.241,0.714,0.168,1.347-0.228,1.898c-0.396,0.551-1.004,0.916-1.814,1.08c-1.882,0.381-3.052-0.18-3.469-1.606
			c-0.034-0.115-0.074-0.297-0.122-0.547c-0.047-0.25-0.088-0.432-0.122-0.547c-0.287-0.98-0.852-1.593-1.683-1.841
			c-0.468-0.139-2.157-0.085-2.157-0.085c-0.023-0.06,2.412-1.557,3.539-1.79c1.497-0.31,2.868,0.021,4.159,1.006
			C112.299,194.49,112.938,195.296,113.241,196.195z"/>
		<path fill="#FFE415" stroke="#8A5E00" stroke-width="1.5" stroke-miterlimit="10" d="M126.147,197.243
			c0.77,0.994,1.393,2.022,1.859,3.09c0.599,1.374,0.705,2.589,0.314,3.634c-0.43,1.147-1.455,2.007-3.078,2.517
			c-1.121,0.352-2.172,0.248-3.122-0.305c-0.859-0.5-1.463-1.246-1.824-2.221c-0.209-0.566-0.314-1.17-0.316-1.809
			c-0.008-2.573-0.354-4.689-0.984-6.338c-0.673-1.761-3.151-5.189-3.151-5.189c0.072-0.111,5.356,2.1,7.669,3.988
			C124.574,195.476,125.456,196.35,126.147,197.243z"/>
		<path fill="#FFE415" stroke="#8A5E00" stroke-width="1.5" stroke-miterlimit="10" d="M144.653,185.957
			c0.746,1.192,0.86,2.441,0.304,3.742c-0.518,1.21-1.47,2.182-2.845,2.884c-1.888,0.964-6.809,0.704-6.809,0.704
			c0-0.019,2.05-0.483,2.828-0.853c1.675-0.797,2.529-1.906,2.585-3.251c0.027-0.649-0.117-1.243-0.421-1.77
			c-0.667-1.16-1.589-1.915-2.759-2.254c-1.171-0.339-2.346-0.219-3.554,0.352c-0.945,0.446-1.568,1.012-1.866,1.711
			c-0.637,1.495-0.619,2.972,0.108,4.427c0.849,1.701,2.638,3.07,5.425,3.954c0.713,0.226,1.27,0.696,1.657,1.421
			c0.53,0.995,0.555,1.992,0.051,2.987c-0.503,0.994-1.376,1.721-2.605,2.156c-1.687,0.597-3.303,0.301-4.782-0.817
			c-1.164-0.88-2.112-2.12-2.833-3.709c-1.09-2.404-1.345-4.839-0.87-7.288c0.568-2.931,2.128-4.945,4.74-6.172
			c2.377-1.117,4.458-1.656,6.309-1.543C141.544,182.773,143.34,183.858,144.653,185.957z M148.916,193.148
			c0.51,0.659,0.657,1.337,0.428,2.034c-0.229,0.697-0.758,1.275-1.587,1.721c-0.89,0.479-1.87,0.673-2.925,0.578
			c-1.677-0.152-2.953-1.052-3.841-2.652c-0.148-0.266-0.422-0.861-0.422-0.861c0.017-0.018,0.781,0.125,1.492,0.075
			c0.859-0.06,1.589-0.245,2.177-0.554c0.147-0.077,0.354-0.217,0.62-0.419c0.266-0.202,0.471-0.343,0.616-0.422
			c0.657-0.355,1.287-0.495,1.899-0.418S148.502,192.611,148.916,193.148z"/>
		<path fill="#FFE415" stroke="#8A5E00" stroke-width="1.5" stroke-miterlimit="10" d="M157.056,170.19
			c0.164,0.005,0.141,4.332-2.003,7.347c-0.906,1.274-2.07,2.577-3.499,3.881c-0.222,0.204-0.524,0.431-0.906,0.682
			c-1.266,0.829-2.527,1.294-3.744,1.413c-1.547,0.151-2.681-0.35-3.396-1.472c-0.123-0.193-0.24-0.435-0.352-0.723
			c-0.535-1.383,0.01-2.545,1.616-3.549c1.02-0.637,2.384-1.096,4.106-1.414c1.426-0.264,2.975-0.989,4.594-2.195
			C155.262,172.828,157.056,170.19,157.056,170.19z M160.677,182.98c0.2,0.176,0.464,0.476,0.794,0.899
			c1.469,1.887,1.164,3.635-0.989,5.146c-0.694,0.487-1.418,0.658-2.157,0.511c-0.739-0.146-1.328-0.536-1.771-1.16
			c-0.328-0.462-0.526-1.095-0.564-1.862c-0.032-0.639-0.027-1.33-0.068-1.983c-0.049-0.769-0.373-1.54-0.898-2.256
			c-0.39-0.531-1.591-1.607-1.591-1.607C153.491,180.49,158.744,181.27,160.677,182.98z"/>
		<path fill="#FFE415" stroke="#8A5E00" stroke-width="1.5" stroke-miterlimit="10" d="M169.569,170.845
			c0.765,0.477,1.425,1.005,1.977,1.582c0.987,1.033,1.603,2.174,1.818,3.425c0.243,1.419-0.092,2.723-0.998,3.868
			c-0.17,0.215-0.351,0.407-0.541,0.576c-0.862,0.765-1.853,1.009-2.926,0.771c-0.938-0.208-1.774-0.723-2.481-1.553
			c-0.458-0.538-0.774-1.115-0.955-1.725c-0.798-2.688-1.807-4.656-2.921-5.927c-1.326-1.513-5.152-3.263-5.152-3.263
			c0.002-0.044,2.435-0.378,3.697-0.331C164.086,168.378,166.924,169.195,169.569,170.845z M172.897,165.742
			c0.56,0.405,0.844,0.922,0.842,1.536c-0.003,0.615-0.265,1.192-0.784,1.722c-0.768,0.784-1.618,1.069-2.518,0.879
			c-0.8-0.169-2.223-1.483-2.223-1.483c0.018-0.036,0.917-0.218,1.397-0.696c0.168-0.167,0.352-0.464,0.548-0.892
			s0.375-0.727,0.539-0.896c0.296-0.305,0.647-0.472,1.056-0.501C172.164,165.379,172.548,165.489,172.897,165.742z
			 M178.231,163.745c0.687,0.445,1.386,0.986,2.091,1.621c2.164,1.948,2.564,3.779,1.136,5.409
			c-0.669,0.764-1.433,1.201-2.265,1.311c-0.831,0.109-1.569-0.159-2.214-0.793c-0.514-0.505-0.925-1.228-1.247-2.157
			c-0.908-2.622-2.419-4.874-4.442-6.796c-1.033-0.982-3.472-2.646-3.472-2.646C167.845,159.615,174.496,161.326,178.231,163.745z"
			/>
		<path fill="#FFE415" stroke="#8A5E00" stroke-width="1.5" stroke-miterlimit="10" d="M190.922,146.406
			c2.043,1.23,3.105,2.96,3.085,5.213c-0.016,1.723-0.679,3.602-2.023,5.559c-0.647,0.943-1.379,1.803-2.183,2.575
			c-2.191,2.102-4.555,3-6.946,2.762c-2.167-0.215-4.31-1.341-6.425-3.321c-1.343-1.257-2.245-2.575-2.715-3.927
			c-0.584-1.679-0.365-3.162,0.644-4.489c0.145-0.191,0.33-0.399,0.555-0.622c1.555-1.544,3.26-1.628,5.167-0.171
			c0.656,0.501,1.19,1.084,1.594,1.753c1.023,1.697,1.867,2.837,2.566,3.383c1.097,0.857,2.235,0.932,3.4,0.202
			c0.628-0.394,1.132-0.869,1.505-1.42c0.679-1.005,0.841-2.018,0.504-3.008c-0.288-0.847-0.909-1.607-1.857-2.274
			c-1.585-1.114-3.254-1.754-4.991-1.962c-2.278-0.272-5.723,1.777-5.723,1.777c-0.003-0.002,0.38-0.615,0.579-0.901
			c1.924-2.758,4.609-3.765,8.271-3.06C187.649,144.807,189.321,145.443,190.922,146.406z"/>
		<path fill="#FFE415" stroke="#8A5E00" stroke-width="1.5" stroke-miterlimit="10" d="M199.298,126.182
			c0.626,0.296,1.345,0.792,2.143,1.481c1.603,1.382,3.753,5.207,3.753,5.207c-0.03,0.022-2.184-1.634-3.431-2.249
			c-1.627-0.802-3.126-1.295-4.493-1.497c-3.209-0.475-5.278,0.406-6.329,2.685c-0.226,0.49-0.385,1.025-0.48,1.608
			c-0.239,1.483,0.487,2.727,2.219,3.735c1.09,0.634,2.39,1.089,3.901,1.344c0.856,0.144,1.583,0.384,2.176,0.723
			c1.424,0.813,1.927,2.215,1.462,4.183c-0.071,0.3-0.177,0.589-0.322,0.866c-0.619,1.18-1.659,1.848-3.076,1.998
			c-1.219,0.128-2.394-0.111-3.499-0.713c-0.2-0.109-0.498-0.293-0.894-0.55c-2.391-1.547-4.162-3.433-5.375-5.606
			c-1.598-2.859-1.751-5.648-0.549-8.547c1.327-3.2,3.273-5.076,6.056-5.642C194.706,124.772,196.958,125.077,199.298,126.182z
			 M197.968,130.865c0.755,0.385,1.197,0.995,1.312,1.831c0.104,0.753-0.04,1.64-0.49,2.453c-0.326,0.59-0.818,1.061-1.331,1.366
			c-1.197,0.712-4.122-0.333-4.122-0.333c0.005-0.048,0.908-0.619,1.25-1.346c0.195-0.415,0.291-0.853,0.278-1.301
			c-0.017-0.64,0.069-1.196,0.275-1.66c0.264-0.598,0.661-0.985,1.196-1.162C196.871,130.535,197.415,130.583,197.968,130.865z"/>
		<path fill="#FFE415" stroke="#8A5E00" stroke-width="1.5" stroke-miterlimit="10" d="M200.305,103.568
			c2.013,0.537,3.378,1.776,4.031,3.756c0.654,1.979,0.59,4.663-0.315,7.917c-0.786,2.825-1.891,4.87-3.209,6.125
			c-1.678,1.597-3.64,1.845-5.823,0.856c-1.359-0.616-2.234-1.525-2.654-2.699c-0.4-1.12-0.362-2.416,0.107-3.916
			c0.305-0.976,0.787-1.682,1.457-2.114c0.723-0.467,1.529-0.54,2.413-0.206c0.365,0.138,0.665,0.313,0.901,0.523
			c0.816,0.728,1.499,1.201,2.045,1.411c1.023,0.393,1.849,0.085,2.451-0.944c0.378-0.646,0.659-1.336,0.842-2.06
			c0.267-1.052,0.297-2.098,0.082-3.106c-0.233-1.089-0.727-1.954-1.444-2.582c-0.59-0.516-1.343-0.915-2.257-1.197
			c-1.257-0.388-3.766-0.009-3.766-0.009C195.11,105.239,198.221,103.012,200.305,103.568z M208.655,111.789
			c0.278,0.022,0.564,0.104,0.805,0.185c1.375,0.458,1.838,1.697,1.326,3.686c-0.189,0.733-0.483,1.284-0.877,1.651
			c-0.454,0.422-0.964,0.522-1.526,0.311c-0.618-0.232-1.164-0.849-1.659-1.824c-0.301-0.593-0.683-0.97-1.134-1.134
			c-0.239-0.087-0.863-0.149-0.863-0.149C204.599,114.266,207.309,111.683,208.655,111.789z"/>
	</g>
</g>
</svg>
